G04 #@! TF.GenerationSoftware,KiCad,Pcbnew,7.0.1*
G04 #@! TF.CreationDate,2023-07-28T03:37:33-04:00*
G04 #@! TF.ProjectId,cdm324_v2,63646d33-3234-45f7-9632-2e6b69636164,rev?*
G04 #@! TF.SameCoordinates,Original*
G04 #@! TF.FileFunction,Legend,Top*
G04 #@! TF.FilePolarity,Positive*
%FSLAX46Y46*%
G04 Gerber Fmt 4.6, Leading zero omitted, Abs format (unit mm)*
G04 Created by KiCad (PCBNEW 7.0.1) date 2023-07-28 03:37:33*
%MOMM*%
%LPD*%
G01*
G04 APERTURE LIST*
%ADD10C,0.120000*%
%ADD11C,0.100000*%
%ADD12C,0.150000*%
G04 APERTURE END LIST*
D10*
X92850000Y-52250000D02*
G75*
G03*
X92850000Y-52250000I-200000J0D01*
G01*
X90519258Y-56100000D02*
G75*
G03*
X90519258Y-56100000I-269258J0D01*
G01*
X97204951Y-79650000D02*
G75*
G03*
X97204951Y-79650000I-254951J0D01*
G01*
X100237836Y-51490000D02*
X100022164Y-51490000D01*
X100237836Y-52210000D02*
X100022164Y-52210000D01*
X108811252Y-51585000D02*
X108288748Y-51585000D01*
X108811252Y-50115000D02*
X108288748Y-50115000D01*
X105261252Y-52985000D02*
X104738748Y-52985000D01*
X105261252Y-51515000D02*
X104738748Y-51515000D01*
X100452164Y-79940000D02*
X100667836Y-79940000D01*
X100452164Y-80660000D02*
X100667836Y-80660000D01*
X95437500Y-78745336D02*
X95437500Y-78529664D01*
X96157500Y-78745336D02*
X96157500Y-78529664D01*
X85784758Y-73960000D02*
X85310242Y-73960000D01*
X85784758Y-72915000D02*
X85310242Y-72915000D01*
X102070000Y-79147500D02*
X101595000Y-79147500D01*
X96850000Y-78672500D02*
X96850000Y-79147500D01*
X102070000Y-78672500D02*
X102070000Y-79147500D01*
X96850000Y-74402500D02*
X96850000Y-73927500D01*
X102070000Y-74402500D02*
X102070000Y-73927500D01*
X96850000Y-73927500D02*
X97325000Y-73927500D01*
X102070000Y-73927500D02*
X101595000Y-73927500D01*
X111435000Y-55438748D02*
X111435000Y-55961252D01*
X109965000Y-55438748D02*
X109965000Y-55961252D01*
X101340000Y-56053080D02*
X101340000Y-55771920D01*
X102360000Y-56053080D02*
X102360000Y-55771920D01*
X99777500Y-56149758D02*
X99777500Y-55675242D01*
X100822500Y-56149758D02*
X100822500Y-55675242D01*
X101327500Y-53087258D02*
X101327500Y-52612742D01*
X102372500Y-53087258D02*
X102372500Y-52612742D01*
X103520000Y-74092164D02*
X103520000Y-74307836D01*
X102800000Y-74092164D02*
X102800000Y-74307836D01*
X107058750Y-53861252D02*
X107058750Y-53338748D01*
X108528750Y-53861252D02*
X108528750Y-53338748D01*
X112600000Y-53410000D02*
X114400000Y-53410000D01*
X112600000Y-53410000D02*
X111800000Y-53410000D01*
X112600000Y-50290000D02*
X113400000Y-50290000D01*
X112600000Y-50290000D02*
X111800000Y-50290000D01*
X86307836Y-50310000D02*
X86092164Y-50310000D01*
X86307836Y-49590000D02*
X86092164Y-49590000D01*
X89860000Y-51015000D02*
X89860000Y-51490000D01*
X89385000Y-56235000D02*
X89860000Y-56235000D01*
X89385000Y-51015000D02*
X89860000Y-51015000D01*
X85115000Y-56235000D02*
X84640000Y-56235000D01*
X85115000Y-51015000D02*
X84640000Y-51015000D01*
X84640000Y-56235000D02*
X84640000Y-55760000D01*
X84640000Y-51015000D02*
X84640000Y-51490000D01*
X104227500Y-79857500D02*
X114507500Y-79857500D01*
X104227500Y-79857500D02*
X104227500Y-77257500D01*
X114507500Y-79857500D02*
X114507500Y-74657500D01*
X104227500Y-77257500D02*
X106827500Y-77257500D01*
X106827500Y-77257500D02*
X106827500Y-74657500D01*
X104227500Y-75987500D02*
X104227500Y-74657500D01*
X104227500Y-74657500D02*
X105557500Y-74657500D01*
X106827500Y-74657500D02*
X114507500Y-74657500D01*
X93740000Y-51377836D02*
X93740000Y-51162164D01*
X94460000Y-51377836D02*
X94460000Y-51162164D01*
X107638748Y-55665000D02*
X108161252Y-55665000D01*
X107638748Y-57135000D02*
X108161252Y-57135000D01*
X113150378Y-53940000D02*
X113949622Y-53940000D01*
X113150378Y-55060000D02*
X113949622Y-55060000D01*
X103530000Y-75996359D02*
X103530000Y-76303641D01*
X102770000Y-75996359D02*
X102770000Y-76303641D01*
X91910000Y-55392164D02*
X91910000Y-55607836D01*
X91190000Y-55392164D02*
X91190000Y-55607836D01*
X89137258Y-50172500D02*
X88662742Y-50172500D01*
X89137258Y-49127500D02*
X88662742Y-49127500D01*
X103527500Y-78733859D02*
X103527500Y-79041141D01*
X102767500Y-78733859D02*
X102767500Y-79041141D01*
D11*
X85000000Y-57500000D02*
X115000000Y-57500000D01*
X85000000Y-72500000D02*
X85000000Y-57500000D01*
X115000000Y-57500000D02*
X115000000Y-72500000D01*
X115000000Y-72500000D02*
X85000000Y-72500000D01*
D10*
X97260000Y-54812164D02*
X97260000Y-55027836D01*
X96540000Y-54812164D02*
X96540000Y-55027836D01*
X92340000Y-50840580D02*
X92340000Y-50559420D01*
X93360000Y-50840580D02*
X93360000Y-50559420D01*
X97672500Y-52187742D02*
X97672500Y-52662258D01*
X96627500Y-52187742D02*
X96627500Y-52662258D01*
D12*
X92800000Y-55695000D02*
X95800000Y-55695000D01*
X94300000Y-52445000D02*
X95800000Y-52445000D01*
D10*
X102840000Y-55350000D02*
X102840000Y-57150000D01*
X102840000Y-55350000D02*
X102840000Y-54550000D01*
X105960000Y-55350000D02*
X105960000Y-56150000D01*
X105960000Y-55350000D02*
X105960000Y-54550000D01*
X96892164Y-56060000D02*
X97107836Y-56060000D01*
X96892164Y-56780000D02*
X97107836Y-56780000D01*
X94877500Y-50937258D02*
X94877500Y-50462742D01*
X95922500Y-50937258D02*
X95922500Y-50462742D01*
X113861252Y-57135000D02*
X113338748Y-57135000D01*
X113861252Y-55665000D02*
X113338748Y-55665000D01*
X84527500Y-79857500D02*
X94807500Y-79857500D01*
X84527500Y-79857500D02*
X84527500Y-77257500D01*
X94807500Y-79857500D02*
X94807500Y-74657500D01*
X84527500Y-77257500D02*
X87127500Y-77257500D01*
X87127500Y-77257500D02*
X87127500Y-74657500D01*
X84527500Y-75987500D02*
X84527500Y-74657500D01*
X84527500Y-74657500D02*
X85857500Y-74657500D01*
X87127500Y-74657500D02*
X94807500Y-74657500D01*
X99272500Y-55662742D02*
X99272500Y-56137258D01*
X98227500Y-55662742D02*
X98227500Y-56137258D01*
X90627500Y-50637258D02*
X90627500Y-50162742D01*
X91672500Y-50637258D02*
X91672500Y-50162742D01*
M02*
