G04 #@! TF.GenerationSoftware,KiCad,Pcbnew,7.0.1*
G04 #@! TF.CreationDate,2023-07-28T03:37:33-04:00*
G04 #@! TF.ProjectId,cdm324_v2,63646d33-3234-45f7-9632-2e6b69636164,rev?*
G04 #@! TF.SameCoordinates,Original*
G04 #@! TF.FileFunction,Legend,Bot*
G04 #@! TF.FilePolarity,Positive*
%FSLAX46Y46*%
G04 Gerber Fmt 4.6, Leading zero omitted, Abs format (unit mm)*
G04 Created by KiCad (PCBNEW 7.0.1) date 2023-07-28 03:37:33*
%MOMM*%
%LPD*%
G01*
G04 APERTURE LIST*
%ADD10C,0.375000*%
%ADD11C,0.120000*%
G04 APERTURE END LIST*
D10*
X113728570Y-62206071D02*
X113799998Y-62277500D01*
X113799998Y-62277500D02*
X114014284Y-62348928D01*
X114014284Y-62348928D02*
X114157141Y-62348928D01*
X114157141Y-62348928D02*
X114371427Y-62277500D01*
X114371427Y-62277500D02*
X114514284Y-62134642D01*
X114514284Y-62134642D02*
X114585713Y-61991785D01*
X114585713Y-61991785D02*
X114657141Y-61706071D01*
X114657141Y-61706071D02*
X114657141Y-61491785D01*
X114657141Y-61491785D02*
X114585713Y-61206071D01*
X114585713Y-61206071D02*
X114514284Y-61063214D01*
X114514284Y-61063214D02*
X114371427Y-60920357D01*
X114371427Y-60920357D02*
X114157141Y-60848928D01*
X114157141Y-60848928D02*
X114014284Y-60848928D01*
X114014284Y-60848928D02*
X113799998Y-60920357D01*
X113799998Y-60920357D02*
X113728570Y-60991785D01*
X113085713Y-62348928D02*
X113085713Y-60848928D01*
X113085713Y-60848928D02*
X112728570Y-60848928D01*
X112728570Y-60848928D02*
X112514284Y-60920357D01*
X112514284Y-60920357D02*
X112371427Y-61063214D01*
X112371427Y-61063214D02*
X112299998Y-61206071D01*
X112299998Y-61206071D02*
X112228570Y-61491785D01*
X112228570Y-61491785D02*
X112228570Y-61706071D01*
X112228570Y-61706071D02*
X112299998Y-61991785D01*
X112299998Y-61991785D02*
X112371427Y-62134642D01*
X112371427Y-62134642D02*
X112514284Y-62277500D01*
X112514284Y-62277500D02*
X112728570Y-62348928D01*
X112728570Y-62348928D02*
X113085713Y-62348928D01*
X111585713Y-62348928D02*
X111585713Y-60848928D01*
X111585713Y-60848928D02*
X111085713Y-61920357D01*
X111085713Y-61920357D02*
X110585713Y-60848928D01*
X110585713Y-60848928D02*
X110585713Y-62348928D01*
X110014284Y-60848928D02*
X109085712Y-60848928D01*
X109085712Y-60848928D02*
X109585712Y-61420357D01*
X109585712Y-61420357D02*
X109371427Y-61420357D01*
X109371427Y-61420357D02*
X109228570Y-61491785D01*
X109228570Y-61491785D02*
X109157141Y-61563214D01*
X109157141Y-61563214D02*
X109085712Y-61706071D01*
X109085712Y-61706071D02*
X109085712Y-62063214D01*
X109085712Y-62063214D02*
X109157141Y-62206071D01*
X109157141Y-62206071D02*
X109228570Y-62277500D01*
X109228570Y-62277500D02*
X109371427Y-62348928D01*
X109371427Y-62348928D02*
X109799998Y-62348928D01*
X109799998Y-62348928D02*
X109942855Y-62277500D01*
X109942855Y-62277500D02*
X110014284Y-62206071D01*
X108514284Y-60991785D02*
X108442856Y-60920357D01*
X108442856Y-60920357D02*
X108299999Y-60848928D01*
X108299999Y-60848928D02*
X107942856Y-60848928D01*
X107942856Y-60848928D02*
X107799999Y-60920357D01*
X107799999Y-60920357D02*
X107728570Y-60991785D01*
X107728570Y-60991785D02*
X107657141Y-61134642D01*
X107657141Y-61134642D02*
X107657141Y-61277500D01*
X107657141Y-61277500D02*
X107728570Y-61491785D01*
X107728570Y-61491785D02*
X108585713Y-62348928D01*
X108585713Y-62348928D02*
X107657141Y-62348928D01*
X106371428Y-61348928D02*
X106371428Y-62348928D01*
X106728570Y-60777500D02*
X107085713Y-61848928D01*
X107085713Y-61848928D02*
X106157142Y-61848928D01*
X104442857Y-62348928D02*
X104442857Y-60848928D01*
X104442857Y-61420357D02*
X104300000Y-61348928D01*
X104300000Y-61348928D02*
X104014285Y-61348928D01*
X104014285Y-61348928D02*
X103871428Y-61420357D01*
X103871428Y-61420357D02*
X103800000Y-61491785D01*
X103800000Y-61491785D02*
X103728571Y-61634642D01*
X103728571Y-61634642D02*
X103728571Y-62063214D01*
X103728571Y-62063214D02*
X103800000Y-62206071D01*
X103800000Y-62206071D02*
X103871428Y-62277500D01*
X103871428Y-62277500D02*
X104014285Y-62348928D01*
X104014285Y-62348928D02*
X104300000Y-62348928D01*
X104300000Y-62348928D02*
X104442857Y-62277500D01*
X102442857Y-62348928D02*
X102442857Y-61563214D01*
X102442857Y-61563214D02*
X102514285Y-61420357D01*
X102514285Y-61420357D02*
X102657142Y-61348928D01*
X102657142Y-61348928D02*
X102942857Y-61348928D01*
X102942857Y-61348928D02*
X103085714Y-61420357D01*
X102442857Y-62277500D02*
X102585714Y-62348928D01*
X102585714Y-62348928D02*
X102942857Y-62348928D01*
X102942857Y-62348928D02*
X103085714Y-62277500D01*
X103085714Y-62277500D02*
X103157142Y-62134642D01*
X103157142Y-62134642D02*
X103157142Y-61991785D01*
X103157142Y-61991785D02*
X103085714Y-61848928D01*
X103085714Y-61848928D02*
X102942857Y-61777500D01*
X102942857Y-61777500D02*
X102585714Y-61777500D01*
X102585714Y-61777500D02*
X102442857Y-61706071D01*
X101085714Y-62277500D02*
X101228571Y-62348928D01*
X101228571Y-62348928D02*
X101514285Y-62348928D01*
X101514285Y-62348928D02*
X101657142Y-62277500D01*
X101657142Y-62277500D02*
X101728571Y-62206071D01*
X101728571Y-62206071D02*
X101799999Y-62063214D01*
X101799999Y-62063214D02*
X101799999Y-61634642D01*
X101799999Y-61634642D02*
X101728571Y-61491785D01*
X101728571Y-61491785D02*
X101657142Y-61420357D01*
X101657142Y-61420357D02*
X101514285Y-61348928D01*
X101514285Y-61348928D02*
X101228571Y-61348928D01*
X101228571Y-61348928D02*
X101085714Y-61420357D01*
X100442857Y-62348928D02*
X100442857Y-60848928D01*
X100300000Y-61777500D02*
X99871428Y-62348928D01*
X99871428Y-61348928D02*
X100442857Y-61920357D01*
X99228571Y-61348928D02*
X99228571Y-62848928D01*
X99228571Y-61420357D02*
X99085714Y-61348928D01*
X99085714Y-61348928D02*
X98799999Y-61348928D01*
X98799999Y-61348928D02*
X98657142Y-61420357D01*
X98657142Y-61420357D02*
X98585714Y-61491785D01*
X98585714Y-61491785D02*
X98514285Y-61634642D01*
X98514285Y-61634642D02*
X98514285Y-62063214D01*
X98514285Y-62063214D02*
X98585714Y-62206071D01*
X98585714Y-62206071D02*
X98657142Y-62277500D01*
X98657142Y-62277500D02*
X98799999Y-62348928D01*
X98799999Y-62348928D02*
X99085714Y-62348928D01*
X99085714Y-62348928D02*
X99228571Y-62277500D01*
X97228571Y-62348928D02*
X97228571Y-61563214D01*
X97228571Y-61563214D02*
X97299999Y-61420357D01*
X97299999Y-61420357D02*
X97442856Y-61348928D01*
X97442856Y-61348928D02*
X97728571Y-61348928D01*
X97728571Y-61348928D02*
X97871428Y-61420357D01*
X97228571Y-62277500D02*
X97371428Y-62348928D01*
X97371428Y-62348928D02*
X97728571Y-62348928D01*
X97728571Y-62348928D02*
X97871428Y-62277500D01*
X97871428Y-62277500D02*
X97942856Y-62134642D01*
X97942856Y-62134642D02*
X97942856Y-61991785D01*
X97942856Y-61991785D02*
X97871428Y-61848928D01*
X97871428Y-61848928D02*
X97728571Y-61777500D01*
X97728571Y-61777500D02*
X97371428Y-61777500D01*
X97371428Y-61777500D02*
X97228571Y-61706071D01*
X95871428Y-62277500D02*
X96014285Y-62348928D01*
X96014285Y-62348928D02*
X96299999Y-62348928D01*
X96299999Y-62348928D02*
X96442856Y-62277500D01*
X96442856Y-62277500D02*
X96514285Y-62206071D01*
X96514285Y-62206071D02*
X96585713Y-62063214D01*
X96585713Y-62063214D02*
X96585713Y-61634642D01*
X96585713Y-61634642D02*
X96514285Y-61491785D01*
X96514285Y-61491785D02*
X96442856Y-61420357D01*
X96442856Y-61420357D02*
X96299999Y-61348928D01*
X96299999Y-61348928D02*
X96014285Y-61348928D01*
X96014285Y-61348928D02*
X95871428Y-61420357D01*
X95228571Y-62348928D02*
X95228571Y-60848928D01*
X95085714Y-61777500D02*
X94657142Y-62348928D01*
X94657142Y-61348928D02*
X95228571Y-61920357D01*
X93014285Y-61348928D02*
X92657142Y-62348928D01*
X92657142Y-62348928D02*
X92299999Y-61348928D01*
X91799999Y-60991785D02*
X91728571Y-60920357D01*
X91728571Y-60920357D02*
X91585714Y-60848928D01*
X91585714Y-60848928D02*
X91228571Y-60848928D01*
X91228571Y-60848928D02*
X91085714Y-60920357D01*
X91085714Y-60920357D02*
X91014285Y-60991785D01*
X91014285Y-60991785D02*
X90942856Y-61134642D01*
X90942856Y-61134642D02*
X90942856Y-61277500D01*
X90942856Y-61277500D02*
X91014285Y-61491785D01*
X91014285Y-61491785D02*
X91871428Y-62348928D01*
X91871428Y-62348928D02*
X90942856Y-62348928D01*
X113799999Y-64707500D02*
X113585714Y-64778928D01*
X113585714Y-64778928D02*
X113228571Y-64778928D01*
X113228571Y-64778928D02*
X113085714Y-64707500D01*
X113085714Y-64707500D02*
X113014285Y-64636071D01*
X113014285Y-64636071D02*
X112942856Y-64493214D01*
X112942856Y-64493214D02*
X112942856Y-64350357D01*
X112942856Y-64350357D02*
X113014285Y-64207500D01*
X113014285Y-64207500D02*
X113085714Y-64136071D01*
X113085714Y-64136071D02*
X113228571Y-64064642D01*
X113228571Y-64064642D02*
X113514285Y-63993214D01*
X113514285Y-63993214D02*
X113657142Y-63921785D01*
X113657142Y-63921785D02*
X113728571Y-63850357D01*
X113728571Y-63850357D02*
X113799999Y-63707500D01*
X113799999Y-63707500D02*
X113799999Y-63564642D01*
X113799999Y-63564642D02*
X113728571Y-63421785D01*
X113728571Y-63421785D02*
X113657142Y-63350357D01*
X113657142Y-63350357D02*
X113514285Y-63278928D01*
X113514285Y-63278928D02*
X113157142Y-63278928D01*
X113157142Y-63278928D02*
X112942856Y-63350357D01*
X112514285Y-63778928D02*
X111942857Y-63778928D01*
X112300000Y-63278928D02*
X112300000Y-64564642D01*
X112300000Y-64564642D02*
X112228571Y-64707500D01*
X112228571Y-64707500D02*
X112085714Y-64778928D01*
X112085714Y-64778928D02*
X111942857Y-64778928D01*
X110871428Y-64707500D02*
X111014285Y-64778928D01*
X111014285Y-64778928D02*
X111300000Y-64778928D01*
X111300000Y-64778928D02*
X111442857Y-64707500D01*
X111442857Y-64707500D02*
X111514285Y-64564642D01*
X111514285Y-64564642D02*
X111514285Y-63993214D01*
X111514285Y-63993214D02*
X111442857Y-63850357D01*
X111442857Y-63850357D02*
X111300000Y-63778928D01*
X111300000Y-63778928D02*
X111014285Y-63778928D01*
X111014285Y-63778928D02*
X110871428Y-63850357D01*
X110871428Y-63850357D02*
X110800000Y-63993214D01*
X110800000Y-63993214D02*
X110800000Y-64136071D01*
X110800000Y-64136071D02*
X111514285Y-64278928D01*
X110157143Y-63778928D02*
X110157143Y-65278928D01*
X110157143Y-63850357D02*
X110014286Y-63778928D01*
X110014286Y-63778928D02*
X109728571Y-63778928D01*
X109728571Y-63778928D02*
X109585714Y-63850357D01*
X109585714Y-63850357D02*
X109514286Y-63921785D01*
X109514286Y-63921785D02*
X109442857Y-64064642D01*
X109442857Y-64064642D02*
X109442857Y-64493214D01*
X109442857Y-64493214D02*
X109514286Y-64636071D01*
X109514286Y-64636071D02*
X109585714Y-64707500D01*
X109585714Y-64707500D02*
X109728571Y-64778928D01*
X109728571Y-64778928D02*
X110014286Y-64778928D01*
X110014286Y-64778928D02*
X110157143Y-64707500D01*
X108800000Y-64778928D02*
X108800000Y-63278928D01*
X108157143Y-64778928D02*
X108157143Y-63993214D01*
X108157143Y-63993214D02*
X108228571Y-63850357D01*
X108228571Y-63850357D02*
X108371428Y-63778928D01*
X108371428Y-63778928D02*
X108585714Y-63778928D01*
X108585714Y-63778928D02*
X108728571Y-63850357D01*
X108728571Y-63850357D02*
X108800000Y-63921785D01*
X106800000Y-64778928D02*
X106800000Y-63993214D01*
X106800000Y-63993214D02*
X106871428Y-63850357D01*
X106871428Y-63850357D02*
X107014285Y-63778928D01*
X107014285Y-63778928D02*
X107300000Y-63778928D01*
X107300000Y-63778928D02*
X107442857Y-63850357D01*
X106800000Y-64707500D02*
X106942857Y-64778928D01*
X106942857Y-64778928D02*
X107300000Y-64778928D01*
X107300000Y-64778928D02*
X107442857Y-64707500D01*
X107442857Y-64707500D02*
X107514285Y-64564642D01*
X107514285Y-64564642D02*
X107514285Y-64421785D01*
X107514285Y-64421785D02*
X107442857Y-64278928D01*
X107442857Y-64278928D02*
X107300000Y-64207500D01*
X107300000Y-64207500D02*
X106942857Y-64207500D01*
X106942857Y-64207500D02*
X106800000Y-64136071D01*
X106085714Y-63778928D02*
X106085714Y-64778928D01*
X106085714Y-63921785D02*
X106014285Y-63850357D01*
X106014285Y-63850357D02*
X105871428Y-63778928D01*
X105871428Y-63778928D02*
X105657142Y-63778928D01*
X105657142Y-63778928D02*
X105514285Y-63850357D01*
X105514285Y-63850357D02*
X105442857Y-63993214D01*
X105442857Y-63993214D02*
X105442857Y-64778928D01*
X103585714Y-63993214D02*
X103085714Y-63993214D01*
X102871428Y-64778928D02*
X103585714Y-64778928D01*
X103585714Y-64778928D02*
X103585714Y-63278928D01*
X103585714Y-63278928D02*
X102871428Y-63278928D01*
X102014285Y-64778928D02*
X102157142Y-64707500D01*
X102157142Y-64707500D02*
X102228571Y-64564642D01*
X102228571Y-64564642D02*
X102228571Y-63278928D01*
X100871428Y-64707500D02*
X101014285Y-64778928D01*
X101014285Y-64778928D02*
X101300000Y-64778928D01*
X101300000Y-64778928D02*
X101442857Y-64707500D01*
X101442857Y-64707500D02*
X101514285Y-64564642D01*
X101514285Y-64564642D02*
X101514285Y-63993214D01*
X101514285Y-63993214D02*
X101442857Y-63850357D01*
X101442857Y-63850357D02*
X101300000Y-63778928D01*
X101300000Y-63778928D02*
X101014285Y-63778928D01*
X101014285Y-63778928D02*
X100871428Y-63850357D01*
X100871428Y-63850357D02*
X100800000Y-63993214D01*
X100800000Y-63993214D02*
X100800000Y-64136071D01*
X100800000Y-64136071D02*
X101514285Y-64278928D01*
X99514286Y-64707500D02*
X99657143Y-64778928D01*
X99657143Y-64778928D02*
X99942857Y-64778928D01*
X99942857Y-64778928D02*
X100085714Y-64707500D01*
X100085714Y-64707500D02*
X100157143Y-64636071D01*
X100157143Y-64636071D02*
X100228571Y-64493214D01*
X100228571Y-64493214D02*
X100228571Y-64064642D01*
X100228571Y-64064642D02*
X100157143Y-63921785D01*
X100157143Y-63921785D02*
X100085714Y-63850357D01*
X100085714Y-63850357D02*
X99942857Y-63778928D01*
X99942857Y-63778928D02*
X99657143Y-63778928D01*
X99657143Y-63778928D02*
X99514286Y-63850357D01*
X99085714Y-63778928D02*
X98514286Y-63778928D01*
X98871429Y-63278928D02*
X98871429Y-64564642D01*
X98871429Y-64564642D02*
X98800000Y-64707500D01*
X98800000Y-64707500D02*
X98657143Y-64778928D01*
X98657143Y-64778928D02*
X98514286Y-64778928D01*
X98014286Y-64778928D02*
X98014286Y-63778928D01*
X98014286Y-64064642D02*
X97942857Y-63921785D01*
X97942857Y-63921785D02*
X97871429Y-63850357D01*
X97871429Y-63850357D02*
X97728571Y-63778928D01*
X97728571Y-63778928D02*
X97585714Y-63778928D01*
X96871429Y-64778928D02*
X97014286Y-64707500D01*
X97014286Y-64707500D02*
X97085715Y-64636071D01*
X97085715Y-64636071D02*
X97157143Y-64493214D01*
X97157143Y-64493214D02*
X97157143Y-64064642D01*
X97157143Y-64064642D02*
X97085715Y-63921785D01*
X97085715Y-63921785D02*
X97014286Y-63850357D01*
X97014286Y-63850357D02*
X96871429Y-63778928D01*
X96871429Y-63778928D02*
X96657143Y-63778928D01*
X96657143Y-63778928D02*
X96514286Y-63850357D01*
X96514286Y-63850357D02*
X96442858Y-63921785D01*
X96442858Y-63921785D02*
X96371429Y-64064642D01*
X96371429Y-64064642D02*
X96371429Y-64493214D01*
X96371429Y-64493214D02*
X96442858Y-64636071D01*
X96442858Y-64636071D02*
X96514286Y-64707500D01*
X96514286Y-64707500D02*
X96657143Y-64778928D01*
X96657143Y-64778928D02*
X96871429Y-64778928D01*
X95728572Y-63778928D02*
X95728572Y-64778928D01*
X95728572Y-63921785D02*
X95657143Y-63850357D01*
X95657143Y-63850357D02*
X95514286Y-63778928D01*
X95514286Y-63778928D02*
X95300000Y-63778928D01*
X95300000Y-63778928D02*
X95157143Y-63850357D01*
X95157143Y-63850357D02*
X95085715Y-63993214D01*
X95085715Y-63993214D02*
X95085715Y-64778928D01*
X94371429Y-64778928D02*
X94371429Y-63778928D01*
X94371429Y-63278928D02*
X94442857Y-63350357D01*
X94442857Y-63350357D02*
X94371429Y-63421785D01*
X94371429Y-63421785D02*
X94300000Y-63350357D01*
X94300000Y-63350357D02*
X94371429Y-63278928D01*
X94371429Y-63278928D02*
X94371429Y-63421785D01*
X93014286Y-64707500D02*
X93157143Y-64778928D01*
X93157143Y-64778928D02*
X93442857Y-64778928D01*
X93442857Y-64778928D02*
X93585714Y-64707500D01*
X93585714Y-64707500D02*
X93657143Y-64636071D01*
X93657143Y-64636071D02*
X93728571Y-64493214D01*
X93728571Y-64493214D02*
X93728571Y-64064642D01*
X93728571Y-64064642D02*
X93657143Y-63921785D01*
X93657143Y-63921785D02*
X93585714Y-63850357D01*
X93585714Y-63850357D02*
X93442857Y-63778928D01*
X93442857Y-63778928D02*
X93157143Y-63778928D01*
X93157143Y-63778928D02*
X93014286Y-63850357D01*
X92442857Y-64707500D02*
X92300000Y-64778928D01*
X92300000Y-64778928D02*
X92014286Y-64778928D01*
X92014286Y-64778928D02*
X91871429Y-64707500D01*
X91871429Y-64707500D02*
X91800000Y-64564642D01*
X91800000Y-64564642D02*
X91800000Y-64493214D01*
X91800000Y-64493214D02*
X91871429Y-64350357D01*
X91871429Y-64350357D02*
X92014286Y-64278928D01*
X92014286Y-64278928D02*
X92228572Y-64278928D01*
X92228572Y-64278928D02*
X92371429Y-64207500D01*
X92371429Y-64207500D02*
X92442857Y-64064642D01*
X92442857Y-64064642D02*
X92442857Y-63993214D01*
X92442857Y-63993214D02*
X92371429Y-63850357D01*
X92371429Y-63850357D02*
X92228572Y-63778928D01*
X92228572Y-63778928D02*
X92014286Y-63778928D01*
X92014286Y-63778928D02*
X91871429Y-63850357D01*
X114228570Y-66351785D02*
X114371427Y-66280357D01*
X114371427Y-66280357D02*
X114442856Y-66208928D01*
X114442856Y-66208928D02*
X114514284Y-66066071D01*
X114514284Y-66066071D02*
X114514284Y-65994642D01*
X114514284Y-65994642D02*
X114442856Y-65851785D01*
X114442856Y-65851785D02*
X114371427Y-65780357D01*
X114371427Y-65780357D02*
X114228570Y-65708928D01*
X114228570Y-65708928D02*
X113942856Y-65708928D01*
X113942856Y-65708928D02*
X113799999Y-65780357D01*
X113799999Y-65780357D02*
X113728570Y-65851785D01*
X113728570Y-65851785D02*
X113657141Y-65994642D01*
X113657141Y-65994642D02*
X113657141Y-66066071D01*
X113657141Y-66066071D02*
X113728570Y-66208928D01*
X113728570Y-66208928D02*
X113799999Y-66280357D01*
X113799999Y-66280357D02*
X113942856Y-66351785D01*
X113942856Y-66351785D02*
X114228570Y-66351785D01*
X114228570Y-66351785D02*
X114371427Y-66423214D01*
X114371427Y-66423214D02*
X114442856Y-66494642D01*
X114442856Y-66494642D02*
X114514284Y-66637500D01*
X114514284Y-66637500D02*
X114514284Y-66923214D01*
X114514284Y-66923214D02*
X114442856Y-67066071D01*
X114442856Y-67066071D02*
X114371427Y-67137500D01*
X114371427Y-67137500D02*
X114228570Y-67208928D01*
X114228570Y-67208928D02*
X113942856Y-67208928D01*
X113942856Y-67208928D02*
X113799999Y-67137500D01*
X113799999Y-67137500D02*
X113728570Y-67066071D01*
X113728570Y-67066071D02*
X113657141Y-66923214D01*
X113657141Y-66923214D02*
X113657141Y-66637500D01*
X113657141Y-66637500D02*
X113728570Y-66494642D01*
X113728570Y-66494642D02*
X113799999Y-66423214D01*
X113799999Y-66423214D02*
X113942856Y-66351785D01*
X111942856Y-65637500D02*
X113228570Y-67566071D01*
X111514284Y-65851785D02*
X111442856Y-65780357D01*
X111442856Y-65780357D02*
X111299999Y-65708928D01*
X111299999Y-65708928D02*
X110942856Y-65708928D01*
X110942856Y-65708928D02*
X110799999Y-65780357D01*
X110799999Y-65780357D02*
X110728570Y-65851785D01*
X110728570Y-65851785D02*
X110657141Y-65994642D01*
X110657141Y-65994642D02*
X110657141Y-66137500D01*
X110657141Y-66137500D02*
X110728570Y-66351785D01*
X110728570Y-66351785D02*
X111585713Y-67208928D01*
X111585713Y-67208928D02*
X110657141Y-67208928D01*
X109728570Y-65708928D02*
X109585713Y-65708928D01*
X109585713Y-65708928D02*
X109442856Y-65780357D01*
X109442856Y-65780357D02*
X109371428Y-65851785D01*
X109371428Y-65851785D02*
X109299999Y-65994642D01*
X109299999Y-65994642D02*
X109228570Y-66280357D01*
X109228570Y-66280357D02*
X109228570Y-66637500D01*
X109228570Y-66637500D02*
X109299999Y-66923214D01*
X109299999Y-66923214D02*
X109371428Y-67066071D01*
X109371428Y-67066071D02*
X109442856Y-67137500D01*
X109442856Y-67137500D02*
X109585713Y-67208928D01*
X109585713Y-67208928D02*
X109728570Y-67208928D01*
X109728570Y-67208928D02*
X109871428Y-67137500D01*
X109871428Y-67137500D02*
X109942856Y-67066071D01*
X109942856Y-67066071D02*
X110014285Y-66923214D01*
X110014285Y-66923214D02*
X110085713Y-66637500D01*
X110085713Y-66637500D02*
X110085713Y-66280357D01*
X110085713Y-66280357D02*
X110014285Y-65994642D01*
X110014285Y-65994642D02*
X109942856Y-65851785D01*
X109942856Y-65851785D02*
X109871428Y-65780357D01*
X109871428Y-65780357D02*
X109728570Y-65708928D01*
X108657142Y-65851785D02*
X108585714Y-65780357D01*
X108585714Y-65780357D02*
X108442857Y-65708928D01*
X108442857Y-65708928D02*
X108085714Y-65708928D01*
X108085714Y-65708928D02*
X107942857Y-65780357D01*
X107942857Y-65780357D02*
X107871428Y-65851785D01*
X107871428Y-65851785D02*
X107799999Y-65994642D01*
X107799999Y-65994642D02*
X107799999Y-66137500D01*
X107799999Y-66137500D02*
X107871428Y-66351785D01*
X107871428Y-66351785D02*
X108728571Y-67208928D01*
X108728571Y-67208928D02*
X107799999Y-67208928D01*
X107300000Y-65708928D02*
X106371428Y-65708928D01*
X106371428Y-65708928D02*
X106871428Y-66280357D01*
X106871428Y-66280357D02*
X106657143Y-66280357D01*
X106657143Y-66280357D02*
X106514286Y-66351785D01*
X106514286Y-66351785D02*
X106442857Y-66423214D01*
X106442857Y-66423214D02*
X106371428Y-66566071D01*
X106371428Y-66566071D02*
X106371428Y-66923214D01*
X106371428Y-66923214D02*
X106442857Y-67066071D01*
X106442857Y-67066071D02*
X106514286Y-67137500D01*
X106514286Y-67137500D02*
X106657143Y-67208928D01*
X106657143Y-67208928D02*
X107085714Y-67208928D01*
X107085714Y-67208928D02*
X107228571Y-67137500D01*
X107228571Y-67137500D02*
X107300000Y-67066071D01*
X103728572Y-67066071D02*
X103800000Y-67137500D01*
X103800000Y-67137500D02*
X104014286Y-67208928D01*
X104014286Y-67208928D02*
X104157143Y-67208928D01*
X104157143Y-67208928D02*
X104371429Y-67137500D01*
X104371429Y-67137500D02*
X104514286Y-66994642D01*
X104514286Y-66994642D02*
X104585715Y-66851785D01*
X104585715Y-66851785D02*
X104657143Y-66566071D01*
X104657143Y-66566071D02*
X104657143Y-66351785D01*
X104657143Y-66351785D02*
X104585715Y-66066071D01*
X104585715Y-66066071D02*
X104514286Y-65923214D01*
X104514286Y-65923214D02*
X104371429Y-65780357D01*
X104371429Y-65780357D02*
X104157143Y-65708928D01*
X104157143Y-65708928D02*
X104014286Y-65708928D01*
X104014286Y-65708928D02*
X103800000Y-65780357D01*
X103800000Y-65780357D02*
X103728572Y-65851785D01*
X102514286Y-67137500D02*
X102657143Y-67208928D01*
X102657143Y-67208928D02*
X102942858Y-67208928D01*
X102942858Y-67208928D02*
X103085715Y-67137500D01*
X103085715Y-67137500D02*
X103157143Y-66994642D01*
X103157143Y-66994642D02*
X103157143Y-66423214D01*
X103157143Y-66423214D02*
X103085715Y-66280357D01*
X103085715Y-66280357D02*
X102942858Y-66208928D01*
X102942858Y-66208928D02*
X102657143Y-66208928D01*
X102657143Y-66208928D02*
X102514286Y-66280357D01*
X102514286Y-66280357D02*
X102442858Y-66423214D01*
X102442858Y-66423214D02*
X102442858Y-66566071D01*
X102442858Y-66566071D02*
X103157143Y-66708928D01*
X101800001Y-67208928D02*
X101800001Y-66208928D01*
X101800001Y-66494642D02*
X101728572Y-66351785D01*
X101728572Y-66351785D02*
X101657144Y-66280357D01*
X101657144Y-66280357D02*
X101514286Y-66208928D01*
X101514286Y-66208928D02*
X101371429Y-66208928D01*
X100871430Y-66208928D02*
X100871430Y-67208928D01*
X100871430Y-66351785D02*
X100800001Y-66280357D01*
X100800001Y-66280357D02*
X100657144Y-66208928D01*
X100657144Y-66208928D02*
X100442858Y-66208928D01*
X100442858Y-66208928D02*
X100300001Y-66280357D01*
X100300001Y-66280357D02*
X100228573Y-66423214D01*
X100228573Y-66423214D02*
X100228573Y-67208928D01*
X99228572Y-65708928D02*
X98942858Y-65708928D01*
X98942858Y-65708928D02*
X98800001Y-65780357D01*
X98800001Y-65780357D02*
X98657144Y-65923214D01*
X98657144Y-65923214D02*
X98585715Y-66208928D01*
X98585715Y-66208928D02*
X98585715Y-66708928D01*
X98585715Y-66708928D02*
X98657144Y-66994642D01*
X98657144Y-66994642D02*
X98800001Y-67137500D01*
X98800001Y-67137500D02*
X98942858Y-67208928D01*
X98942858Y-67208928D02*
X99228572Y-67208928D01*
X99228572Y-67208928D02*
X99371430Y-67137500D01*
X99371430Y-67137500D02*
X99514287Y-66994642D01*
X99514287Y-66994642D02*
X99585715Y-66708928D01*
X99585715Y-66708928D02*
X99585715Y-66208928D01*
X99585715Y-66208928D02*
X99514287Y-65923214D01*
X99514287Y-65923214D02*
X99371430Y-65780357D01*
X99371430Y-65780357D02*
X99228572Y-65708928D01*
X97942858Y-67208928D02*
X97942858Y-65708928D01*
X97942858Y-66423214D02*
X97085715Y-66423214D01*
X97085715Y-67208928D02*
X97085715Y-65708928D01*
X95657143Y-67208928D02*
X96371429Y-67208928D01*
X96371429Y-67208928D02*
X96371429Y-65708928D01*
X93228571Y-67208928D02*
X94085714Y-67208928D01*
X93657143Y-67208928D02*
X93657143Y-65708928D01*
X93657143Y-65708928D02*
X93800000Y-65923214D01*
X93800000Y-65923214D02*
X93942857Y-66066071D01*
X93942857Y-66066071D02*
X94085714Y-66137500D01*
X92585715Y-67066071D02*
X92514286Y-67137500D01*
X92514286Y-67137500D02*
X92585715Y-67208928D01*
X92585715Y-67208928D02*
X92657143Y-67137500D01*
X92657143Y-67137500D02*
X92585715Y-67066071D01*
X92585715Y-67066071D02*
X92585715Y-67208928D01*
X91942857Y-65851785D02*
X91871429Y-65780357D01*
X91871429Y-65780357D02*
X91728572Y-65708928D01*
X91728572Y-65708928D02*
X91371429Y-65708928D01*
X91371429Y-65708928D02*
X91228572Y-65780357D01*
X91228572Y-65780357D02*
X91157143Y-65851785D01*
X91157143Y-65851785D02*
X91085714Y-65994642D01*
X91085714Y-65994642D02*
X91085714Y-66137500D01*
X91085714Y-66137500D02*
X91157143Y-66351785D01*
X91157143Y-66351785D02*
X92014286Y-67208928D01*
X92014286Y-67208928D02*
X91085714Y-67208928D01*
X110621429Y-68638928D02*
X110335715Y-69638928D01*
X110335715Y-69638928D02*
X110050000Y-68924642D01*
X110050000Y-68924642D02*
X109764286Y-69638928D01*
X109764286Y-69638928D02*
X109478572Y-68638928D01*
X109050000Y-68638928D02*
X108764286Y-69638928D01*
X108764286Y-69638928D02*
X108478571Y-68924642D01*
X108478571Y-68924642D02*
X108192857Y-69638928D01*
X108192857Y-69638928D02*
X107907143Y-68638928D01*
X107478571Y-68638928D02*
X107192857Y-69638928D01*
X107192857Y-69638928D02*
X106907142Y-68924642D01*
X106907142Y-68924642D02*
X106621428Y-69638928D01*
X106621428Y-69638928D02*
X106335714Y-68638928D01*
X105764285Y-69496071D02*
X105692856Y-69567500D01*
X105692856Y-69567500D02*
X105764285Y-69638928D01*
X105764285Y-69638928D02*
X105835713Y-69567500D01*
X105835713Y-69567500D02*
X105764285Y-69496071D01*
X105764285Y-69496071D02*
X105764285Y-69638928D01*
X104835713Y-69638928D02*
X104978570Y-69567500D01*
X104978570Y-69567500D02*
X105049999Y-69424642D01*
X105049999Y-69424642D02*
X105049999Y-68138928D01*
X104264285Y-69638928D02*
X104264285Y-68638928D01*
X104264285Y-68138928D02*
X104335713Y-68210357D01*
X104335713Y-68210357D02*
X104264285Y-68281785D01*
X104264285Y-68281785D02*
X104192856Y-68210357D01*
X104192856Y-68210357D02*
X104264285Y-68138928D01*
X104264285Y-68138928D02*
X104264285Y-68281785D01*
X103549999Y-69638928D02*
X103549999Y-68638928D01*
X103549999Y-68781785D02*
X103478570Y-68710357D01*
X103478570Y-68710357D02*
X103335713Y-68638928D01*
X103335713Y-68638928D02*
X103121427Y-68638928D01*
X103121427Y-68638928D02*
X102978570Y-68710357D01*
X102978570Y-68710357D02*
X102907142Y-68853214D01*
X102907142Y-68853214D02*
X102907142Y-69638928D01*
X102907142Y-68853214D02*
X102835713Y-68710357D01*
X102835713Y-68710357D02*
X102692856Y-68638928D01*
X102692856Y-68638928D02*
X102478570Y-68638928D01*
X102478570Y-68638928D02*
X102335713Y-68710357D01*
X102335713Y-68710357D02*
X102264284Y-68853214D01*
X102264284Y-68853214D02*
X102264284Y-69638928D01*
X101549999Y-68638928D02*
X101549999Y-70138928D01*
X101549999Y-68710357D02*
X101407142Y-68638928D01*
X101407142Y-68638928D02*
X101121427Y-68638928D01*
X101121427Y-68638928D02*
X100978570Y-68710357D01*
X100978570Y-68710357D02*
X100907142Y-68781785D01*
X100907142Y-68781785D02*
X100835713Y-68924642D01*
X100835713Y-68924642D02*
X100835713Y-69353214D01*
X100835713Y-69353214D02*
X100907142Y-69496071D01*
X100907142Y-69496071D02*
X100978570Y-69567500D01*
X100978570Y-69567500D02*
X101121427Y-69638928D01*
X101121427Y-69638928D02*
X101407142Y-69638928D01*
X101407142Y-69638928D02*
X101549999Y-69567500D01*
X100192856Y-69638928D02*
X100192856Y-68138928D01*
X100049999Y-69067500D02*
X99621427Y-69638928D01*
X99621427Y-68638928D02*
X100192856Y-69210357D01*
X98978570Y-69638928D02*
X98978570Y-68638928D01*
X98978570Y-68138928D02*
X99049998Y-68210357D01*
X99049998Y-68210357D02*
X98978570Y-68281785D01*
X98978570Y-68281785D02*
X98907141Y-68210357D01*
X98907141Y-68210357D02*
X98978570Y-68138928D01*
X98978570Y-68138928D02*
X98978570Y-68281785D01*
X98264284Y-68638928D02*
X98264284Y-69638928D01*
X98264284Y-68781785D02*
X98192855Y-68710357D01*
X98192855Y-68710357D02*
X98049998Y-68638928D01*
X98049998Y-68638928D02*
X97835712Y-68638928D01*
X97835712Y-68638928D02*
X97692855Y-68710357D01*
X97692855Y-68710357D02*
X97621427Y-68853214D01*
X97621427Y-68853214D02*
X97621427Y-69638928D01*
X96907141Y-69496071D02*
X96835712Y-69567500D01*
X96835712Y-69567500D02*
X96907141Y-69638928D01*
X96907141Y-69638928D02*
X96978569Y-69567500D01*
X96978569Y-69567500D02*
X96907141Y-69496071D01*
X96907141Y-69496071D02*
X96907141Y-69638928D01*
X96407140Y-68638928D02*
X95835712Y-68638928D01*
X96192855Y-69638928D02*
X96192855Y-68353214D01*
X96192855Y-68353214D02*
X96121426Y-68210357D01*
X96121426Y-68210357D02*
X95978569Y-68138928D01*
X95978569Y-68138928D02*
X95835712Y-68138928D01*
X95335712Y-69638928D02*
X95335712Y-68638928D01*
X95335712Y-68924642D02*
X95264283Y-68781785D01*
X95264283Y-68781785D02*
X95192855Y-68710357D01*
X95192855Y-68710357D02*
X95049997Y-68638928D01*
X95049997Y-68638928D02*
X94907140Y-68638928D01*
D11*
X103370000Y-48670000D02*
X103370000Y-51330000D01*
X98230000Y-48670000D02*
X103370000Y-48670000D01*
X98230000Y-48670000D02*
X98230000Y-51330000D01*
X96960000Y-48670000D02*
X95630000Y-48670000D01*
X95630000Y-48670000D02*
X95630000Y-50000000D01*
X98230000Y-51330000D02*
X103370000Y-51330000D01*
M02*
