G04 #@! TF.GenerationSoftware,KiCad,Pcbnew,7.0.1*
G04 #@! TF.CreationDate,2023-07-28T03:37:32-04:00*
G04 #@! TF.ProjectId,cdm324_v2,63646d33-3234-45f7-9632-2e6b69636164,rev?*
G04 #@! TF.SameCoordinates,Original*
G04 #@! TF.FileFunction,Copper,L1,Top*
G04 #@! TF.FilePolarity,Positive*
%FSLAX46Y46*%
G04 Gerber Fmt 4.6, Leading zero omitted, Abs format (unit mm)*
G04 Created by KiCad (PCBNEW 7.0.1) date 2023-07-28 03:37:32*
%MOMM*%
%LPD*%
G01*
G04 APERTURE LIST*
G04 Aperture macros list*
%AMRoundRect*
0 Rectangle with rounded corners*
0 $1 Rounding radius*
0 $2 $3 $4 $5 $6 $7 $8 $9 X,Y pos of 4 corners*
0 Add a 4 corners polygon primitive as box body*
4,1,4,$2,$3,$4,$5,$6,$7,$8,$9,$2,$3,0*
0 Add four circle primitives for the rounded corners*
1,1,$1+$1,$2,$3*
1,1,$1+$1,$4,$5*
1,1,$1+$1,$6,$7*
1,1,$1+$1,$8,$9*
0 Add four rect primitives between the rounded corners*
20,1,$1+$1,$2,$3,$4,$5,0*
20,1,$1+$1,$4,$5,$6,$7,0*
20,1,$1+$1,$6,$7,$8,$9,0*
20,1,$1+$1,$8,$9,$2,$3,0*%
G04 Aperture macros list end*
G04 #@! TA.AperFunction,SMDPad,CuDef*
%ADD10RoundRect,0.140000X0.140000X0.170000X-0.140000X0.170000X-0.140000X-0.170000X0.140000X-0.170000X0*%
G04 #@! TD*
G04 #@! TA.AperFunction,SMDPad,CuDef*
%ADD11RoundRect,0.250000X0.250000X0.475000X-0.250000X0.475000X-0.250000X-0.475000X0.250000X-0.475000X0*%
G04 #@! TD*
G04 #@! TA.AperFunction,SMDPad,CuDef*
%ADD12RoundRect,0.140000X-0.140000X-0.170000X0.140000X-0.170000X0.140000X0.170000X-0.140000X0.170000X0*%
G04 #@! TD*
G04 #@! TA.AperFunction,SMDPad,CuDef*
%ADD13RoundRect,0.140000X0.170000X-0.140000X0.170000X0.140000X-0.170000X0.140000X-0.170000X-0.140000X0*%
G04 #@! TD*
G04 #@! TA.AperFunction,SMDPad,CuDef*
%ADD14RoundRect,0.200000X0.200000X0.275000X-0.200000X0.275000X-0.200000X-0.275000X0.200000X-0.275000X0*%
G04 #@! TD*
G04 #@! TA.AperFunction,SMDPad,CuDef*
%ADD15RoundRect,0.062500X0.062500X-0.375000X0.062500X0.375000X-0.062500X0.375000X-0.062500X-0.375000X0*%
G04 #@! TD*
G04 #@! TA.AperFunction,SMDPad,CuDef*
%ADD16RoundRect,0.062500X0.375000X-0.062500X0.375000X0.062500X-0.375000X0.062500X-0.375000X-0.062500X0*%
G04 #@! TD*
G04 #@! TA.AperFunction,SMDPad,CuDef*
%ADD17R,3.450000X3.450000*%
G04 #@! TD*
G04 #@! TA.AperFunction,SMDPad,CuDef*
%ADD18RoundRect,0.250000X-0.475000X0.250000X-0.475000X-0.250000X0.475000X-0.250000X0.475000X0.250000X0*%
G04 #@! TD*
G04 #@! TA.AperFunction,SMDPad,CuDef*
%ADD19RoundRect,0.225000X0.250000X-0.225000X0.250000X0.225000X-0.250000X0.225000X-0.250000X-0.225000X0*%
G04 #@! TD*
G04 #@! TA.AperFunction,SMDPad,CuDef*
%ADD20RoundRect,0.200000X0.275000X-0.200000X0.275000X0.200000X-0.275000X0.200000X-0.275000X-0.200000X0*%
G04 #@! TD*
G04 #@! TA.AperFunction,SMDPad,CuDef*
%ADD21RoundRect,0.140000X-0.170000X0.140000X-0.170000X-0.140000X0.170000X-0.140000X0.170000X0.140000X0*%
G04 #@! TD*
G04 #@! TA.AperFunction,SMDPad,CuDef*
%ADD22RoundRect,0.250000X0.475000X-0.250000X0.475000X0.250000X-0.475000X0.250000X-0.475000X-0.250000X0*%
G04 #@! TD*
G04 #@! TA.AperFunction,SMDPad,CuDef*
%ADD23RoundRect,0.150000X0.512500X0.150000X-0.512500X0.150000X-0.512500X-0.150000X0.512500X-0.150000X0*%
G04 #@! TD*
G04 #@! TA.AperFunction,SMDPad,CuDef*
%ADD24RoundRect,0.062500X0.312500X0.062500X-0.312500X0.062500X-0.312500X-0.062500X0.312500X-0.062500X0*%
G04 #@! TD*
G04 #@! TA.AperFunction,SMDPad,CuDef*
%ADD25RoundRect,0.062500X0.062500X0.312500X-0.062500X0.312500X-0.062500X-0.312500X0.062500X-0.312500X0*%
G04 #@! TD*
G04 #@! TA.AperFunction,SMDPad,CuDef*
%ADD26R,3.650000X3.650000*%
G04 #@! TD*
G04 #@! TA.AperFunction,ComponentPad*
%ADD27R,1.700000X1.700000*%
G04 #@! TD*
G04 #@! TA.AperFunction,ComponentPad*
%ADD28O,1.700000X1.700000*%
G04 #@! TD*
G04 #@! TA.AperFunction,SMDPad,CuDef*
%ADD29RoundRect,0.250000X-0.250000X-0.475000X0.250000X-0.475000X0.250000X0.475000X-0.250000X0.475000X0*%
G04 #@! TD*
G04 #@! TA.AperFunction,SMDPad,CuDef*
%ADD30RoundRect,0.218750X-0.218750X-0.381250X0.218750X-0.381250X0.218750X0.381250X-0.218750X0.381250X0*%
G04 #@! TD*
G04 #@! TA.AperFunction,SMDPad,CuDef*
%ADD31RoundRect,0.135000X-0.185000X0.135000X-0.185000X-0.135000X0.185000X-0.135000X0.185000X0.135000X0*%
G04 #@! TD*
G04 #@! TA.AperFunction,ComponentPad*
%ADD32C,1.200000*%
G04 #@! TD*
G04 #@! TA.AperFunction,SMDPad,CuDef*
%ADD33RoundRect,0.200000X-0.275000X0.200000X-0.275000X-0.200000X0.275000X-0.200000X0.275000X0.200000X0*%
G04 #@! TD*
G04 #@! TA.AperFunction,SMDPad,CuDef*
%ADD34R,0.700000X0.250000*%
G04 #@! TD*
G04 #@! TA.AperFunction,SMDPad,CuDef*
%ADD35R,1.780000X2.350000*%
G04 #@! TD*
G04 #@! TA.AperFunction,SMDPad,CuDef*
%ADD36RoundRect,0.150000X0.150000X-0.512500X0.150000X0.512500X-0.150000X0.512500X-0.150000X-0.512500X0*%
G04 #@! TD*
G04 #@! TA.AperFunction,ViaPad*
%ADD37C,0.700000*%
G04 #@! TD*
G04 #@! TA.AperFunction,Conductor*
%ADD38C,0.200000*%
G04 #@! TD*
G04 #@! TA.AperFunction,Conductor*
%ADD39C,0.300000*%
G04 #@! TD*
G04 #@! TA.AperFunction,Conductor*
%ADD40C,0.500000*%
G04 #@! TD*
G04 #@! TA.AperFunction,Conductor*
%ADD41C,0.250000*%
G04 #@! TD*
G04 APERTURE END LIST*
D10*
X100610000Y-51850000D03*
X99650000Y-51850000D03*
D11*
X109500000Y-50850000D03*
X107600000Y-50850000D03*
X105950000Y-52250000D03*
X104050000Y-52250000D03*
D12*
X100080000Y-80300000D03*
X101040000Y-80300000D03*
D13*
X95797500Y-79117500D03*
X95797500Y-78157500D03*
D14*
X86372500Y-73437500D03*
X84722500Y-73437500D03*
D15*
X97710000Y-78975000D03*
X98210000Y-78975000D03*
X98710000Y-78975000D03*
X99210000Y-78975000D03*
X99710000Y-78975000D03*
X100210000Y-78975000D03*
X100710000Y-78975000D03*
X101210000Y-78975000D03*
D16*
X101897500Y-78287500D03*
X101897500Y-77787500D03*
X101897500Y-77287500D03*
X101897500Y-76787500D03*
X101897500Y-76287500D03*
X101897500Y-75787500D03*
X101897500Y-75287500D03*
X101897500Y-74787500D03*
D15*
X101210000Y-74100000D03*
X100710000Y-74100000D03*
X100210000Y-74100000D03*
X99710000Y-74100000D03*
X99210000Y-74100000D03*
X98710000Y-74100000D03*
X98210000Y-74100000D03*
X97710000Y-74100000D03*
D16*
X97022500Y-74787500D03*
X97022500Y-75287500D03*
X97022500Y-75787500D03*
X97022500Y-76287500D03*
X97022500Y-76787500D03*
X97022500Y-77287500D03*
X97022500Y-77787500D03*
X97022500Y-78287500D03*
D17*
X99460000Y-76537500D03*
D18*
X110700000Y-54750000D03*
X110700000Y-56650000D03*
D19*
X101850000Y-56687500D03*
X101850000Y-55137500D03*
D20*
X100300000Y-56737500D03*
X100300000Y-55087500D03*
X101850000Y-53675000D03*
X101850000Y-52025000D03*
D21*
X103160000Y-73720000D03*
X103160000Y-74680000D03*
D22*
X107793750Y-54550000D03*
X107793750Y-52650000D03*
D23*
X113737500Y-52800000D03*
X113737500Y-51850000D03*
X113737500Y-50900000D03*
X111462500Y-50900000D03*
X111462500Y-52800000D03*
D10*
X86680000Y-49950000D03*
X85720000Y-49950000D03*
D24*
X89725000Y-55375000D03*
X89725000Y-54875000D03*
X89725000Y-54375000D03*
X89725000Y-53875000D03*
X89725000Y-53375000D03*
X89725000Y-52875000D03*
X89725000Y-52375000D03*
X89725000Y-51875000D03*
D25*
X89000000Y-51150000D03*
X88500000Y-51150000D03*
X88000000Y-51150000D03*
X87500000Y-51150000D03*
X87000000Y-51150000D03*
X86500000Y-51150000D03*
X86000000Y-51150000D03*
X85500000Y-51150000D03*
D24*
X84775000Y-51875000D03*
X84775000Y-52375000D03*
X84775000Y-52875000D03*
X84775000Y-53375000D03*
X84775000Y-53875000D03*
X84775000Y-54375000D03*
X84775000Y-54875000D03*
X84775000Y-55375000D03*
D25*
X85500000Y-56100000D03*
X86000000Y-56100000D03*
X86500000Y-56100000D03*
X87000000Y-56100000D03*
X87500000Y-56100000D03*
X88000000Y-56100000D03*
X88500000Y-56100000D03*
X89000000Y-56100000D03*
D26*
X87250000Y-53625000D03*
D27*
X105557500Y-75987500D03*
D28*
X105557500Y-78527500D03*
X108097500Y-75987500D03*
X108097500Y-78527500D03*
X110637500Y-75987500D03*
X110637500Y-78527500D03*
X113177500Y-75987500D03*
X113177500Y-78527500D03*
D13*
X94100000Y-51750000D03*
X94100000Y-50790000D03*
D29*
X106950000Y-56400000D03*
X108850000Y-56400000D03*
D30*
X112487500Y-54500000D03*
X114612500Y-54500000D03*
D31*
X103150000Y-75640000D03*
X103150000Y-76660000D03*
D21*
X91550000Y-55020000D03*
X91550000Y-55980000D03*
D14*
X89725000Y-49650000D03*
X88075000Y-49650000D03*
D31*
X103147500Y-78377500D03*
X103147500Y-79397500D03*
D32*
X89000000Y-72500000D03*
X91000000Y-72500000D03*
X93000000Y-72500000D03*
X95000000Y-72500000D03*
X97000000Y-72500000D03*
X99000000Y-72500000D03*
X101000000Y-72500000D03*
X103000000Y-72500000D03*
X105000000Y-72500000D03*
X107000000Y-72500000D03*
X109000000Y-72500000D03*
X111000000Y-72500000D03*
D21*
X96900000Y-54440000D03*
X96900000Y-55400000D03*
D19*
X92850000Y-51475000D03*
X92850000Y-49925000D03*
D33*
X97150000Y-51600000D03*
X97150000Y-53250000D03*
D34*
X92825000Y-52870000D03*
X92825000Y-53270000D03*
X92825000Y-53670000D03*
X92825000Y-54070000D03*
X92825000Y-54470000D03*
X92825000Y-54870000D03*
X92825000Y-55270000D03*
X95775000Y-55270000D03*
X95775000Y-54870000D03*
X95775000Y-54470000D03*
X95775000Y-54070000D03*
X95775000Y-53670000D03*
X95775000Y-53270000D03*
X95775000Y-52870000D03*
D35*
X94300000Y-54070000D03*
D36*
X103450000Y-56487500D03*
X104400000Y-56487500D03*
X105350000Y-56487500D03*
X105350000Y-54212500D03*
X103450000Y-54212500D03*
D12*
X96520000Y-56420000D03*
X97480000Y-56420000D03*
D20*
X95400000Y-51525000D03*
X95400000Y-49875000D03*
D11*
X114550000Y-56400000D03*
X112650000Y-56400000D03*
D27*
X85857500Y-75987500D03*
D28*
X85857500Y-78527500D03*
X88397500Y-75987500D03*
X88397500Y-78527500D03*
X90937500Y-75987500D03*
X90937500Y-78527500D03*
X93477500Y-75987500D03*
X93477500Y-78527500D03*
D33*
X98750000Y-55075000D03*
X98750000Y-56725000D03*
D20*
X91150000Y-51225000D03*
X91150000Y-49575000D03*
D27*
X96960000Y-50000000D03*
D28*
X99500000Y-50000000D03*
X102040000Y-50000000D03*
D37*
X100760000Y-77800000D03*
X98178750Y-77818750D03*
X88700000Y-55087500D03*
X97725000Y-55370000D03*
X94800000Y-54870000D03*
X103150000Y-52250000D03*
X108850000Y-57600000D03*
X94100000Y-49950000D03*
X87247500Y-73437500D03*
X98210000Y-75250000D03*
X85800000Y-52200000D03*
X104800000Y-55350000D03*
X98824466Y-54125500D03*
X109000000Y-52650000D03*
X114712500Y-51850000D03*
X88700000Y-52150000D03*
X106650000Y-50750000D03*
X85000000Y-49950000D03*
X94800000Y-53270000D03*
X94300000Y-54070000D03*
X87250000Y-53625000D03*
X93800000Y-53270000D03*
X91550000Y-56720000D03*
X93800000Y-54870000D03*
X99460000Y-76537500D03*
X85787500Y-55087500D03*
X110700000Y-57600000D03*
X100728750Y-75268750D03*
X112650000Y-57600000D03*
X92850000Y-56150000D03*
X92050000Y-52350000D03*
X87200000Y-49300000D03*
X91900000Y-54300000D03*
X91950000Y-50550000D03*
X96997500Y-78975000D03*
X110000000Y-73650000D03*
X99360000Y-80250000D03*
X85000000Y-51150000D03*
X87350000Y-67450000D03*
X85050000Y-65200000D03*
X90150000Y-67450000D03*
X90150000Y-66550000D03*
X87350000Y-66550000D03*
X90150000Y-65650000D03*
X87350000Y-65650000D03*
X87350000Y-64750000D03*
X90150000Y-64750000D03*
X90150000Y-63850000D03*
X87350000Y-63850000D03*
X87350000Y-62950000D03*
X90150000Y-62950000D03*
X90150000Y-62050000D03*
X87350000Y-62050000D03*
X90150000Y-61150000D03*
X87350000Y-61150000D03*
X90200000Y-51300000D03*
X92550000Y-77250000D03*
X94600000Y-77500000D03*
X89600000Y-50600000D03*
D38*
X98500000Y-53801034D02*
X98824466Y-54125500D01*
X98500000Y-50900000D02*
X98500000Y-53801034D01*
X98500000Y-50900000D02*
X97600000Y-50000000D01*
D39*
X101675000Y-51850000D02*
X101850000Y-52025000D01*
X100610000Y-51850000D02*
X101675000Y-51850000D01*
X99500000Y-51700000D02*
X99650000Y-51850000D01*
X99500000Y-50000000D02*
X99500000Y-51700000D01*
D40*
X112487500Y-54500000D02*
X110950000Y-54500000D01*
X112625000Y-51248528D02*
X112625000Y-51565000D01*
X110950000Y-54500000D02*
X110700000Y-54750000D01*
X112625000Y-51565000D02*
X112625000Y-52530000D01*
X112650000Y-51223528D02*
X112625000Y-51248528D01*
X109550000Y-49650000D02*
X109550000Y-50800000D01*
X112895000Y-52800000D02*
X113700000Y-52800000D01*
X109550000Y-50800000D02*
X109500000Y-50850000D01*
X112625000Y-52530000D02*
X112895000Y-52800000D01*
X113700000Y-50900000D02*
X112950000Y-50900000D01*
X112625000Y-50275000D02*
X112000000Y-49650000D01*
X112650000Y-51200000D02*
X112650000Y-51223528D01*
X112487500Y-54500000D02*
X112487500Y-54050000D01*
X112487500Y-54050000D02*
X113737500Y-52800000D01*
X112000000Y-49650000D02*
X109550000Y-49650000D01*
X112950000Y-50900000D02*
X112650000Y-51200000D01*
X103950000Y-50000000D02*
X102040000Y-50000000D01*
X104300000Y-49650000D02*
X103950000Y-50000000D01*
X109550000Y-49650000D02*
X104300000Y-49650000D01*
X112625000Y-51565000D02*
X112625000Y-50275000D01*
D38*
X89725000Y-52875000D02*
X88000000Y-52875000D01*
X98824466Y-54125500D02*
X98874500Y-54125500D01*
X101897500Y-74787500D02*
X101472652Y-74787500D01*
D40*
X107600000Y-50850000D02*
X107700000Y-50750000D01*
X85720000Y-49950000D02*
X85000000Y-49950000D01*
X86335000Y-73437500D02*
X87247500Y-73437500D01*
D38*
X101040000Y-80280000D02*
X101040000Y-80300000D01*
D40*
X96835000Y-49875000D02*
X96960000Y-50000000D01*
X108850000Y-56400000D02*
X108850000Y-57600000D01*
X113700000Y-51850000D02*
X114712500Y-51850000D01*
X92850000Y-49925000D02*
X94075000Y-49925000D01*
D41*
X100210000Y-78975000D02*
X100210000Y-79500000D01*
D38*
X99460000Y-76500000D02*
X98210000Y-75250000D01*
X99460000Y-76537500D02*
X100728750Y-75268750D01*
X98874500Y-54125500D02*
X98950000Y-54050000D01*
D40*
X96930000Y-55370000D02*
X97725000Y-55370000D01*
D38*
X87250000Y-53625000D02*
X87225000Y-53625000D01*
X88000000Y-52875000D02*
X87250000Y-53625000D01*
X97422500Y-78237500D02*
X97760000Y-78237500D01*
X101397652Y-74862500D02*
X101135000Y-74862500D01*
X99460000Y-76537500D02*
X99460000Y-76500000D01*
X95775000Y-54470000D02*
X94700000Y-54470000D01*
X94700000Y-54470000D02*
X94300000Y-54070000D01*
X94300000Y-54070000D02*
X94300000Y-54370000D01*
X94300000Y-54370000D02*
X94800000Y-54870000D01*
X97372500Y-78287500D02*
X97422500Y-78237500D01*
X87500000Y-53875000D02*
X87250000Y-53625000D01*
X89725000Y-53875000D02*
X87500000Y-53875000D01*
X95775000Y-54070000D02*
X94300000Y-54070000D01*
D40*
X94100000Y-50790000D02*
X94100000Y-49950000D01*
D38*
X99460000Y-76537500D02*
X98178750Y-77818750D01*
D40*
X110700000Y-56650000D02*
X110700000Y-57600000D01*
X112650000Y-56400000D02*
X112650000Y-57600000D01*
D38*
X97022500Y-78287500D02*
X97372500Y-78287500D01*
X85800000Y-52200000D02*
X85900000Y-52200000D01*
X101472652Y-74787500D02*
X101397652Y-74862500D01*
D40*
X91550000Y-55980000D02*
X91550000Y-56720000D01*
D38*
X88700000Y-52175000D02*
X87250000Y-53625000D01*
D41*
X100210000Y-79500000D02*
X101015000Y-80305000D01*
D40*
X104400000Y-56487500D02*
X104400000Y-55750000D01*
D38*
X88000000Y-51150000D02*
X88000000Y-52875000D01*
X87225000Y-53625000D02*
X85800000Y-52200000D01*
D40*
X104400000Y-55750000D02*
X104800000Y-55350000D01*
D38*
X92825000Y-54070000D02*
X94300000Y-54070000D01*
D41*
X101015000Y-80305000D02*
X101015000Y-80330000D01*
D38*
X94300000Y-53770000D02*
X94800000Y-53270000D01*
X99460000Y-76537500D02*
X99497500Y-76537500D01*
X93400000Y-55270000D02*
X93800000Y-54870000D01*
X85900000Y-52200000D02*
X88900000Y-55200000D01*
X88700000Y-52150000D02*
X88700000Y-52175000D01*
D40*
X96900000Y-55400000D02*
X96930000Y-55370000D01*
D38*
X94300000Y-54070000D02*
X94300000Y-53770000D01*
D40*
X95400000Y-49875000D02*
X96835000Y-49875000D01*
X94075000Y-49925000D02*
X94100000Y-49950000D01*
D38*
X94300000Y-54370000D02*
X93800000Y-54870000D01*
X87250000Y-53625000D02*
X85787500Y-55087500D01*
X103052500Y-74787500D02*
X103160000Y-74680000D01*
X100210000Y-77287500D02*
X99460000Y-76537500D01*
X97760000Y-78237500D02*
X98178750Y-77818750D01*
D41*
X101897500Y-74787500D02*
X103052500Y-74787500D01*
D38*
X95877500Y-78287500D02*
X95747500Y-78157500D01*
D41*
X97022500Y-78287500D02*
X95877500Y-78287500D01*
D38*
X101135000Y-74862500D02*
X100728750Y-75268750D01*
D41*
X101015000Y-80280000D02*
X101040000Y-80280000D01*
D40*
X103950000Y-52250000D02*
X103150000Y-52250000D01*
X107793750Y-52650000D02*
X109000000Y-52650000D01*
D38*
X99497500Y-76537500D02*
X100760000Y-77800000D01*
X92825000Y-55270000D02*
X93400000Y-55270000D01*
X97600000Y-50000000D02*
X96960000Y-50000000D01*
X95775000Y-54870000D02*
X95100000Y-54870000D01*
D40*
X107700000Y-50750000D02*
X106650000Y-50750000D01*
D38*
X85787500Y-55087500D02*
X85600000Y-55275000D01*
X95100000Y-54870000D02*
X94300000Y-54070000D01*
X94300000Y-53770000D02*
X93800000Y-53270000D01*
X100210000Y-78975000D02*
X100210000Y-77287500D01*
D40*
X114612500Y-54500000D02*
X114612500Y-56337500D01*
X114850000Y-74850000D02*
X114850000Y-57350000D01*
X113712500Y-75987500D02*
X114850000Y-74850000D01*
X114850000Y-57350000D02*
X114550000Y-57050000D01*
X113177500Y-75987500D02*
X113712500Y-75987500D01*
X114550000Y-57050000D02*
X114550000Y-56400000D01*
X114612500Y-56337500D02*
X114550000Y-56400000D01*
X101625000Y-52025000D02*
X101850000Y-52025000D01*
X105437500Y-56400000D02*
X105350000Y-56487500D01*
D39*
X98750000Y-56725000D02*
X99825000Y-57800000D01*
D40*
X106950000Y-56400000D02*
X105437500Y-56400000D01*
D39*
X104457107Y-57800000D02*
X105350000Y-56907107D01*
X99825000Y-57800000D02*
X104457107Y-57800000D01*
X105350000Y-56907107D02*
X105350000Y-56487500D01*
D38*
X97842893Y-56307107D02*
X97592893Y-56307107D01*
X100300000Y-56737500D02*
X100300000Y-56700000D01*
D39*
X101850000Y-56687500D02*
X103250000Y-56687500D01*
D38*
X100300000Y-56700000D02*
X99600000Y-56000000D01*
X98150000Y-56000000D02*
X97842893Y-56307107D01*
X100087500Y-56950000D02*
X100300000Y-56737500D01*
D39*
X103250000Y-56687500D02*
X103450000Y-56487500D01*
D38*
X97592893Y-56420000D02*
X97480000Y-56420000D01*
D39*
X101800000Y-56737500D02*
X101850000Y-56687500D01*
X100250000Y-56737500D02*
X101800000Y-56737500D01*
D38*
X99600000Y-56000000D02*
X98150000Y-56000000D01*
D39*
X101800000Y-55087500D02*
X101850000Y-55137500D01*
X100250000Y-55087500D02*
X101800000Y-55087500D01*
X103850000Y-55250000D02*
X104887500Y-54212500D01*
X101962500Y-55250000D02*
X103850000Y-55250000D01*
X101850000Y-53637500D02*
X101850000Y-55137500D01*
X101850000Y-55137500D02*
X101962500Y-55250000D01*
X104887500Y-54212500D02*
X105350000Y-54212500D01*
D38*
X92825000Y-52870000D02*
X92800000Y-52845000D01*
X93750000Y-52450000D02*
X94100000Y-52100000D01*
X92825000Y-52870000D02*
X93245000Y-52450000D01*
X93245000Y-52450000D02*
X93750000Y-52450000D01*
X94100000Y-52100000D02*
X94100000Y-51750000D01*
X95775000Y-55675000D02*
X96520000Y-56420000D01*
X95775000Y-55270000D02*
X95775000Y-55675000D01*
X89750000Y-54350000D02*
X91850000Y-54350000D01*
D40*
X91550000Y-55020000D02*
X91550000Y-54650000D01*
X107900000Y-57300000D02*
X106650000Y-58550000D01*
D38*
X102100000Y-74100000D02*
X102450000Y-73750000D01*
D40*
X107900000Y-54656250D02*
X107900000Y-57300000D01*
D41*
X96997500Y-78975000D02*
X97710000Y-78975000D01*
D40*
X107050000Y-54550000D02*
X106450000Y-53950000D01*
X103180000Y-73700000D02*
X103160000Y-73720000D01*
D38*
X88500000Y-51150000D02*
X88500000Y-50075000D01*
D40*
X91150000Y-49575000D02*
X91150000Y-49750000D01*
X103450000Y-54212500D02*
X103794975Y-54212500D01*
X105750000Y-52250000D02*
X106050000Y-51950000D01*
D38*
X103130000Y-73750000D02*
X103160000Y-73720000D01*
D40*
X105850000Y-58550000D02*
X95250000Y-58550000D01*
D41*
X99710000Y-78975000D02*
X99710000Y-80230000D01*
D40*
X87550000Y-49650000D02*
X87200000Y-49300000D01*
X113650000Y-62750000D02*
X113650000Y-73250000D01*
X110912500Y-75987500D02*
X110637500Y-75987500D01*
D38*
X92285000Y-53270000D02*
X92825000Y-53270000D01*
X92825000Y-54470000D02*
X92070000Y-54470000D01*
X92050000Y-53035000D02*
X92285000Y-53270000D01*
D40*
X105850000Y-58550000D02*
X109450000Y-58550000D01*
D38*
X92070000Y-54470000D02*
X91900000Y-54300000D01*
D40*
X106450000Y-53950000D02*
X106450000Y-52950000D01*
D38*
X89725000Y-54875000D02*
X91405000Y-54875000D01*
X89725000Y-53375000D02*
X90975000Y-53375000D01*
X101210000Y-74100000D02*
X102100000Y-74100000D01*
D40*
X107793750Y-54550000D02*
X107900000Y-54656250D01*
X113650000Y-73250000D02*
X110912500Y-75987500D01*
X105750000Y-52264949D02*
X105750000Y-52250000D01*
X103794975Y-54212500D02*
X104582475Y-53425000D01*
X108650000Y-54550000D02*
X107793750Y-54550000D01*
X91150000Y-49750000D02*
X91950000Y-50550000D01*
X95250000Y-58550000D02*
X92850000Y-56150000D01*
D38*
X99710000Y-80180000D02*
X99830000Y-80300000D01*
X91850000Y-54350000D02*
X91900000Y-54300000D01*
D40*
X86680000Y-49950000D02*
X86680000Y-49820000D01*
X109450000Y-58550000D02*
X113650000Y-62750000D01*
X104589949Y-53425000D02*
X105750000Y-52264949D01*
X111462500Y-52800000D02*
X110400000Y-52800000D01*
X108081250Y-54450000D02*
X107993750Y-54537500D01*
X106650000Y-58550000D02*
X105850000Y-58550000D01*
X96997500Y-78975000D02*
X95890000Y-78975000D01*
D38*
X89725000Y-54375000D02*
X89750000Y-54350000D01*
D40*
X110000000Y-73650000D02*
X109950000Y-73700000D01*
X107793750Y-54550000D02*
X107050000Y-54550000D01*
D38*
X95890000Y-78975000D02*
X95747500Y-79117500D01*
X90975000Y-53375000D02*
X91900000Y-54300000D01*
X88500000Y-50075000D02*
X88075000Y-49650000D01*
D40*
X86680000Y-49820000D02*
X87200000Y-49300000D01*
X100080000Y-80300000D02*
X99410000Y-80300000D01*
X109950000Y-73700000D02*
X103180000Y-73700000D01*
X110400000Y-52800000D02*
X108650000Y-54550000D01*
D38*
X99410000Y-80300000D02*
X99360000Y-80250000D01*
X102450000Y-73750000D02*
X103130000Y-73750000D01*
D40*
X88075000Y-49650000D02*
X87550000Y-49650000D01*
X106450000Y-52950000D02*
X105750000Y-52250000D01*
X91550000Y-54650000D02*
X91900000Y-54300000D01*
X104582475Y-53425000D02*
X104589949Y-53425000D01*
D38*
X91405000Y-54875000D02*
X91550000Y-55020000D01*
X92050000Y-52350000D02*
X92050000Y-53035000D01*
X99210000Y-78975000D02*
X99210000Y-79500000D01*
X98210000Y-80500000D02*
X87830000Y-80500000D01*
X87830000Y-80500000D02*
X85857500Y-78527500D01*
X99210000Y-79500000D02*
X98210000Y-80500000D01*
X94472500Y-78527500D02*
X93477500Y-78527500D01*
X84647500Y-76950000D02*
X84947500Y-77250000D01*
X95400000Y-77600000D02*
X94472500Y-78527500D01*
X84722500Y-73437500D02*
X84647500Y-73512500D01*
X92777500Y-78527500D02*
X93477500Y-78527500D01*
X84947500Y-77250000D02*
X91500000Y-77250000D01*
X96347500Y-77787500D02*
X96160000Y-77600000D01*
X84647500Y-73512500D02*
X84647500Y-76950000D01*
X96160000Y-77600000D02*
X95400000Y-77600000D01*
X97022500Y-77787500D02*
X96347500Y-77787500D01*
X84722500Y-73437500D02*
X84997500Y-73437500D01*
X91500000Y-77250000D02*
X92777500Y-78527500D01*
X103057500Y-78287500D02*
X103147500Y-78377500D01*
X101897500Y-78287500D02*
X103057500Y-78287500D01*
X101897500Y-77787500D02*
X104817500Y-77787500D01*
X104817500Y-77787500D02*
X105557500Y-78527500D01*
X96900000Y-54270000D02*
X96900000Y-54440000D01*
X96300000Y-53670000D02*
X96900000Y-54270000D01*
X95775000Y-53670000D02*
X96300000Y-53670000D01*
X92145000Y-53695000D02*
X91400000Y-52950000D01*
X92825000Y-53670000D02*
X92825000Y-53675000D01*
X92825000Y-53675000D02*
X92805000Y-53695000D01*
X92025000Y-51475000D02*
X92850000Y-51475000D01*
X91400000Y-52100000D02*
X92025000Y-51475000D01*
X92805000Y-53695000D02*
X92145000Y-53695000D01*
X91400000Y-52950000D02*
X91400000Y-52100000D01*
D39*
X98725000Y-55075000D02*
X98750000Y-55075000D01*
X97150000Y-53250000D02*
X97150000Y-53320000D01*
X97150000Y-53250000D02*
X97150000Y-53500000D01*
X97150000Y-53500000D02*
X98725000Y-55075000D01*
D38*
X95775000Y-53270000D02*
X97130000Y-53270000D01*
X97130000Y-53270000D02*
X97150000Y-53250000D01*
X95775000Y-51570000D02*
X95675000Y-51470000D01*
X95775000Y-52870000D02*
X95775000Y-51570000D01*
D39*
X95675000Y-51470000D02*
X97020000Y-51470000D01*
D38*
X97020000Y-51470000D02*
X97150000Y-51600000D01*
X101897500Y-75287500D02*
X102797500Y-75287500D01*
X102797500Y-75287500D02*
X103150000Y-75640000D01*
X88000000Y-56100000D02*
X88000000Y-71500000D01*
X88000000Y-71500000D02*
X89000000Y-72500000D01*
X88500000Y-56100000D02*
X88500000Y-70000000D01*
X88500000Y-70000000D02*
X91000000Y-72500000D01*
X89000000Y-68500000D02*
X93000000Y-72500000D01*
X89000000Y-66300000D02*
X89000000Y-68500000D01*
X89000000Y-56100000D02*
X89000000Y-66300000D01*
X89000000Y-66300000D02*
X89000000Y-66350000D01*
X94650000Y-72500000D02*
X95000000Y-72500000D01*
X92000000Y-69850000D02*
X94650000Y-72500000D01*
X89500000Y-68000000D02*
X91350000Y-69850000D01*
X89725000Y-55375000D02*
X89500000Y-55600000D01*
X89500000Y-55600000D02*
X89500000Y-68000000D01*
X91350000Y-69850000D02*
X92000000Y-69850000D01*
X85050000Y-65200000D02*
X87300000Y-67450000D01*
X91950000Y-67450000D02*
X97000000Y-72500000D01*
X85500000Y-51150000D02*
X85000000Y-51150000D01*
X90150000Y-67450000D02*
X91950000Y-67450000D01*
X90150000Y-66550000D02*
X93050000Y-66550000D01*
X84000000Y-55333058D02*
X84000000Y-63200000D01*
X84458058Y-54875000D02*
X84000000Y-55333058D01*
X84775000Y-54875000D02*
X84458058Y-54875000D01*
X84000000Y-63200000D02*
X87350000Y-66550000D01*
X93050000Y-66550000D02*
X99000000Y-72500000D01*
X84400000Y-55750000D02*
X84400000Y-62700000D01*
X84400000Y-62700000D02*
X87350000Y-65650000D01*
X84775000Y-55375000D02*
X84400000Y-55750000D01*
X94150000Y-65650000D02*
X101000000Y-72500000D01*
X90150000Y-65650000D02*
X94150000Y-65650000D01*
X90150000Y-64750000D02*
X95250000Y-64750000D01*
X95250000Y-64750000D02*
X103000000Y-72500000D01*
X85500000Y-56100000D02*
X85500000Y-62900000D01*
X85500000Y-62900000D02*
X87350000Y-64750000D01*
X86000000Y-58850000D02*
X85900000Y-58950000D01*
X96350000Y-63850000D02*
X105000000Y-72500000D01*
X85900000Y-58950000D02*
X85900000Y-62400000D01*
X90150000Y-63850000D02*
X96350000Y-63850000D01*
X86000000Y-56100000D02*
X86000000Y-58850000D01*
X85900000Y-62400000D02*
X87350000Y-63850000D01*
X86300000Y-59700000D02*
X86300000Y-61900000D01*
X97450000Y-62950000D02*
X107000000Y-72500000D01*
X90150000Y-62950000D02*
X97450000Y-62950000D01*
X86300000Y-61900000D02*
X87350000Y-62950000D01*
X86500000Y-59500000D02*
X86300000Y-59700000D01*
X86500000Y-56100000D02*
X86500000Y-59500000D01*
X86700000Y-60350000D02*
X86700000Y-61400000D01*
X98550000Y-62050000D02*
X109000000Y-72500000D01*
X87000000Y-56100000D02*
X87000000Y-60050000D01*
X86700000Y-61400000D02*
X87350000Y-62050000D01*
X90150000Y-62050000D02*
X98550000Y-62050000D01*
X87000000Y-60050000D02*
X86700000Y-60350000D01*
X105557500Y-75242500D02*
X105557500Y-75987500D01*
X106250000Y-74550000D02*
X105557500Y-75242500D01*
X104540000Y-76660000D02*
X105212500Y-75987500D01*
X92150000Y-57500000D02*
X94500000Y-59850000D01*
X112550000Y-73100000D02*
X111100000Y-74550000D01*
X107200000Y-59850000D02*
X112550000Y-65200000D01*
X92150000Y-55050000D02*
X92150000Y-57500000D01*
X112550000Y-65200000D02*
X112550000Y-73100000D01*
X92330000Y-54870000D02*
X92150000Y-55050000D01*
X111100000Y-74550000D02*
X106250000Y-74550000D01*
X105212500Y-75987500D02*
X105557500Y-75987500D01*
X92825000Y-54870000D02*
X92330000Y-54870000D01*
X103150000Y-76660000D02*
X104540000Y-76660000D01*
X94500000Y-59850000D02*
X107200000Y-59850000D01*
X99650000Y-61150000D02*
X111000000Y-72500000D01*
X87500000Y-56100000D02*
X87500000Y-61000000D01*
X90150000Y-61150000D02*
X99650000Y-61150000D01*
X87500000Y-61000000D02*
X87350000Y-61150000D01*
X97710000Y-74050000D02*
X97710000Y-74100000D01*
X97022500Y-74787500D02*
X95047500Y-74787500D01*
X94310000Y-74050000D02*
X87795000Y-74050000D01*
X95047500Y-74787500D02*
X94310000Y-74050000D01*
X87795000Y-74050000D02*
X85857500Y-75987500D01*
X89935000Y-74450000D02*
X88397500Y-75987500D01*
X97022500Y-75287500D02*
X94997500Y-75287500D01*
X94997500Y-75287500D02*
X94160000Y-74450000D01*
X94160000Y-74450000D02*
X89935000Y-74450000D01*
X92075000Y-74850000D02*
X90937500Y-75987500D01*
X94947500Y-75787500D02*
X94010000Y-74850000D01*
X94010000Y-74850000D02*
X92075000Y-74850000D01*
X97022500Y-75787500D02*
X94947500Y-75787500D01*
X93777500Y-76287500D02*
X93477500Y-75987500D01*
X97022500Y-76287500D02*
X93777500Y-76287500D01*
X94362500Y-76787500D02*
X93900000Y-77250000D01*
X97022500Y-76787500D02*
X94362500Y-76787500D01*
X90500000Y-51600000D02*
X90200000Y-51300000D01*
X93900000Y-77250000D02*
X92550000Y-77250000D01*
X89725000Y-51875000D02*
X90500000Y-51875000D01*
X90500000Y-51875000D02*
X90500000Y-51600000D01*
X90500000Y-51875000D02*
X91150000Y-51225000D01*
X98210000Y-79400000D02*
X97910000Y-79700000D01*
X97910000Y-79700000D02*
X92110000Y-79700000D01*
X98210000Y-78975000D02*
X98210000Y-79400000D01*
X92110000Y-79700000D02*
X90937500Y-78527500D01*
X89000000Y-50375000D02*
X89212500Y-50162500D01*
X94900000Y-77200000D02*
X94600000Y-77500000D01*
X89600000Y-50550000D02*
X89600000Y-50600000D01*
X96350000Y-77250000D02*
X96300000Y-77200000D01*
X97022500Y-77287500D02*
X96387500Y-77287500D01*
X96300000Y-77200000D02*
X96150000Y-77200000D01*
X96387500Y-77287500D02*
X96350000Y-77250000D01*
X89000000Y-51150000D02*
X89000000Y-50375000D01*
X89212500Y-50162500D02*
X89600000Y-50550000D01*
X89212500Y-50162500D02*
X89725000Y-49650000D01*
X96150000Y-77200000D02*
X94900000Y-77200000D01*
X89970000Y-80100000D02*
X88397500Y-78527500D01*
X98060000Y-80100000D02*
X89970000Y-80100000D01*
X98710000Y-79450000D02*
X98060000Y-80100000D01*
X98710000Y-78975000D02*
X98710000Y-79450000D01*
X103147500Y-79397500D02*
X103450000Y-79700000D01*
X106947500Y-79700000D02*
X108097500Y-78550000D01*
X108097500Y-78550000D02*
X108097500Y-78527500D01*
X103450000Y-79700000D02*
X106947500Y-79700000D01*
X102460000Y-80100000D02*
X109056250Y-80100000D01*
X101335000Y-78975000D02*
X102460000Y-80100000D01*
X110628750Y-78527500D02*
X110637500Y-78527500D01*
X109056250Y-80100000D02*
X110628750Y-78527500D01*
X101210000Y-78975000D02*
X101335000Y-78975000D01*
X101565026Y-79700000D02*
X102365026Y-80500000D01*
X113170000Y-78527500D02*
X113177500Y-78527500D01*
X111197500Y-80500000D02*
X113170000Y-78527500D01*
X102365026Y-80500000D02*
X111197500Y-80500000D01*
X100710000Y-78975000D02*
X100710000Y-79410000D01*
X100710000Y-79410000D02*
X101000000Y-79700000D01*
X101000000Y-79700000D02*
X101565026Y-79700000D01*
M02*
