G04 #@! TF.GenerationSoftware,KiCad,Pcbnew,7.0.1*
G04 #@! TF.CreationDate,2023-07-28T03:37:33-04:00*
G04 #@! TF.ProjectId,cdm324_v2,63646d33-3234-45f7-9632-2e6b69636164,rev?*
G04 #@! TF.SameCoordinates,Original*
G04 #@! TF.FileFunction,Soldermask,Top*
G04 #@! TF.FilePolarity,Negative*
%FSLAX46Y46*%
G04 Gerber Fmt 4.6, Leading zero omitted, Abs format (unit mm)*
G04 Created by KiCad (PCBNEW 7.0.1) date 2023-07-28 03:37:33*
%MOMM*%
%LPD*%
G01*
G04 APERTURE LIST*
G04 Aperture macros list*
%AMRoundRect*
0 Rectangle with rounded corners*
0 $1 Rounding radius*
0 $2 $3 $4 $5 $6 $7 $8 $9 X,Y pos of 4 corners*
0 Add a 4 corners polygon primitive as box body*
4,1,4,$2,$3,$4,$5,$6,$7,$8,$9,$2,$3,0*
0 Add four circle primitives for the rounded corners*
1,1,$1+$1,$2,$3*
1,1,$1+$1,$4,$5*
1,1,$1+$1,$6,$7*
1,1,$1+$1,$8,$9*
0 Add four rect primitives between the rounded corners*
20,1,$1+$1,$2,$3,$4,$5,0*
20,1,$1+$1,$4,$5,$6,$7,0*
20,1,$1+$1,$6,$7,$8,$9,0*
20,1,$1+$1,$8,$9,$2,$3,0*%
G04 Aperture macros list end*
%ADD10RoundRect,0.140000X0.140000X0.170000X-0.140000X0.170000X-0.140000X-0.170000X0.140000X-0.170000X0*%
%ADD11RoundRect,0.250000X0.250000X0.475000X-0.250000X0.475000X-0.250000X-0.475000X0.250000X-0.475000X0*%
%ADD12RoundRect,0.140000X-0.140000X-0.170000X0.140000X-0.170000X0.140000X0.170000X-0.140000X0.170000X0*%
%ADD13RoundRect,0.140000X0.170000X-0.140000X0.170000X0.140000X-0.170000X0.140000X-0.170000X-0.140000X0*%
%ADD14RoundRect,0.200000X0.200000X0.275000X-0.200000X0.275000X-0.200000X-0.275000X0.200000X-0.275000X0*%
%ADD15RoundRect,0.062500X0.062500X-0.375000X0.062500X0.375000X-0.062500X0.375000X-0.062500X-0.375000X0*%
%ADD16RoundRect,0.062500X0.375000X-0.062500X0.375000X0.062500X-0.375000X0.062500X-0.375000X-0.062500X0*%
%ADD17R,3.450000X3.450000*%
%ADD18RoundRect,0.250000X-0.475000X0.250000X-0.475000X-0.250000X0.475000X-0.250000X0.475000X0.250000X0*%
%ADD19RoundRect,0.225000X0.250000X-0.225000X0.250000X0.225000X-0.250000X0.225000X-0.250000X-0.225000X0*%
%ADD20RoundRect,0.200000X0.275000X-0.200000X0.275000X0.200000X-0.275000X0.200000X-0.275000X-0.200000X0*%
%ADD21RoundRect,0.140000X-0.170000X0.140000X-0.170000X-0.140000X0.170000X-0.140000X0.170000X0.140000X0*%
%ADD22RoundRect,0.250000X0.475000X-0.250000X0.475000X0.250000X-0.475000X0.250000X-0.475000X-0.250000X0*%
%ADD23RoundRect,0.150000X0.512500X0.150000X-0.512500X0.150000X-0.512500X-0.150000X0.512500X-0.150000X0*%
%ADD24RoundRect,0.062500X0.312500X0.062500X-0.312500X0.062500X-0.312500X-0.062500X0.312500X-0.062500X0*%
%ADD25RoundRect,0.062500X0.062500X0.312500X-0.062500X0.312500X-0.062500X-0.312500X0.062500X-0.312500X0*%
%ADD26R,3.650000X3.650000*%
%ADD27R,1.700000X1.700000*%
%ADD28O,1.700000X1.700000*%
%ADD29RoundRect,0.250000X-0.250000X-0.475000X0.250000X-0.475000X0.250000X0.475000X-0.250000X0.475000X0*%
%ADD30RoundRect,0.218750X-0.218750X-0.381250X0.218750X-0.381250X0.218750X0.381250X-0.218750X0.381250X0*%
%ADD31RoundRect,0.135000X-0.185000X0.135000X-0.185000X-0.135000X0.185000X-0.135000X0.185000X0.135000X0*%
%ADD32C,1.200000*%
%ADD33RoundRect,0.200000X-0.275000X0.200000X-0.275000X-0.200000X0.275000X-0.200000X0.275000X0.200000X0*%
%ADD34R,0.700000X0.250000*%
%ADD35R,1.780000X2.350000*%
%ADD36RoundRect,0.150000X0.150000X-0.512500X0.150000X0.512500X-0.150000X0.512500X-0.150000X-0.512500X0*%
G04 APERTURE END LIST*
D10*
X100610000Y-51850000D03*
X99650000Y-51850000D03*
D11*
X109500000Y-50850000D03*
X107600000Y-50850000D03*
X105950000Y-52250000D03*
X104050000Y-52250000D03*
D12*
X100080000Y-80300000D03*
X101040000Y-80300000D03*
D13*
X95797500Y-79117500D03*
X95797500Y-78157500D03*
D14*
X86372500Y-73437500D03*
X84722500Y-73437500D03*
D15*
X97710000Y-78975000D03*
X98210000Y-78975000D03*
X98710000Y-78975000D03*
X99210000Y-78975000D03*
X99710000Y-78975000D03*
X100210000Y-78975000D03*
X100710000Y-78975000D03*
X101210000Y-78975000D03*
D16*
X101897500Y-78287500D03*
X101897500Y-77787500D03*
X101897500Y-77287500D03*
X101897500Y-76787500D03*
X101897500Y-76287500D03*
X101897500Y-75787500D03*
X101897500Y-75287500D03*
X101897500Y-74787500D03*
D15*
X101210000Y-74100000D03*
X100710000Y-74100000D03*
X100210000Y-74100000D03*
X99710000Y-74100000D03*
X99210000Y-74100000D03*
X98710000Y-74100000D03*
X98210000Y-74100000D03*
X97710000Y-74100000D03*
D16*
X97022500Y-74787500D03*
X97022500Y-75287500D03*
X97022500Y-75787500D03*
X97022500Y-76287500D03*
X97022500Y-76787500D03*
X97022500Y-77287500D03*
X97022500Y-77787500D03*
X97022500Y-78287500D03*
D17*
X99460000Y-76537500D03*
D18*
X110700000Y-54750000D03*
X110700000Y-56650000D03*
D19*
X101850000Y-56687500D03*
X101850000Y-55137500D03*
D20*
X100300000Y-56737500D03*
X100300000Y-55087500D03*
X101850000Y-53675000D03*
X101850000Y-52025000D03*
D21*
X103160000Y-73720000D03*
X103160000Y-74680000D03*
D22*
X107793750Y-54550000D03*
X107793750Y-52650000D03*
D23*
X113737500Y-52800000D03*
X113737500Y-51850000D03*
X113737500Y-50900000D03*
X111462500Y-50900000D03*
X111462500Y-52800000D03*
D10*
X86680000Y-49950000D03*
X85720000Y-49950000D03*
D24*
X89725000Y-55375000D03*
X89725000Y-54875000D03*
X89725000Y-54375000D03*
X89725000Y-53875000D03*
X89725000Y-53375000D03*
X89725000Y-52875000D03*
X89725000Y-52375000D03*
X89725000Y-51875000D03*
D25*
X89000000Y-51150000D03*
X88500000Y-51150000D03*
X88000000Y-51150000D03*
X87500000Y-51150000D03*
X87000000Y-51150000D03*
X86500000Y-51150000D03*
X86000000Y-51150000D03*
X85500000Y-51150000D03*
D24*
X84775000Y-51875000D03*
X84775000Y-52375000D03*
X84775000Y-52875000D03*
X84775000Y-53375000D03*
X84775000Y-53875000D03*
X84775000Y-54375000D03*
X84775000Y-54875000D03*
X84775000Y-55375000D03*
D25*
X85500000Y-56100000D03*
X86000000Y-56100000D03*
X86500000Y-56100000D03*
X87000000Y-56100000D03*
X87500000Y-56100000D03*
X88000000Y-56100000D03*
X88500000Y-56100000D03*
X89000000Y-56100000D03*
D26*
X87250000Y-53625000D03*
D27*
X105557500Y-75987500D03*
D28*
X105557500Y-78527500D03*
X108097500Y-75987500D03*
X108097500Y-78527500D03*
X110637500Y-75987500D03*
X110637500Y-78527500D03*
X113177500Y-75987500D03*
X113177500Y-78527500D03*
D13*
X94100000Y-51750000D03*
X94100000Y-50790000D03*
D29*
X106950000Y-56400000D03*
X108850000Y-56400000D03*
D30*
X112487500Y-54500000D03*
X114612500Y-54500000D03*
D31*
X103150000Y-75640000D03*
X103150000Y-76660000D03*
D21*
X91550000Y-55020000D03*
X91550000Y-55980000D03*
D14*
X89725000Y-49650000D03*
X88075000Y-49650000D03*
D31*
X103147500Y-78377500D03*
X103147500Y-79397500D03*
D32*
X89000000Y-72500000D03*
X91000000Y-72500000D03*
X93000000Y-72500000D03*
X95000000Y-72500000D03*
X97000000Y-72500000D03*
X99000000Y-72500000D03*
X101000000Y-72500000D03*
X103000000Y-72500000D03*
X105000000Y-72500000D03*
X107000000Y-72500000D03*
X109000000Y-72500000D03*
X111000000Y-72500000D03*
D21*
X96900000Y-54440000D03*
X96900000Y-55400000D03*
D19*
X92850000Y-51475000D03*
X92850000Y-49925000D03*
D33*
X97150000Y-51600000D03*
X97150000Y-53250000D03*
D34*
X92825000Y-52870000D03*
X92825000Y-53270000D03*
X92825000Y-53670000D03*
X92825000Y-54070000D03*
X92825000Y-54470000D03*
X92825000Y-54870000D03*
X92825000Y-55270000D03*
X95775000Y-55270000D03*
X95775000Y-54870000D03*
X95775000Y-54470000D03*
X95775000Y-54070000D03*
X95775000Y-53670000D03*
X95775000Y-53270000D03*
X95775000Y-52870000D03*
D35*
X94300000Y-54070000D03*
D36*
X103450000Y-56487500D03*
X104400000Y-56487500D03*
X105350000Y-56487500D03*
X105350000Y-54212500D03*
X103450000Y-54212500D03*
D12*
X96520000Y-56420000D03*
X97480000Y-56420000D03*
D20*
X95400000Y-51525000D03*
X95400000Y-49875000D03*
D11*
X114550000Y-56400000D03*
X112650000Y-56400000D03*
D27*
X85857500Y-75987500D03*
D28*
X85857500Y-78527500D03*
X88397500Y-75987500D03*
X88397500Y-78527500D03*
X90937500Y-75987500D03*
X90937500Y-78527500D03*
X93477500Y-75987500D03*
X93477500Y-78527500D03*
D33*
X98750000Y-55075000D03*
X98750000Y-56725000D03*
D20*
X91150000Y-51225000D03*
X91150000Y-49575000D03*
D27*
X96960000Y-50000000D03*
D28*
X99500000Y-50000000D03*
X102040000Y-50000000D03*
G36*
X96123215Y-54993681D02*
G01*
X96123694Y-54995261D01*
X96122822Y-54996663D01*
X96087465Y-55020285D01*
X96087460Y-55119701D01*
X96122828Y-55143337D01*
X96123700Y-55144739D01*
X96123221Y-55146319D01*
X96121717Y-55147000D01*
X95428281Y-55147000D01*
X95426777Y-55146319D01*
X95426298Y-55144739D01*
X95427170Y-55143337D01*
X95462538Y-55119699D01*
X95462533Y-55020288D01*
X95427176Y-54996663D01*
X95426304Y-54995261D01*
X95426783Y-54993681D01*
X95428287Y-54993000D01*
X96121711Y-54993000D01*
X96123215Y-54993681D01*
G37*
G36*
X93173215Y-54993681D02*
G01*
X93173694Y-54995261D01*
X93172822Y-54996663D01*
X93137465Y-55020285D01*
X93137460Y-55119701D01*
X93172828Y-55143337D01*
X93173700Y-55144739D01*
X93173221Y-55146319D01*
X93171717Y-55147000D01*
X92478281Y-55147000D01*
X92476777Y-55146319D01*
X92476298Y-55144739D01*
X92477170Y-55143337D01*
X92512538Y-55119699D01*
X92512533Y-55020288D01*
X92477176Y-54996663D01*
X92476304Y-54995261D01*
X92476783Y-54993681D01*
X92478287Y-54993000D01*
X93171711Y-54993000D01*
X93173215Y-54993681D01*
G37*
G36*
X96123216Y-54593681D02*
G01*
X96123695Y-54595261D01*
X96122823Y-54596663D01*
X96087463Y-54620292D01*
X96087463Y-54719708D01*
X96122825Y-54743337D01*
X96123697Y-54744739D01*
X96123218Y-54746319D01*
X96121714Y-54747000D01*
X95428284Y-54747000D01*
X95426780Y-54746319D01*
X95426301Y-54744739D01*
X95427173Y-54743337D01*
X95462536Y-54719706D01*
X95462536Y-54620294D01*
X95427174Y-54596663D01*
X95426302Y-54595261D01*
X95426781Y-54593681D01*
X95428285Y-54593000D01*
X96121712Y-54593000D01*
X96123216Y-54593681D01*
G37*
G36*
X93173216Y-54593681D02*
G01*
X93173695Y-54595261D01*
X93172823Y-54596663D01*
X93137463Y-54620292D01*
X93137463Y-54719708D01*
X93172825Y-54743337D01*
X93173697Y-54744739D01*
X93173218Y-54746319D01*
X93171714Y-54747000D01*
X92478284Y-54747000D01*
X92476780Y-54746319D01*
X92476301Y-54744739D01*
X92477173Y-54743337D01*
X92512536Y-54719706D01*
X92512536Y-54620294D01*
X92477174Y-54596663D01*
X92476302Y-54595261D01*
X92476781Y-54593681D01*
X92478285Y-54593000D01*
X93171712Y-54593000D01*
X93173216Y-54593681D01*
G37*
G36*
X96123216Y-54193681D02*
G01*
X96123695Y-54195261D01*
X96122823Y-54196663D01*
X96087463Y-54220292D01*
X96087463Y-54319708D01*
X96122825Y-54343337D01*
X96123697Y-54344739D01*
X96123218Y-54346319D01*
X96121714Y-54347000D01*
X95428284Y-54347000D01*
X95426780Y-54346319D01*
X95426301Y-54344739D01*
X95427173Y-54343337D01*
X95462536Y-54319706D01*
X95462536Y-54220294D01*
X95427174Y-54196663D01*
X95426302Y-54195261D01*
X95426781Y-54193681D01*
X95428285Y-54193000D01*
X96121712Y-54193000D01*
X96123216Y-54193681D01*
G37*
G36*
X93173216Y-54193681D02*
G01*
X93173695Y-54195261D01*
X93172823Y-54196663D01*
X93137463Y-54220292D01*
X93137463Y-54319708D01*
X93172825Y-54343337D01*
X93173697Y-54344739D01*
X93173218Y-54346319D01*
X93171714Y-54347000D01*
X92478284Y-54347000D01*
X92476780Y-54346319D01*
X92476301Y-54344739D01*
X92477173Y-54343337D01*
X92512536Y-54319706D01*
X92512536Y-54220294D01*
X92477174Y-54196663D01*
X92476302Y-54195261D01*
X92476781Y-54193681D01*
X92478285Y-54193000D01*
X93171712Y-54193000D01*
X93173216Y-54193681D01*
G37*
G36*
X96123215Y-53793681D02*
G01*
X96123694Y-53795261D01*
X96122822Y-53796663D01*
X96087465Y-53820285D01*
X96087460Y-53919701D01*
X96122828Y-53943337D01*
X96123700Y-53944739D01*
X96123221Y-53946319D01*
X96121717Y-53947000D01*
X95428281Y-53947000D01*
X95426777Y-53946319D01*
X95426298Y-53944739D01*
X95427170Y-53943337D01*
X95462538Y-53919699D01*
X95462533Y-53820288D01*
X95427176Y-53796663D01*
X95426304Y-53795261D01*
X95426783Y-53793681D01*
X95428287Y-53793000D01*
X96121711Y-53793000D01*
X96123215Y-53793681D01*
G37*
G36*
X93173215Y-53793681D02*
G01*
X93173694Y-53795261D01*
X93172822Y-53796663D01*
X93137465Y-53820285D01*
X93137460Y-53919701D01*
X93172828Y-53943337D01*
X93173700Y-53944739D01*
X93173221Y-53946319D01*
X93171717Y-53947000D01*
X92478281Y-53947000D01*
X92476777Y-53946319D01*
X92476298Y-53944739D01*
X92477170Y-53943337D01*
X92512538Y-53919699D01*
X92512533Y-53820288D01*
X92477176Y-53796663D01*
X92476304Y-53795261D01*
X92476783Y-53793681D01*
X92478287Y-53793000D01*
X93171711Y-53793000D01*
X93173215Y-53793681D01*
G37*
G36*
X96123216Y-53393681D02*
G01*
X96123695Y-53395261D01*
X96122823Y-53396663D01*
X96087463Y-53420292D01*
X96087463Y-53519708D01*
X96122825Y-53543337D01*
X96123697Y-53544739D01*
X96123218Y-53546319D01*
X96121714Y-53547000D01*
X95428284Y-53547000D01*
X95426780Y-53546319D01*
X95426301Y-53544739D01*
X95427173Y-53543337D01*
X95462536Y-53519706D01*
X95462536Y-53420294D01*
X95427174Y-53396663D01*
X95426302Y-53395261D01*
X95426781Y-53393681D01*
X95428285Y-53393000D01*
X96121712Y-53393000D01*
X96123216Y-53393681D01*
G37*
G36*
X93173216Y-53393681D02*
G01*
X93173695Y-53395261D01*
X93172823Y-53396663D01*
X93137463Y-53420292D01*
X93137463Y-53519708D01*
X93172825Y-53543337D01*
X93173697Y-53544739D01*
X93173218Y-53546319D01*
X93171714Y-53547000D01*
X92478284Y-53547000D01*
X92476780Y-53546319D01*
X92476301Y-53544739D01*
X92477173Y-53543337D01*
X92512536Y-53519706D01*
X92512536Y-53420294D01*
X92477174Y-53396663D01*
X92476302Y-53395261D01*
X92476781Y-53393681D01*
X92478285Y-53393000D01*
X93171712Y-53393000D01*
X93173216Y-53393681D01*
G37*
G36*
X96123216Y-52993681D02*
G01*
X96123695Y-52995261D01*
X96122823Y-52996663D01*
X96087463Y-53020292D01*
X96087463Y-53119708D01*
X96122825Y-53143337D01*
X96123697Y-53144739D01*
X96123218Y-53146319D01*
X96121714Y-53147000D01*
X95428284Y-53147000D01*
X95426780Y-53146319D01*
X95426301Y-53144739D01*
X95427173Y-53143337D01*
X95462536Y-53119706D01*
X95462536Y-53020294D01*
X95427174Y-52996663D01*
X95426302Y-52995261D01*
X95426781Y-52993681D01*
X95428285Y-52993000D01*
X96121712Y-52993000D01*
X96123216Y-52993681D01*
G37*
G36*
X93173216Y-52993681D02*
G01*
X93173695Y-52995261D01*
X93172823Y-52996663D01*
X93137463Y-53020292D01*
X93137463Y-53119708D01*
X93172825Y-53143337D01*
X93173697Y-53144739D01*
X93173218Y-53146319D01*
X93171714Y-53147000D01*
X92478284Y-53147000D01*
X92476780Y-53146319D01*
X92476301Y-53144739D01*
X92477173Y-53143337D01*
X92512536Y-53119706D01*
X92512536Y-53020294D01*
X92477174Y-52996663D01*
X92476302Y-52995261D01*
X92476781Y-52993681D01*
X92478285Y-52993000D01*
X93171712Y-52993000D01*
X93173216Y-52993681D01*
G37*
M02*
