M48
; DRILL file {KiCad 7.0.1} date Fri Jul 28 03:37:47 2023
; FORMAT={-:-/ absolute / metric / decimal}
; #@! TF.CreationDate,2023-07-28T03:37:47-04:00
; #@! TF.GenerationSoftware,Kicad,Pcbnew,7.0.1
; #@! TF.FileFunction,MixedPlating,1,2
FMAT,2
METRIC
; #@! TA.AperFunction,Plated,PTH,ViaDrill
T1C0.300
; #@! TA.AperFunction,Plated,PTH,ComponentDrill
T2C0.700
; #@! TA.AperFunction,Plated,PTH,ComponentDrill
T3C1.000
%
G90
G05
T1
X85.0Y-49.95
X85.0Y-51.15
X85.05Y-65.2
X85.787Y-55.087
X85.8Y-52.2
X87.2Y-49.3
X87.248Y-73.438
X87.25Y-53.625
X87.35Y-61.15
X87.35Y-62.05
X87.35Y-62.95
X87.35Y-63.85
X87.35Y-64.75
X87.35Y-65.65
X87.35Y-66.55
X87.35Y-67.45
X88.7Y-52.15
X88.7Y-55.087
X89.6Y-50.6
X90.15Y-61.15
X90.15Y-62.05
X90.15Y-62.95
X90.15Y-63.85
X90.15Y-64.75
X90.15Y-65.65
X90.15Y-66.55
X90.15Y-67.45
X90.2Y-51.3
X91.55Y-56.72
X91.9Y-54.3
X91.95Y-50.55
X92.05Y-52.35
X92.55Y-77.25
X92.85Y-56.15
X93.8Y-53.27
X93.8Y-54.87
X94.1Y-49.95
X94.3Y-54.07
X94.6Y-77.5
X94.8Y-53.27
X94.8Y-54.87
X96.998Y-78.975
X97.725Y-55.37
X98.179Y-77.819
X98.21Y-75.25
X98.824Y-54.125
X99.36Y-80.25
X99.46Y-76.537
X100.729Y-75.269
X100.76Y-77.8
X103.15Y-52.25
X104.8Y-55.35
X106.65Y-50.75
X108.85Y-57.6
X109.0Y-52.65
X110.0Y-73.65
X110.7Y-57.6
X112.65Y-57.6
X114.712Y-51.85
T2
X89.0Y-72.5
X91.0Y-72.5
X93.0Y-72.5
X95.0Y-72.5
X97.0Y-72.5
X99.0Y-72.5
X101.0Y-72.5
X103.0Y-72.5
X105.0Y-72.5
X107.0Y-72.5
X109.0Y-72.5
X111.0Y-72.5
T3
X85.858Y-75.987
X85.858Y-78.528
X88.397Y-75.987
X88.397Y-78.528
X90.938Y-75.987
X90.938Y-78.528
X93.477Y-75.987
X93.477Y-78.528
X96.96Y-50.0
X99.5Y-50.0
X102.04Y-50.0
X105.557Y-75.987
X105.557Y-78.528
X108.097Y-75.987
X108.097Y-78.528
X110.637Y-75.987
X110.637Y-78.528
X113.177Y-75.987
X113.177Y-78.528
T0
M30
