G04 #@! TF.GenerationSoftware,KiCad,Pcbnew,7.0.1*
G04 #@! TF.CreationDate,2023-08-01T01:44:39-04:00*
G04 #@! TF.ProjectId,cdm324_v2,63646d33-3234-45f7-9632-2e6b69636164,rev?*
G04 #@! TF.SameCoordinates,Original*
G04 #@! TF.FileFunction,AssemblyDrawing,Bot*
%FSLAX46Y46*%
G04 Gerber Fmt 4.6, Leading zero omitted, Abs format (unit mm)*
G04 Created by KiCad (PCBNEW 7.0.1) date 2023-08-01 01:44:39*
%MOMM*%
%LPD*%
G01*
G04 APERTURE LIST*
%ADD10C,0.300000*%
%ADD11C,0.100000*%
G04 APERTURE END LIST*
D10*
X99899999Y-49355142D02*
X99899999Y-50212285D01*
X99899999Y-50212285D02*
X99957142Y-50383714D01*
X99957142Y-50383714D02*
X100071428Y-50498000D01*
X100071428Y-50498000D02*
X100242856Y-50555142D01*
X100242856Y-50555142D02*
X100357142Y-50555142D01*
X99385713Y-49469428D02*
X99328570Y-49412285D01*
X99328570Y-49412285D02*
X99214285Y-49355142D01*
X99214285Y-49355142D02*
X98928570Y-49355142D01*
X98928570Y-49355142D02*
X98814285Y-49412285D01*
X98814285Y-49412285D02*
X98757142Y-49469428D01*
X98757142Y-49469428D02*
X98699999Y-49583714D01*
X98699999Y-49583714D02*
X98699999Y-49698000D01*
X98699999Y-49698000D02*
X98757142Y-49869428D01*
X98757142Y-49869428D02*
X99442856Y-50555142D01*
X99442856Y-50555142D02*
X98699999Y-50555142D01*
D11*
X103310000Y-48730000D02*
X96325000Y-48730000D01*
X96325000Y-48730000D02*
X95690000Y-49365000D01*
X95690000Y-49365000D02*
X95690000Y-51270000D01*
X103310000Y-51270000D02*
X103310000Y-48730000D01*
X95690000Y-51270000D02*
X103310000Y-51270000D01*
M02*
