G04 #@! TF.GenerationSoftware,KiCad,Pcbnew,7.0.1*
G04 #@! TF.CreationDate,2023-08-01T01:44:39-04:00*
G04 #@! TF.ProjectId,cdm324_v2,63646d33-3234-45f7-9632-2e6b69636164,rev?*
G04 #@! TF.SameCoordinates,Original*
G04 #@! TF.FileFunction,AssemblyDrawing,Top*
%FSLAX46Y46*%
G04 Gerber Fmt 4.6, Leading zero omitted, Abs format (unit mm)*
G04 Created by KiCad (PCBNEW 7.0.1) date 2023-08-01 01:44:39*
%MOMM*%
%LPD*%
G01*
G04 APERTURE LIST*
%ADD10C,0.300000*%
%ADD11C,0.040000*%
%ADD12C,0.150000*%
%ADD13C,0.080000*%
%ADD14C,0.060000*%
%ADD15C,0.125000*%
%ADD16C,0.100000*%
G04 APERTURE END LIST*
D10*
X108350000Y-51290857D02*
X108292857Y-51348000D01*
X108292857Y-51348000D02*
X108121429Y-51405142D01*
X108121429Y-51405142D02*
X108007143Y-51405142D01*
X108007143Y-51405142D02*
X107835714Y-51348000D01*
X107835714Y-51348000D02*
X107721429Y-51233714D01*
X107721429Y-51233714D02*
X107664286Y-51119428D01*
X107664286Y-51119428D02*
X107607143Y-50890857D01*
X107607143Y-50890857D02*
X107607143Y-50719428D01*
X107607143Y-50719428D02*
X107664286Y-50490857D01*
X107664286Y-50490857D02*
X107721429Y-50376571D01*
X107721429Y-50376571D02*
X107835714Y-50262285D01*
X107835714Y-50262285D02*
X108007143Y-50205142D01*
X108007143Y-50205142D02*
X108121429Y-50205142D01*
X108121429Y-50205142D02*
X108292857Y-50262285D01*
X108292857Y-50262285D02*
X108350000Y-50319428D01*
X109492857Y-51405142D02*
X108807143Y-51405142D01*
X109150000Y-51405142D02*
X109150000Y-50205142D01*
X109150000Y-50205142D02*
X109035714Y-50376571D01*
X109035714Y-50376571D02*
X108921429Y-50490857D01*
X108921429Y-50490857D02*
X108807143Y-50548000D01*
X104800000Y-52690857D02*
X104742857Y-52748000D01*
X104742857Y-52748000D02*
X104571429Y-52805142D01*
X104571429Y-52805142D02*
X104457143Y-52805142D01*
X104457143Y-52805142D02*
X104285714Y-52748000D01*
X104285714Y-52748000D02*
X104171429Y-52633714D01*
X104171429Y-52633714D02*
X104114286Y-52519428D01*
X104114286Y-52519428D02*
X104057143Y-52290857D01*
X104057143Y-52290857D02*
X104057143Y-52119428D01*
X104057143Y-52119428D02*
X104114286Y-51890857D01*
X104114286Y-51890857D02*
X104171429Y-51776571D01*
X104171429Y-51776571D02*
X104285714Y-51662285D01*
X104285714Y-51662285D02*
X104457143Y-51605142D01*
X104457143Y-51605142D02*
X104571429Y-51605142D01*
X104571429Y-51605142D02*
X104742857Y-51662285D01*
X104742857Y-51662285D02*
X104800000Y-51719428D01*
X105885714Y-51605142D02*
X105314286Y-51605142D01*
X105314286Y-51605142D02*
X105257143Y-52176571D01*
X105257143Y-52176571D02*
X105314286Y-52119428D01*
X105314286Y-52119428D02*
X105428572Y-52062285D01*
X105428572Y-52062285D02*
X105714286Y-52062285D01*
X105714286Y-52062285D02*
X105828572Y-52119428D01*
X105828572Y-52119428D02*
X105885714Y-52176571D01*
X105885714Y-52176571D02*
X105942857Y-52290857D01*
X105942857Y-52290857D02*
X105942857Y-52576571D01*
X105942857Y-52576571D02*
X105885714Y-52690857D01*
X105885714Y-52690857D02*
X105828572Y-52748000D01*
X105828572Y-52748000D02*
X105714286Y-52805142D01*
X105714286Y-52805142D02*
X105428572Y-52805142D01*
X105428572Y-52805142D02*
X105314286Y-52748000D01*
X105314286Y-52748000D02*
X105257143Y-52690857D01*
D11*
X100399285Y-80391845D02*
X100387381Y-80403750D01*
X100387381Y-80403750D02*
X100351666Y-80415654D01*
X100351666Y-80415654D02*
X100327857Y-80415654D01*
X100327857Y-80415654D02*
X100292143Y-80403750D01*
X100292143Y-80403750D02*
X100268333Y-80379940D01*
X100268333Y-80379940D02*
X100256428Y-80356130D01*
X100256428Y-80356130D02*
X100244524Y-80308511D01*
X100244524Y-80308511D02*
X100244524Y-80272797D01*
X100244524Y-80272797D02*
X100256428Y-80225178D01*
X100256428Y-80225178D02*
X100268333Y-80201369D01*
X100268333Y-80201369D02*
X100292143Y-80177559D01*
X100292143Y-80177559D02*
X100327857Y-80165654D01*
X100327857Y-80165654D02*
X100351666Y-80165654D01*
X100351666Y-80165654D02*
X100387381Y-80177559D01*
X100387381Y-80177559D02*
X100399285Y-80189464D01*
X100637381Y-80415654D02*
X100494524Y-80415654D01*
X100565952Y-80415654D02*
X100565952Y-80165654D01*
X100565952Y-80165654D02*
X100542143Y-80201369D01*
X100542143Y-80201369D02*
X100518333Y-80225178D01*
X100518333Y-80225178D02*
X100494524Y-80237083D01*
X100851666Y-80165654D02*
X100804047Y-80165654D01*
X100804047Y-80165654D02*
X100780238Y-80177559D01*
X100780238Y-80177559D02*
X100768333Y-80189464D01*
X100768333Y-80189464D02*
X100744523Y-80225178D01*
X100744523Y-80225178D02*
X100732619Y-80272797D01*
X100732619Y-80272797D02*
X100732619Y-80368035D01*
X100732619Y-80368035D02*
X100744523Y-80391845D01*
X100744523Y-80391845D02*
X100756428Y-80403750D01*
X100756428Y-80403750D02*
X100780238Y-80415654D01*
X100780238Y-80415654D02*
X100827857Y-80415654D01*
X100827857Y-80415654D02*
X100851666Y-80403750D01*
X100851666Y-80403750D02*
X100863571Y-80391845D01*
X100863571Y-80391845D02*
X100875476Y-80368035D01*
X100875476Y-80368035D02*
X100875476Y-80308511D01*
X100875476Y-80308511D02*
X100863571Y-80284702D01*
X100863571Y-80284702D02*
X100851666Y-80272797D01*
X100851666Y-80272797D02*
X100827857Y-80260892D01*
X100827857Y-80260892D02*
X100780238Y-80260892D01*
X100780238Y-80260892D02*
X100756428Y-80272797D01*
X100756428Y-80272797D02*
X100744523Y-80284702D01*
X100744523Y-80284702D02*
X100732619Y-80308511D01*
X95889345Y-78798214D02*
X95901250Y-78810118D01*
X95901250Y-78810118D02*
X95913154Y-78845833D01*
X95913154Y-78845833D02*
X95913154Y-78869642D01*
X95913154Y-78869642D02*
X95901250Y-78905356D01*
X95901250Y-78905356D02*
X95877440Y-78929166D01*
X95877440Y-78929166D02*
X95853630Y-78941071D01*
X95853630Y-78941071D02*
X95806011Y-78952975D01*
X95806011Y-78952975D02*
X95770297Y-78952975D01*
X95770297Y-78952975D02*
X95722678Y-78941071D01*
X95722678Y-78941071D02*
X95698869Y-78929166D01*
X95698869Y-78929166D02*
X95675059Y-78905356D01*
X95675059Y-78905356D02*
X95663154Y-78869642D01*
X95663154Y-78869642D02*
X95663154Y-78845833D01*
X95663154Y-78845833D02*
X95675059Y-78810118D01*
X95675059Y-78810118D02*
X95686964Y-78798214D01*
X95913154Y-78560118D02*
X95913154Y-78702975D01*
X95913154Y-78631547D02*
X95663154Y-78631547D01*
X95663154Y-78631547D02*
X95698869Y-78655356D01*
X95698869Y-78655356D02*
X95722678Y-78679166D01*
X95722678Y-78679166D02*
X95734583Y-78702975D01*
X95663154Y-78333928D02*
X95663154Y-78452976D01*
X95663154Y-78452976D02*
X95782202Y-78464880D01*
X95782202Y-78464880D02*
X95770297Y-78452976D01*
X95770297Y-78452976D02*
X95758392Y-78429166D01*
X95758392Y-78429166D02*
X95758392Y-78369642D01*
X95758392Y-78369642D02*
X95770297Y-78345833D01*
X95770297Y-78345833D02*
X95782202Y-78333928D01*
X95782202Y-78333928D02*
X95806011Y-78322023D01*
X95806011Y-78322023D02*
X95865535Y-78322023D01*
X95865535Y-78322023D02*
X95889345Y-78333928D01*
X95889345Y-78333928D02*
X95901250Y-78345833D01*
X95901250Y-78345833D02*
X95913154Y-78369642D01*
X95913154Y-78369642D02*
X95913154Y-78429166D01*
X95913154Y-78429166D02*
X95901250Y-78452976D01*
X95901250Y-78452976D02*
X95889345Y-78464880D01*
D10*
X85347500Y-73992642D02*
X84947500Y-73421214D01*
X84661786Y-73992642D02*
X84661786Y-72792642D01*
X84661786Y-72792642D02*
X85118929Y-72792642D01*
X85118929Y-72792642D02*
X85233214Y-72849785D01*
X85233214Y-72849785D02*
X85290357Y-72906928D01*
X85290357Y-72906928D02*
X85347500Y-73021214D01*
X85347500Y-73021214D02*
X85347500Y-73192642D01*
X85347500Y-73192642D02*
X85290357Y-73306928D01*
X85290357Y-73306928D02*
X85233214Y-73364071D01*
X85233214Y-73364071D02*
X85118929Y-73421214D01*
X85118929Y-73421214D02*
X84661786Y-73421214D01*
X86033214Y-73306928D02*
X85918929Y-73249785D01*
X85918929Y-73249785D02*
X85861786Y-73192642D01*
X85861786Y-73192642D02*
X85804643Y-73078357D01*
X85804643Y-73078357D02*
X85804643Y-73021214D01*
X85804643Y-73021214D02*
X85861786Y-72906928D01*
X85861786Y-72906928D02*
X85918929Y-72849785D01*
X85918929Y-72849785D02*
X86033214Y-72792642D01*
X86033214Y-72792642D02*
X86261786Y-72792642D01*
X86261786Y-72792642D02*
X86376072Y-72849785D01*
X86376072Y-72849785D02*
X86433214Y-72906928D01*
X86433214Y-72906928D02*
X86490357Y-73021214D01*
X86490357Y-73021214D02*
X86490357Y-73078357D01*
X86490357Y-73078357D02*
X86433214Y-73192642D01*
X86433214Y-73192642D02*
X86376072Y-73249785D01*
X86376072Y-73249785D02*
X86261786Y-73306928D01*
X86261786Y-73306928D02*
X86033214Y-73306928D01*
X86033214Y-73306928D02*
X85918929Y-73364071D01*
X85918929Y-73364071D02*
X85861786Y-73421214D01*
X85861786Y-73421214D02*
X85804643Y-73535500D01*
X85804643Y-73535500D02*
X85804643Y-73764071D01*
X85804643Y-73764071D02*
X85861786Y-73878357D01*
X85861786Y-73878357D02*
X85918929Y-73935500D01*
X85918929Y-73935500D02*
X86033214Y-73992642D01*
X86033214Y-73992642D02*
X86261786Y-73992642D01*
X86261786Y-73992642D02*
X86376072Y-73935500D01*
X86376072Y-73935500D02*
X86433214Y-73878357D01*
X86433214Y-73878357D02*
X86490357Y-73764071D01*
X86490357Y-73764071D02*
X86490357Y-73535500D01*
X86490357Y-73535500D02*
X86433214Y-73421214D01*
X86433214Y-73421214D02*
X86376072Y-73364071D01*
X86376072Y-73364071D02*
X86261786Y-73306928D01*
X98815142Y-77451785D02*
X99786571Y-77451785D01*
X99786571Y-77451785D02*
X99900857Y-77394642D01*
X99900857Y-77394642D02*
X99958000Y-77337500D01*
X99958000Y-77337500D02*
X100015142Y-77223214D01*
X100015142Y-77223214D02*
X100015142Y-76994642D01*
X100015142Y-76994642D02*
X99958000Y-76880357D01*
X99958000Y-76880357D02*
X99900857Y-76823214D01*
X99900857Y-76823214D02*
X99786571Y-76766071D01*
X99786571Y-76766071D02*
X98815142Y-76766071D01*
X98815142Y-75623214D02*
X98815142Y-76194642D01*
X98815142Y-76194642D02*
X99386571Y-76251785D01*
X99386571Y-76251785D02*
X99329428Y-76194642D01*
X99329428Y-76194642D02*
X99272285Y-76080357D01*
X99272285Y-76080357D02*
X99272285Y-75794642D01*
X99272285Y-75794642D02*
X99329428Y-75680357D01*
X99329428Y-75680357D02*
X99386571Y-75623214D01*
X99386571Y-75623214D02*
X99500857Y-75566071D01*
X99500857Y-75566071D02*
X99786571Y-75566071D01*
X99786571Y-75566071D02*
X99900857Y-75623214D01*
X99900857Y-75623214D02*
X99958000Y-75680357D01*
X99958000Y-75680357D02*
X100015142Y-75794642D01*
X100015142Y-75794642D02*
X100015142Y-76080357D01*
X100015142Y-76080357D02*
X99958000Y-76194642D01*
X99958000Y-76194642D02*
X99900857Y-76251785D01*
X111140857Y-56471428D02*
X111198000Y-56528571D01*
X111198000Y-56528571D02*
X111255142Y-56699999D01*
X111255142Y-56699999D02*
X111255142Y-56814285D01*
X111255142Y-56814285D02*
X111198000Y-56985714D01*
X111198000Y-56985714D02*
X111083714Y-57099999D01*
X111083714Y-57099999D02*
X110969428Y-57157142D01*
X110969428Y-57157142D02*
X110740857Y-57214285D01*
X110740857Y-57214285D02*
X110569428Y-57214285D01*
X110569428Y-57214285D02*
X110340857Y-57157142D01*
X110340857Y-57157142D02*
X110226571Y-57099999D01*
X110226571Y-57099999D02*
X110112285Y-56985714D01*
X110112285Y-56985714D02*
X110055142Y-56814285D01*
X110055142Y-56814285D02*
X110055142Y-56699999D01*
X110055142Y-56699999D02*
X110112285Y-56528571D01*
X110112285Y-56528571D02*
X110169428Y-56471428D01*
X111255142Y-55328571D02*
X111255142Y-56014285D01*
X111255142Y-55671428D02*
X110055142Y-55671428D01*
X110055142Y-55671428D02*
X110226571Y-55785714D01*
X110226571Y-55785714D02*
X110340857Y-55899999D01*
X110340857Y-55899999D02*
X110398000Y-56014285D01*
X111255142Y-54185714D02*
X111255142Y-54871428D01*
X111255142Y-54528571D02*
X110055142Y-54528571D01*
X110055142Y-54528571D02*
X110226571Y-54642857D01*
X110226571Y-54642857D02*
X110340857Y-54757142D01*
X110340857Y-54757142D02*
X110398000Y-54871428D01*
X102290857Y-56112499D02*
X102348000Y-56169642D01*
X102348000Y-56169642D02*
X102405142Y-56341070D01*
X102405142Y-56341070D02*
X102405142Y-56455356D01*
X102405142Y-56455356D02*
X102348000Y-56626785D01*
X102348000Y-56626785D02*
X102233714Y-56741070D01*
X102233714Y-56741070D02*
X102119428Y-56798213D01*
X102119428Y-56798213D02*
X101890857Y-56855356D01*
X101890857Y-56855356D02*
X101719428Y-56855356D01*
X101719428Y-56855356D02*
X101490857Y-56798213D01*
X101490857Y-56798213D02*
X101376571Y-56741070D01*
X101376571Y-56741070D02*
X101262285Y-56626785D01*
X101262285Y-56626785D02*
X101205142Y-56455356D01*
X101205142Y-56455356D02*
X101205142Y-56341070D01*
X101205142Y-56341070D02*
X101262285Y-56169642D01*
X101262285Y-56169642D02*
X101319428Y-56112499D01*
X101605142Y-55083928D02*
X102405142Y-55083928D01*
X101148000Y-55369642D02*
X102005142Y-55655356D01*
X102005142Y-55655356D02*
X102005142Y-54912499D01*
X100855142Y-56112499D02*
X100283714Y-56512499D01*
X100855142Y-56798213D02*
X99655142Y-56798213D01*
X99655142Y-56798213D02*
X99655142Y-56341070D01*
X99655142Y-56341070D02*
X99712285Y-56226785D01*
X99712285Y-56226785D02*
X99769428Y-56169642D01*
X99769428Y-56169642D02*
X99883714Y-56112499D01*
X99883714Y-56112499D02*
X100055142Y-56112499D01*
X100055142Y-56112499D02*
X100169428Y-56169642D01*
X100169428Y-56169642D02*
X100226571Y-56226785D01*
X100226571Y-56226785D02*
X100283714Y-56341070D01*
X100283714Y-56341070D02*
X100283714Y-56798213D01*
X99655142Y-55712499D02*
X99655142Y-54969642D01*
X99655142Y-54969642D02*
X100112285Y-55369642D01*
X100112285Y-55369642D02*
X100112285Y-55198213D01*
X100112285Y-55198213D02*
X100169428Y-55083928D01*
X100169428Y-55083928D02*
X100226571Y-55026785D01*
X100226571Y-55026785D02*
X100340857Y-54969642D01*
X100340857Y-54969642D02*
X100626571Y-54969642D01*
X100626571Y-54969642D02*
X100740857Y-55026785D01*
X100740857Y-55026785D02*
X100798000Y-55083928D01*
X100798000Y-55083928D02*
X100855142Y-55198213D01*
X100855142Y-55198213D02*
X100855142Y-55541070D01*
X100855142Y-55541070D02*
X100798000Y-55655356D01*
X100798000Y-55655356D02*
X100740857Y-55712499D01*
X102405142Y-53049999D02*
X101833714Y-53449999D01*
X102405142Y-53735713D02*
X101205142Y-53735713D01*
X101205142Y-53735713D02*
X101205142Y-53278570D01*
X101205142Y-53278570D02*
X101262285Y-53164285D01*
X101262285Y-53164285D02*
X101319428Y-53107142D01*
X101319428Y-53107142D02*
X101433714Y-53049999D01*
X101433714Y-53049999D02*
X101605142Y-53049999D01*
X101605142Y-53049999D02*
X101719428Y-53107142D01*
X101719428Y-53107142D02*
X101776571Y-53164285D01*
X101776571Y-53164285D02*
X101833714Y-53278570D01*
X101833714Y-53278570D02*
X101833714Y-53735713D01*
X102405142Y-51907142D02*
X102405142Y-52592856D01*
X102405142Y-52249999D02*
X101205142Y-52249999D01*
X101205142Y-52249999D02*
X101376571Y-52364285D01*
X101376571Y-52364285D02*
X101490857Y-52478570D01*
X101490857Y-52478570D02*
X101548000Y-52592856D01*
D11*
X103251845Y-74360714D02*
X103263750Y-74372618D01*
X103263750Y-74372618D02*
X103275654Y-74408333D01*
X103275654Y-74408333D02*
X103275654Y-74432142D01*
X103275654Y-74432142D02*
X103263750Y-74467856D01*
X103263750Y-74467856D02*
X103239940Y-74491666D01*
X103239940Y-74491666D02*
X103216130Y-74503571D01*
X103216130Y-74503571D02*
X103168511Y-74515475D01*
X103168511Y-74515475D02*
X103132797Y-74515475D01*
X103132797Y-74515475D02*
X103085178Y-74503571D01*
X103085178Y-74503571D02*
X103061369Y-74491666D01*
X103061369Y-74491666D02*
X103037559Y-74467856D01*
X103037559Y-74467856D02*
X103025654Y-74432142D01*
X103025654Y-74432142D02*
X103025654Y-74408333D01*
X103025654Y-74408333D02*
X103037559Y-74372618D01*
X103037559Y-74372618D02*
X103049464Y-74360714D01*
X103275654Y-74122618D02*
X103275654Y-74265475D01*
X103275654Y-74194047D02*
X103025654Y-74194047D01*
X103025654Y-74194047D02*
X103061369Y-74217856D01*
X103061369Y-74217856D02*
X103085178Y-74241666D01*
X103085178Y-74241666D02*
X103097083Y-74265475D01*
X103108988Y-73908333D02*
X103275654Y-73908333D01*
X103013750Y-73967857D02*
X103192321Y-74027380D01*
X103192321Y-74027380D02*
X103192321Y-73872619D01*
D10*
X108234607Y-54371428D02*
X108291750Y-54428571D01*
X108291750Y-54428571D02*
X108348892Y-54599999D01*
X108348892Y-54599999D02*
X108348892Y-54714285D01*
X108348892Y-54714285D02*
X108291750Y-54885714D01*
X108291750Y-54885714D02*
X108177464Y-54999999D01*
X108177464Y-54999999D02*
X108063178Y-55057142D01*
X108063178Y-55057142D02*
X107834607Y-55114285D01*
X107834607Y-55114285D02*
X107663178Y-55114285D01*
X107663178Y-55114285D02*
X107434607Y-55057142D01*
X107434607Y-55057142D02*
X107320321Y-54999999D01*
X107320321Y-54999999D02*
X107206035Y-54885714D01*
X107206035Y-54885714D02*
X107148892Y-54714285D01*
X107148892Y-54714285D02*
X107148892Y-54599999D01*
X107148892Y-54599999D02*
X107206035Y-54428571D01*
X107206035Y-54428571D02*
X107263178Y-54371428D01*
X108348892Y-53228571D02*
X108348892Y-53914285D01*
X108348892Y-53571428D02*
X107148892Y-53571428D01*
X107148892Y-53571428D02*
X107320321Y-53685714D01*
X107320321Y-53685714D02*
X107434607Y-53799999D01*
X107434607Y-53799999D02*
X107491750Y-53914285D01*
X107148892Y-52828571D02*
X107148892Y-52085714D01*
X107148892Y-52085714D02*
X107606035Y-52485714D01*
X107606035Y-52485714D02*
X107606035Y-52314285D01*
X107606035Y-52314285D02*
X107663178Y-52200000D01*
X107663178Y-52200000D02*
X107720321Y-52142857D01*
X107720321Y-52142857D02*
X107834607Y-52085714D01*
X107834607Y-52085714D02*
X108120321Y-52085714D01*
X108120321Y-52085714D02*
X108234607Y-52142857D01*
X108234607Y-52142857D02*
X108291750Y-52200000D01*
X108291750Y-52200000D02*
X108348892Y-52314285D01*
X108348892Y-52314285D02*
X108348892Y-52657142D01*
X108348892Y-52657142D02*
X108291750Y-52771428D01*
X108291750Y-52771428D02*
X108234607Y-52828571D01*
X111955142Y-52764285D02*
X112926571Y-52764285D01*
X112926571Y-52764285D02*
X113040857Y-52707142D01*
X113040857Y-52707142D02*
X113098000Y-52650000D01*
X113098000Y-52650000D02*
X113155142Y-52535714D01*
X113155142Y-52535714D02*
X113155142Y-52307142D01*
X113155142Y-52307142D02*
X113098000Y-52192857D01*
X113098000Y-52192857D02*
X113040857Y-52135714D01*
X113040857Y-52135714D02*
X112926571Y-52078571D01*
X112926571Y-52078571D02*
X111955142Y-52078571D01*
X112355142Y-50992857D02*
X113155142Y-50992857D01*
X111898000Y-51278571D02*
X112755142Y-51564285D01*
X112755142Y-51564285D02*
X112755142Y-50821428D01*
D11*
X86039285Y-50041845D02*
X86027381Y-50053750D01*
X86027381Y-50053750D02*
X85991666Y-50065654D01*
X85991666Y-50065654D02*
X85967857Y-50065654D01*
X85967857Y-50065654D02*
X85932143Y-50053750D01*
X85932143Y-50053750D02*
X85908333Y-50029940D01*
X85908333Y-50029940D02*
X85896428Y-50006130D01*
X85896428Y-50006130D02*
X85884524Y-49958511D01*
X85884524Y-49958511D02*
X85884524Y-49922797D01*
X85884524Y-49922797D02*
X85896428Y-49875178D01*
X85896428Y-49875178D02*
X85908333Y-49851369D01*
X85908333Y-49851369D02*
X85932143Y-49827559D01*
X85932143Y-49827559D02*
X85967857Y-49815654D01*
X85967857Y-49815654D02*
X85991666Y-49815654D01*
X85991666Y-49815654D02*
X86027381Y-49827559D01*
X86027381Y-49827559D02*
X86039285Y-49839464D01*
X86277381Y-50065654D02*
X86134524Y-50065654D01*
X86205952Y-50065654D02*
X86205952Y-49815654D01*
X86205952Y-49815654D02*
X86182143Y-49851369D01*
X86182143Y-49851369D02*
X86158333Y-49875178D01*
X86158333Y-49875178D02*
X86134524Y-49887083D01*
X86420238Y-49922797D02*
X86396428Y-49910892D01*
X86396428Y-49910892D02*
X86384523Y-49898988D01*
X86384523Y-49898988D02*
X86372619Y-49875178D01*
X86372619Y-49875178D02*
X86372619Y-49863273D01*
X86372619Y-49863273D02*
X86384523Y-49839464D01*
X86384523Y-49839464D02*
X86396428Y-49827559D01*
X86396428Y-49827559D02*
X86420238Y-49815654D01*
X86420238Y-49815654D02*
X86467857Y-49815654D01*
X86467857Y-49815654D02*
X86491666Y-49827559D01*
X86491666Y-49827559D02*
X86503571Y-49839464D01*
X86503571Y-49839464D02*
X86515476Y-49863273D01*
X86515476Y-49863273D02*
X86515476Y-49875178D01*
X86515476Y-49875178D02*
X86503571Y-49898988D01*
X86503571Y-49898988D02*
X86491666Y-49910892D01*
X86491666Y-49910892D02*
X86467857Y-49922797D01*
X86467857Y-49922797D02*
X86420238Y-49922797D01*
X86420238Y-49922797D02*
X86396428Y-49934702D01*
X86396428Y-49934702D02*
X86384523Y-49946607D01*
X86384523Y-49946607D02*
X86372619Y-49970416D01*
X86372619Y-49970416D02*
X86372619Y-50018035D01*
X86372619Y-50018035D02*
X86384523Y-50041845D01*
X86384523Y-50041845D02*
X86396428Y-50053750D01*
X86396428Y-50053750D02*
X86420238Y-50065654D01*
X86420238Y-50065654D02*
X86467857Y-50065654D01*
X86467857Y-50065654D02*
X86491666Y-50053750D01*
X86491666Y-50053750D02*
X86503571Y-50041845D01*
X86503571Y-50041845D02*
X86515476Y-50018035D01*
X86515476Y-50018035D02*
X86515476Y-49970416D01*
X86515476Y-49970416D02*
X86503571Y-49946607D01*
X86503571Y-49946607D02*
X86491666Y-49934702D01*
X86491666Y-49934702D02*
X86467857Y-49922797D01*
D12*
X86488095Y-53087619D02*
X86488095Y-53897142D01*
X86488095Y-53897142D02*
X86535714Y-53992380D01*
X86535714Y-53992380D02*
X86583333Y-54040000D01*
X86583333Y-54040000D02*
X86678571Y-54087619D01*
X86678571Y-54087619D02*
X86869047Y-54087619D01*
X86869047Y-54087619D02*
X86964285Y-54040000D01*
X86964285Y-54040000D02*
X87011904Y-53992380D01*
X87011904Y-53992380D02*
X87059523Y-53897142D01*
X87059523Y-53897142D02*
X87059523Y-53087619D01*
X87964285Y-53087619D02*
X87773809Y-53087619D01*
X87773809Y-53087619D02*
X87678571Y-53135238D01*
X87678571Y-53135238D02*
X87630952Y-53182857D01*
X87630952Y-53182857D02*
X87535714Y-53325714D01*
X87535714Y-53325714D02*
X87488095Y-53516190D01*
X87488095Y-53516190D02*
X87488095Y-53897142D01*
X87488095Y-53897142D02*
X87535714Y-53992380D01*
X87535714Y-53992380D02*
X87583333Y-54040000D01*
X87583333Y-54040000D02*
X87678571Y-54087619D01*
X87678571Y-54087619D02*
X87869047Y-54087619D01*
X87869047Y-54087619D02*
X87964285Y-54040000D01*
X87964285Y-54040000D02*
X88011904Y-53992380D01*
X88011904Y-53992380D02*
X88059523Y-53897142D01*
X88059523Y-53897142D02*
X88059523Y-53659047D01*
X88059523Y-53659047D02*
X88011904Y-53563809D01*
X88011904Y-53563809D02*
X87964285Y-53516190D01*
X87964285Y-53516190D02*
X87869047Y-53468571D01*
X87869047Y-53468571D02*
X87678571Y-53468571D01*
X87678571Y-53468571D02*
X87583333Y-53516190D01*
X87583333Y-53516190D02*
X87535714Y-53563809D01*
X87535714Y-53563809D02*
X87488095Y-53659047D01*
X109034166Y-76720119D02*
X109034166Y-77434404D01*
X109034166Y-77434404D02*
X108986547Y-77577261D01*
X108986547Y-77577261D02*
X108891309Y-77672500D01*
X108891309Y-77672500D02*
X108748452Y-77720119D01*
X108748452Y-77720119D02*
X108653214Y-77720119D01*
X109986547Y-76720119D02*
X109510357Y-76720119D01*
X109510357Y-76720119D02*
X109462738Y-77196309D01*
X109462738Y-77196309D02*
X109510357Y-77148690D01*
X109510357Y-77148690D02*
X109605595Y-77101071D01*
X109605595Y-77101071D02*
X109843690Y-77101071D01*
X109843690Y-77101071D02*
X109938928Y-77148690D01*
X109938928Y-77148690D02*
X109986547Y-77196309D01*
X109986547Y-77196309D02*
X110034166Y-77291547D01*
X110034166Y-77291547D02*
X110034166Y-77529642D01*
X110034166Y-77529642D02*
X109986547Y-77624880D01*
X109986547Y-77624880D02*
X109938928Y-77672500D01*
X109938928Y-77672500D02*
X109843690Y-77720119D01*
X109843690Y-77720119D02*
X109605595Y-77720119D01*
X109605595Y-77720119D02*
X109510357Y-77672500D01*
X109510357Y-77672500D02*
X109462738Y-77624880D01*
D11*
X94191845Y-51311666D02*
X94203750Y-51323570D01*
X94203750Y-51323570D02*
X94215654Y-51359285D01*
X94215654Y-51359285D02*
X94215654Y-51383094D01*
X94215654Y-51383094D02*
X94203750Y-51418808D01*
X94203750Y-51418808D02*
X94179940Y-51442618D01*
X94179940Y-51442618D02*
X94156130Y-51454523D01*
X94156130Y-51454523D02*
X94108511Y-51466427D01*
X94108511Y-51466427D02*
X94072797Y-51466427D01*
X94072797Y-51466427D02*
X94025178Y-51454523D01*
X94025178Y-51454523D02*
X94001369Y-51442618D01*
X94001369Y-51442618D02*
X93977559Y-51418808D01*
X93977559Y-51418808D02*
X93965654Y-51383094D01*
X93965654Y-51383094D02*
X93965654Y-51359285D01*
X93965654Y-51359285D02*
X93977559Y-51323570D01*
X93977559Y-51323570D02*
X93989464Y-51311666D01*
X93965654Y-51097380D02*
X93965654Y-51144999D01*
X93965654Y-51144999D02*
X93977559Y-51168808D01*
X93977559Y-51168808D02*
X93989464Y-51180713D01*
X93989464Y-51180713D02*
X94025178Y-51204523D01*
X94025178Y-51204523D02*
X94072797Y-51216427D01*
X94072797Y-51216427D02*
X94168035Y-51216427D01*
X94168035Y-51216427D02*
X94191845Y-51204523D01*
X94191845Y-51204523D02*
X94203750Y-51192618D01*
X94203750Y-51192618D02*
X94215654Y-51168808D01*
X94215654Y-51168808D02*
X94215654Y-51121189D01*
X94215654Y-51121189D02*
X94203750Y-51097380D01*
X94203750Y-51097380D02*
X94191845Y-51085475D01*
X94191845Y-51085475D02*
X94168035Y-51073570D01*
X94168035Y-51073570D02*
X94108511Y-51073570D01*
X94108511Y-51073570D02*
X94084702Y-51085475D01*
X94084702Y-51085475D02*
X94072797Y-51097380D01*
X94072797Y-51097380D02*
X94060892Y-51121189D01*
X94060892Y-51121189D02*
X94060892Y-51168808D01*
X94060892Y-51168808D02*
X94072797Y-51192618D01*
X94072797Y-51192618D02*
X94084702Y-51204523D01*
X94084702Y-51204523D02*
X94108511Y-51216427D01*
D13*
X107816666Y-56583690D02*
X107792857Y-56607500D01*
X107792857Y-56607500D02*
X107721428Y-56631309D01*
X107721428Y-56631309D02*
X107673809Y-56631309D01*
X107673809Y-56631309D02*
X107602381Y-56607500D01*
X107602381Y-56607500D02*
X107554762Y-56559880D01*
X107554762Y-56559880D02*
X107530952Y-56512261D01*
X107530952Y-56512261D02*
X107507143Y-56417023D01*
X107507143Y-56417023D02*
X107507143Y-56345595D01*
X107507143Y-56345595D02*
X107530952Y-56250357D01*
X107530952Y-56250357D02*
X107554762Y-56202738D01*
X107554762Y-56202738D02*
X107602381Y-56155119D01*
X107602381Y-56155119D02*
X107673809Y-56131309D01*
X107673809Y-56131309D02*
X107721428Y-56131309D01*
X107721428Y-56131309D02*
X107792857Y-56155119D01*
X107792857Y-56155119D02*
X107816666Y-56178928D01*
X107983333Y-56131309D02*
X108292857Y-56131309D01*
X108292857Y-56131309D02*
X108126190Y-56321785D01*
X108126190Y-56321785D02*
X108197619Y-56321785D01*
X108197619Y-56321785D02*
X108245238Y-56345595D01*
X108245238Y-56345595D02*
X108269047Y-56369404D01*
X108269047Y-56369404D02*
X108292857Y-56417023D01*
X108292857Y-56417023D02*
X108292857Y-56536071D01*
X108292857Y-56536071D02*
X108269047Y-56583690D01*
X108269047Y-56583690D02*
X108245238Y-56607500D01*
X108245238Y-56607500D02*
X108197619Y-56631309D01*
X108197619Y-56631309D02*
X108054762Y-56631309D01*
X108054762Y-56631309D02*
X108007143Y-56607500D01*
X108007143Y-56607500D02*
X107983333Y-56583690D01*
D11*
X100088333Y-51941845D02*
X100076429Y-51953750D01*
X100076429Y-51953750D02*
X100040714Y-51965654D01*
X100040714Y-51965654D02*
X100016905Y-51965654D01*
X100016905Y-51965654D02*
X99981191Y-51953750D01*
X99981191Y-51953750D02*
X99957381Y-51929940D01*
X99957381Y-51929940D02*
X99945476Y-51906130D01*
X99945476Y-51906130D02*
X99933572Y-51858511D01*
X99933572Y-51858511D02*
X99933572Y-51822797D01*
X99933572Y-51822797D02*
X99945476Y-51775178D01*
X99945476Y-51775178D02*
X99957381Y-51751369D01*
X99957381Y-51751369D02*
X99981191Y-51727559D01*
X99981191Y-51727559D02*
X100016905Y-51715654D01*
X100016905Y-51715654D02*
X100040714Y-51715654D01*
X100040714Y-51715654D02*
X100076429Y-51727559D01*
X100076429Y-51727559D02*
X100088333Y-51739464D01*
X100183572Y-51739464D02*
X100195476Y-51727559D01*
X100195476Y-51727559D02*
X100219286Y-51715654D01*
X100219286Y-51715654D02*
X100278810Y-51715654D01*
X100278810Y-51715654D02*
X100302619Y-51727559D01*
X100302619Y-51727559D02*
X100314524Y-51739464D01*
X100314524Y-51739464D02*
X100326429Y-51763273D01*
X100326429Y-51763273D02*
X100326429Y-51787083D01*
X100326429Y-51787083D02*
X100314524Y-51822797D01*
X100314524Y-51822797D02*
X100171667Y-51965654D01*
X100171667Y-51965654D02*
X100326429Y-51965654D01*
D13*
X113133334Y-54469404D02*
X112966667Y-54469404D01*
X112966667Y-54731309D02*
X112966667Y-54231309D01*
X112966667Y-54231309D02*
X113204762Y-54231309D01*
X113561905Y-54469404D02*
X113633333Y-54493214D01*
X113633333Y-54493214D02*
X113657143Y-54517023D01*
X113657143Y-54517023D02*
X113680952Y-54564642D01*
X113680952Y-54564642D02*
X113680952Y-54636071D01*
X113680952Y-54636071D02*
X113657143Y-54683690D01*
X113657143Y-54683690D02*
X113633333Y-54707500D01*
X113633333Y-54707500D02*
X113585714Y-54731309D01*
X113585714Y-54731309D02*
X113395238Y-54731309D01*
X113395238Y-54731309D02*
X113395238Y-54231309D01*
X113395238Y-54231309D02*
X113561905Y-54231309D01*
X113561905Y-54231309D02*
X113609524Y-54255119D01*
X113609524Y-54255119D02*
X113633333Y-54278928D01*
X113633333Y-54278928D02*
X113657143Y-54326547D01*
X113657143Y-54326547D02*
X113657143Y-54374166D01*
X113657143Y-54374166D02*
X113633333Y-54421785D01*
X113633333Y-54421785D02*
X113609524Y-54445595D01*
X113609524Y-54445595D02*
X113561905Y-54469404D01*
X113561905Y-54469404D02*
X113395238Y-54469404D01*
X114157143Y-54731309D02*
X113871429Y-54731309D01*
X114014286Y-54731309D02*
X114014286Y-54231309D01*
X114014286Y-54231309D02*
X113966667Y-54302738D01*
X113966667Y-54302738D02*
X113919048Y-54350357D01*
X113919048Y-54350357D02*
X113871429Y-54374166D01*
D11*
X103270280Y-76193332D02*
X103146471Y-76279999D01*
X103270280Y-76341904D02*
X103010280Y-76341904D01*
X103010280Y-76341904D02*
X103010280Y-76242856D01*
X103010280Y-76242856D02*
X103022661Y-76218094D01*
X103022661Y-76218094D02*
X103035042Y-76205713D01*
X103035042Y-76205713D02*
X103059804Y-76193332D01*
X103059804Y-76193332D02*
X103096947Y-76193332D01*
X103096947Y-76193332D02*
X103121709Y-76205713D01*
X103121709Y-76205713D02*
X103134090Y-76218094D01*
X103134090Y-76218094D02*
X103146471Y-76242856D01*
X103146471Y-76242856D02*
X103146471Y-76341904D01*
X103010280Y-76106666D02*
X103010280Y-75933332D01*
X103010280Y-75933332D02*
X103270280Y-76044761D01*
X91641845Y-55660714D02*
X91653750Y-55672618D01*
X91653750Y-55672618D02*
X91665654Y-55708333D01*
X91665654Y-55708333D02*
X91665654Y-55732142D01*
X91665654Y-55732142D02*
X91653750Y-55767856D01*
X91653750Y-55767856D02*
X91629940Y-55791666D01*
X91629940Y-55791666D02*
X91606130Y-55803571D01*
X91606130Y-55803571D02*
X91558511Y-55815475D01*
X91558511Y-55815475D02*
X91522797Y-55815475D01*
X91522797Y-55815475D02*
X91475178Y-55803571D01*
X91475178Y-55803571D02*
X91451369Y-55791666D01*
X91451369Y-55791666D02*
X91427559Y-55767856D01*
X91427559Y-55767856D02*
X91415654Y-55732142D01*
X91415654Y-55732142D02*
X91415654Y-55708333D01*
X91415654Y-55708333D02*
X91427559Y-55672618D01*
X91427559Y-55672618D02*
X91439464Y-55660714D01*
X91665654Y-55422618D02*
X91665654Y-55565475D01*
X91665654Y-55494047D02*
X91415654Y-55494047D01*
X91415654Y-55494047D02*
X91451369Y-55517856D01*
X91451369Y-55517856D02*
X91475178Y-55541666D01*
X91475178Y-55541666D02*
X91487083Y-55565475D01*
X91439464Y-55327380D02*
X91427559Y-55315476D01*
X91427559Y-55315476D02*
X91415654Y-55291666D01*
X91415654Y-55291666D02*
X91415654Y-55232142D01*
X91415654Y-55232142D02*
X91427559Y-55208333D01*
X91427559Y-55208333D02*
X91439464Y-55196428D01*
X91439464Y-55196428D02*
X91463273Y-55184523D01*
X91463273Y-55184523D02*
X91487083Y-55184523D01*
X91487083Y-55184523D02*
X91522797Y-55196428D01*
X91522797Y-55196428D02*
X91665654Y-55339285D01*
X91665654Y-55339285D02*
X91665654Y-55184523D01*
D14*
X88833333Y-49835047D02*
X88700000Y-49644571D01*
X88604762Y-49835047D02*
X88604762Y-49435047D01*
X88604762Y-49435047D02*
X88757143Y-49435047D01*
X88757143Y-49435047D02*
X88795238Y-49454095D01*
X88795238Y-49454095D02*
X88814285Y-49473142D01*
X88814285Y-49473142D02*
X88833333Y-49511238D01*
X88833333Y-49511238D02*
X88833333Y-49568380D01*
X88833333Y-49568380D02*
X88814285Y-49606476D01*
X88814285Y-49606476D02*
X88795238Y-49625523D01*
X88795238Y-49625523D02*
X88757143Y-49644571D01*
X88757143Y-49644571D02*
X88604762Y-49644571D01*
X89023809Y-49835047D02*
X89100000Y-49835047D01*
X89100000Y-49835047D02*
X89138095Y-49816000D01*
X89138095Y-49816000D02*
X89157143Y-49796952D01*
X89157143Y-49796952D02*
X89195238Y-49739809D01*
X89195238Y-49739809D02*
X89214285Y-49663619D01*
X89214285Y-49663619D02*
X89214285Y-49511238D01*
X89214285Y-49511238D02*
X89195238Y-49473142D01*
X89195238Y-49473142D02*
X89176190Y-49454095D01*
X89176190Y-49454095D02*
X89138095Y-49435047D01*
X89138095Y-49435047D02*
X89061904Y-49435047D01*
X89061904Y-49435047D02*
X89023809Y-49454095D01*
X89023809Y-49454095D02*
X89004762Y-49473142D01*
X89004762Y-49473142D02*
X88985714Y-49511238D01*
X88985714Y-49511238D02*
X88985714Y-49606476D01*
X88985714Y-49606476D02*
X89004762Y-49644571D01*
X89004762Y-49644571D02*
X89023809Y-49663619D01*
X89023809Y-49663619D02*
X89061904Y-49682666D01*
X89061904Y-49682666D02*
X89138095Y-49682666D01*
X89138095Y-49682666D02*
X89176190Y-49663619D01*
X89176190Y-49663619D02*
X89195238Y-49644571D01*
X89195238Y-49644571D02*
X89214285Y-49606476D01*
D11*
X103267780Y-78930832D02*
X103143971Y-79017499D01*
X103267780Y-79079404D02*
X103007780Y-79079404D01*
X103007780Y-79079404D02*
X103007780Y-78980356D01*
X103007780Y-78980356D02*
X103020161Y-78955594D01*
X103020161Y-78955594D02*
X103032542Y-78943213D01*
X103032542Y-78943213D02*
X103057304Y-78930832D01*
X103057304Y-78930832D02*
X103094447Y-78930832D01*
X103094447Y-78930832D02*
X103119209Y-78943213D01*
X103119209Y-78943213D02*
X103131590Y-78955594D01*
X103131590Y-78955594D02*
X103143971Y-78980356D01*
X103143971Y-78980356D02*
X103143971Y-79079404D01*
X103032542Y-78831785D02*
X103020161Y-78819404D01*
X103020161Y-78819404D02*
X103007780Y-78794642D01*
X103007780Y-78794642D02*
X103007780Y-78732737D01*
X103007780Y-78732737D02*
X103020161Y-78707975D01*
X103020161Y-78707975D02*
X103032542Y-78695594D01*
X103032542Y-78695594D02*
X103057304Y-78683213D01*
X103057304Y-78683213D02*
X103082066Y-78683213D01*
X103082066Y-78683213D02*
X103119209Y-78695594D01*
X103119209Y-78695594D02*
X103267780Y-78844166D01*
X103267780Y-78844166D02*
X103267780Y-78683213D01*
D12*
X99238095Y-62962619D02*
X99238095Y-63772142D01*
X99238095Y-63772142D02*
X99285714Y-63867380D01*
X99285714Y-63867380D02*
X99333333Y-63915000D01*
X99333333Y-63915000D02*
X99428571Y-63962619D01*
X99428571Y-63962619D02*
X99619047Y-63962619D01*
X99619047Y-63962619D02*
X99714285Y-63915000D01*
X99714285Y-63915000D02*
X99761904Y-63867380D01*
X99761904Y-63867380D02*
X99809523Y-63772142D01*
X99809523Y-63772142D02*
X99809523Y-62962619D01*
X100238095Y-63057857D02*
X100285714Y-63010238D01*
X100285714Y-63010238D02*
X100380952Y-62962619D01*
X100380952Y-62962619D02*
X100619047Y-62962619D01*
X100619047Y-62962619D02*
X100714285Y-63010238D01*
X100714285Y-63010238D02*
X100761904Y-63057857D01*
X100761904Y-63057857D02*
X100809523Y-63153095D01*
X100809523Y-63153095D02*
X100809523Y-63248333D01*
X100809523Y-63248333D02*
X100761904Y-63391190D01*
X100761904Y-63391190D02*
X100190476Y-63962619D01*
X100190476Y-63962619D02*
X100809523Y-63962619D01*
D11*
X96991845Y-54961666D02*
X97003750Y-54973570D01*
X97003750Y-54973570D02*
X97015654Y-55009285D01*
X97015654Y-55009285D02*
X97015654Y-55033094D01*
X97015654Y-55033094D02*
X97003750Y-55068808D01*
X97003750Y-55068808D02*
X96979940Y-55092618D01*
X96979940Y-55092618D02*
X96956130Y-55104523D01*
X96956130Y-55104523D02*
X96908511Y-55116427D01*
X96908511Y-55116427D02*
X96872797Y-55116427D01*
X96872797Y-55116427D02*
X96825178Y-55104523D01*
X96825178Y-55104523D02*
X96801369Y-55092618D01*
X96801369Y-55092618D02*
X96777559Y-55068808D01*
X96777559Y-55068808D02*
X96765654Y-55033094D01*
X96765654Y-55033094D02*
X96765654Y-55009285D01*
X96765654Y-55009285D02*
X96777559Y-54973570D01*
X96777559Y-54973570D02*
X96789464Y-54961666D01*
X96872797Y-54818808D02*
X96860892Y-54842618D01*
X96860892Y-54842618D02*
X96848988Y-54854523D01*
X96848988Y-54854523D02*
X96825178Y-54866427D01*
X96825178Y-54866427D02*
X96813273Y-54866427D01*
X96813273Y-54866427D02*
X96789464Y-54854523D01*
X96789464Y-54854523D02*
X96777559Y-54842618D01*
X96777559Y-54842618D02*
X96765654Y-54818808D01*
X96765654Y-54818808D02*
X96765654Y-54771189D01*
X96765654Y-54771189D02*
X96777559Y-54747380D01*
X96777559Y-54747380D02*
X96789464Y-54735475D01*
X96789464Y-54735475D02*
X96813273Y-54723570D01*
X96813273Y-54723570D02*
X96825178Y-54723570D01*
X96825178Y-54723570D02*
X96848988Y-54735475D01*
X96848988Y-54735475D02*
X96860892Y-54747380D01*
X96860892Y-54747380D02*
X96872797Y-54771189D01*
X96872797Y-54771189D02*
X96872797Y-54818808D01*
X96872797Y-54818808D02*
X96884702Y-54842618D01*
X96884702Y-54842618D02*
X96896607Y-54854523D01*
X96896607Y-54854523D02*
X96920416Y-54866427D01*
X96920416Y-54866427D02*
X96968035Y-54866427D01*
X96968035Y-54866427D02*
X96991845Y-54854523D01*
X96991845Y-54854523D02*
X97003750Y-54842618D01*
X97003750Y-54842618D02*
X97015654Y-54818808D01*
X97015654Y-54818808D02*
X97015654Y-54771189D01*
X97015654Y-54771189D02*
X97003750Y-54747380D01*
X97003750Y-54747380D02*
X96991845Y-54735475D01*
X96991845Y-54735475D02*
X96968035Y-54723570D01*
X96968035Y-54723570D02*
X96920416Y-54723570D01*
X96920416Y-54723570D02*
X96896607Y-54735475D01*
X96896607Y-54735475D02*
X96884702Y-54747380D01*
X96884702Y-54747380D02*
X96872797Y-54771189D01*
D14*
X92996952Y-50766666D02*
X93016000Y-50785714D01*
X93016000Y-50785714D02*
X93035047Y-50842856D01*
X93035047Y-50842856D02*
X93035047Y-50880952D01*
X93035047Y-50880952D02*
X93016000Y-50938095D01*
X93016000Y-50938095D02*
X92977904Y-50976190D01*
X92977904Y-50976190D02*
X92939809Y-50995237D01*
X92939809Y-50995237D02*
X92863619Y-51014285D01*
X92863619Y-51014285D02*
X92806476Y-51014285D01*
X92806476Y-51014285D02*
X92730285Y-50995237D01*
X92730285Y-50995237D02*
X92692190Y-50976190D01*
X92692190Y-50976190D02*
X92654095Y-50938095D01*
X92654095Y-50938095D02*
X92635047Y-50880952D01*
X92635047Y-50880952D02*
X92635047Y-50842856D01*
X92635047Y-50842856D02*
X92654095Y-50785714D01*
X92654095Y-50785714D02*
X92673142Y-50766666D01*
X93035047Y-50576190D02*
X93035047Y-50499999D01*
X93035047Y-50499999D02*
X93016000Y-50461904D01*
X93016000Y-50461904D02*
X92996952Y-50442856D01*
X92996952Y-50442856D02*
X92939809Y-50404761D01*
X92939809Y-50404761D02*
X92863619Y-50385714D01*
X92863619Y-50385714D02*
X92711238Y-50385714D01*
X92711238Y-50385714D02*
X92673142Y-50404761D01*
X92673142Y-50404761D02*
X92654095Y-50423809D01*
X92654095Y-50423809D02*
X92635047Y-50461904D01*
X92635047Y-50461904D02*
X92635047Y-50538095D01*
X92635047Y-50538095D02*
X92654095Y-50576190D01*
X92654095Y-50576190D02*
X92673142Y-50595237D01*
X92673142Y-50595237D02*
X92711238Y-50614285D01*
X92711238Y-50614285D02*
X92806476Y-50614285D01*
X92806476Y-50614285D02*
X92844571Y-50595237D01*
X92844571Y-50595237D02*
X92863619Y-50576190D01*
X92863619Y-50576190D02*
X92882666Y-50538095D01*
X92882666Y-50538095D02*
X92882666Y-50461904D01*
X92882666Y-50461904D02*
X92863619Y-50423809D01*
X92863619Y-50423809D02*
X92844571Y-50404761D01*
X92844571Y-50404761D02*
X92806476Y-50385714D01*
X97335047Y-52491666D02*
X97144571Y-52624999D01*
X97335047Y-52720237D02*
X96935047Y-52720237D01*
X96935047Y-52720237D02*
X96935047Y-52567856D01*
X96935047Y-52567856D02*
X96954095Y-52529761D01*
X96954095Y-52529761D02*
X96973142Y-52510714D01*
X96973142Y-52510714D02*
X97011238Y-52491666D01*
X97011238Y-52491666D02*
X97068380Y-52491666D01*
X97068380Y-52491666D02*
X97106476Y-52510714D01*
X97106476Y-52510714D02*
X97125523Y-52529761D01*
X97125523Y-52529761D02*
X97144571Y-52567856D01*
X97144571Y-52567856D02*
X97144571Y-52720237D01*
X96935047Y-52129761D02*
X96935047Y-52320237D01*
X96935047Y-52320237D02*
X97125523Y-52339285D01*
X97125523Y-52339285D02*
X97106476Y-52320237D01*
X97106476Y-52320237D02*
X97087428Y-52282142D01*
X97087428Y-52282142D02*
X97087428Y-52186904D01*
X97087428Y-52186904D02*
X97106476Y-52148809D01*
X97106476Y-52148809D02*
X97125523Y-52129761D01*
X97125523Y-52129761D02*
X97163619Y-52110714D01*
X97163619Y-52110714D02*
X97258857Y-52110714D01*
X97258857Y-52110714D02*
X97296952Y-52129761D01*
X97296952Y-52129761D02*
X97316000Y-52148809D01*
X97316000Y-52148809D02*
X97335047Y-52186904D01*
X97335047Y-52186904D02*
X97335047Y-52282142D01*
X97335047Y-52282142D02*
X97316000Y-52320237D01*
X97316000Y-52320237D02*
X97296952Y-52339285D01*
D15*
X93917857Y-53897571D02*
X93917857Y-54383285D01*
X93917857Y-54383285D02*
X93946428Y-54440428D01*
X93946428Y-54440428D02*
X93975000Y-54469000D01*
X93975000Y-54469000D02*
X94032142Y-54497571D01*
X94032142Y-54497571D02*
X94146428Y-54497571D01*
X94146428Y-54497571D02*
X94203571Y-54469000D01*
X94203571Y-54469000D02*
X94232142Y-54440428D01*
X94232142Y-54440428D02*
X94260714Y-54383285D01*
X94260714Y-54383285D02*
X94260714Y-53897571D01*
X94489285Y-53897571D02*
X94860713Y-53897571D01*
X94860713Y-53897571D02*
X94660713Y-54126142D01*
X94660713Y-54126142D02*
X94746428Y-54126142D01*
X94746428Y-54126142D02*
X94803571Y-54154714D01*
X94803571Y-54154714D02*
X94832142Y-54183285D01*
X94832142Y-54183285D02*
X94860713Y-54240428D01*
X94860713Y-54240428D02*
X94860713Y-54383285D01*
X94860713Y-54383285D02*
X94832142Y-54440428D01*
X94832142Y-54440428D02*
X94803571Y-54469000D01*
X94803571Y-54469000D02*
X94746428Y-54497571D01*
X94746428Y-54497571D02*
X94574999Y-54497571D01*
X94574999Y-54497571D02*
X94517856Y-54469000D01*
X94517856Y-54469000D02*
X94489285Y-54440428D01*
D14*
X104185047Y-55654761D02*
X104508857Y-55654761D01*
X104508857Y-55654761D02*
X104546952Y-55635714D01*
X104546952Y-55635714D02*
X104566000Y-55616666D01*
X104566000Y-55616666D02*
X104585047Y-55578571D01*
X104585047Y-55578571D02*
X104585047Y-55502380D01*
X104585047Y-55502380D02*
X104566000Y-55464285D01*
X104566000Y-55464285D02*
X104546952Y-55445238D01*
X104546952Y-55445238D02*
X104508857Y-55426190D01*
X104508857Y-55426190D02*
X104185047Y-55426190D01*
X104585047Y-55026190D02*
X104585047Y-55254761D01*
X104585047Y-55140475D02*
X104185047Y-55140475D01*
X104185047Y-55140475D02*
X104242190Y-55178571D01*
X104242190Y-55178571D02*
X104280285Y-55216666D01*
X104280285Y-55216666D02*
X104299333Y-55254761D01*
D11*
X96958333Y-56511845D02*
X96946429Y-56523750D01*
X96946429Y-56523750D02*
X96910714Y-56535654D01*
X96910714Y-56535654D02*
X96886905Y-56535654D01*
X96886905Y-56535654D02*
X96851191Y-56523750D01*
X96851191Y-56523750D02*
X96827381Y-56499940D01*
X96827381Y-56499940D02*
X96815476Y-56476130D01*
X96815476Y-56476130D02*
X96803572Y-56428511D01*
X96803572Y-56428511D02*
X96803572Y-56392797D01*
X96803572Y-56392797D02*
X96815476Y-56345178D01*
X96815476Y-56345178D02*
X96827381Y-56321369D01*
X96827381Y-56321369D02*
X96851191Y-56297559D01*
X96851191Y-56297559D02*
X96886905Y-56285654D01*
X96886905Y-56285654D02*
X96910714Y-56285654D01*
X96910714Y-56285654D02*
X96946429Y-56297559D01*
X96946429Y-56297559D02*
X96958333Y-56309464D01*
X97041667Y-56285654D02*
X97208333Y-56285654D01*
X97208333Y-56285654D02*
X97101191Y-56535654D01*
D14*
X95585047Y-50766666D02*
X95394571Y-50899999D01*
X95585047Y-50995237D02*
X95185047Y-50995237D01*
X95185047Y-50995237D02*
X95185047Y-50842856D01*
X95185047Y-50842856D02*
X95204095Y-50804761D01*
X95204095Y-50804761D02*
X95223142Y-50785714D01*
X95223142Y-50785714D02*
X95261238Y-50766666D01*
X95261238Y-50766666D02*
X95318380Y-50766666D01*
X95318380Y-50766666D02*
X95356476Y-50785714D01*
X95356476Y-50785714D02*
X95375523Y-50804761D01*
X95375523Y-50804761D02*
X95394571Y-50842856D01*
X95394571Y-50842856D02*
X95394571Y-50995237D01*
X95185047Y-50423809D02*
X95185047Y-50499999D01*
X95185047Y-50499999D02*
X95204095Y-50538095D01*
X95204095Y-50538095D02*
X95223142Y-50557142D01*
X95223142Y-50557142D02*
X95280285Y-50595237D01*
X95280285Y-50595237D02*
X95356476Y-50614285D01*
X95356476Y-50614285D02*
X95508857Y-50614285D01*
X95508857Y-50614285D02*
X95546952Y-50595237D01*
X95546952Y-50595237D02*
X95566000Y-50576190D01*
X95566000Y-50576190D02*
X95585047Y-50538095D01*
X95585047Y-50538095D02*
X95585047Y-50461904D01*
X95585047Y-50461904D02*
X95566000Y-50423809D01*
X95566000Y-50423809D02*
X95546952Y-50404761D01*
X95546952Y-50404761D02*
X95508857Y-50385714D01*
X95508857Y-50385714D02*
X95413619Y-50385714D01*
X95413619Y-50385714D02*
X95375523Y-50404761D01*
X95375523Y-50404761D02*
X95356476Y-50423809D01*
X95356476Y-50423809D02*
X95337428Y-50461904D01*
X95337428Y-50461904D02*
X95337428Y-50538095D01*
X95337428Y-50538095D02*
X95356476Y-50576190D01*
X95356476Y-50576190D02*
X95375523Y-50595237D01*
X95375523Y-50595237D02*
X95413619Y-50614285D01*
D13*
X113278571Y-56583690D02*
X113254762Y-56607500D01*
X113254762Y-56607500D02*
X113183333Y-56631309D01*
X113183333Y-56631309D02*
X113135714Y-56631309D01*
X113135714Y-56631309D02*
X113064286Y-56607500D01*
X113064286Y-56607500D02*
X113016667Y-56559880D01*
X113016667Y-56559880D02*
X112992857Y-56512261D01*
X112992857Y-56512261D02*
X112969048Y-56417023D01*
X112969048Y-56417023D02*
X112969048Y-56345595D01*
X112969048Y-56345595D02*
X112992857Y-56250357D01*
X112992857Y-56250357D02*
X113016667Y-56202738D01*
X113016667Y-56202738D02*
X113064286Y-56155119D01*
X113064286Y-56155119D02*
X113135714Y-56131309D01*
X113135714Y-56131309D02*
X113183333Y-56131309D01*
X113183333Y-56131309D02*
X113254762Y-56155119D01*
X113254762Y-56155119D02*
X113278571Y-56178928D01*
X113754762Y-56631309D02*
X113469048Y-56631309D01*
X113611905Y-56631309D02*
X113611905Y-56131309D01*
X113611905Y-56131309D02*
X113564286Y-56202738D01*
X113564286Y-56202738D02*
X113516667Y-56250357D01*
X113516667Y-56250357D02*
X113469048Y-56274166D01*
X114064285Y-56131309D02*
X114111904Y-56131309D01*
X114111904Y-56131309D02*
X114159523Y-56155119D01*
X114159523Y-56155119D02*
X114183333Y-56178928D01*
X114183333Y-56178928D02*
X114207142Y-56226547D01*
X114207142Y-56226547D02*
X114230952Y-56321785D01*
X114230952Y-56321785D02*
X114230952Y-56440833D01*
X114230952Y-56440833D02*
X114207142Y-56536071D01*
X114207142Y-56536071D02*
X114183333Y-56583690D01*
X114183333Y-56583690D02*
X114159523Y-56607500D01*
X114159523Y-56607500D02*
X114111904Y-56631309D01*
X114111904Y-56631309D02*
X114064285Y-56631309D01*
X114064285Y-56631309D02*
X114016666Y-56607500D01*
X114016666Y-56607500D02*
X113992857Y-56583690D01*
X113992857Y-56583690D02*
X113969047Y-56536071D01*
X113969047Y-56536071D02*
X113945238Y-56440833D01*
X113945238Y-56440833D02*
X113945238Y-56321785D01*
X113945238Y-56321785D02*
X113969047Y-56226547D01*
X113969047Y-56226547D02*
X113992857Y-56178928D01*
X113992857Y-56178928D02*
X114016666Y-56155119D01*
X114016666Y-56155119D02*
X114064285Y-56131309D01*
D12*
X89334166Y-76720119D02*
X89334166Y-77434404D01*
X89334166Y-77434404D02*
X89286547Y-77577261D01*
X89286547Y-77577261D02*
X89191309Y-77672500D01*
X89191309Y-77672500D02*
X89048452Y-77720119D01*
X89048452Y-77720119D02*
X88953214Y-77720119D01*
X90238928Y-77053452D02*
X90238928Y-77720119D01*
X90000833Y-76672500D02*
X89762738Y-77386785D01*
X89762738Y-77386785D02*
X90381785Y-77386785D01*
D14*
X98935047Y-55966666D02*
X98744571Y-56099999D01*
X98935047Y-56195237D02*
X98535047Y-56195237D01*
X98535047Y-56195237D02*
X98535047Y-56042856D01*
X98535047Y-56042856D02*
X98554095Y-56004761D01*
X98554095Y-56004761D02*
X98573142Y-55985714D01*
X98573142Y-55985714D02*
X98611238Y-55966666D01*
X98611238Y-55966666D02*
X98668380Y-55966666D01*
X98668380Y-55966666D02*
X98706476Y-55985714D01*
X98706476Y-55985714D02*
X98725523Y-56004761D01*
X98725523Y-56004761D02*
X98744571Y-56042856D01*
X98744571Y-56042856D02*
X98744571Y-56195237D01*
X98668380Y-55623809D02*
X98935047Y-55623809D01*
X98516000Y-55719047D02*
X98801714Y-55814285D01*
X98801714Y-55814285D02*
X98801714Y-55566666D01*
X91335047Y-50657142D02*
X91144571Y-50790475D01*
X91335047Y-50885713D02*
X90935047Y-50885713D01*
X90935047Y-50885713D02*
X90935047Y-50733332D01*
X90935047Y-50733332D02*
X90954095Y-50695237D01*
X90954095Y-50695237D02*
X90973142Y-50676190D01*
X90973142Y-50676190D02*
X91011238Y-50657142D01*
X91011238Y-50657142D02*
X91068380Y-50657142D01*
X91068380Y-50657142D02*
X91106476Y-50676190D01*
X91106476Y-50676190D02*
X91125523Y-50695237D01*
X91125523Y-50695237D02*
X91144571Y-50733332D01*
X91144571Y-50733332D02*
X91144571Y-50885713D01*
X91335047Y-50276190D02*
X91335047Y-50504761D01*
X91335047Y-50390475D02*
X90935047Y-50390475D01*
X90935047Y-50390475D02*
X90992190Y-50428571D01*
X90992190Y-50428571D02*
X91030285Y-50466666D01*
X91030285Y-50466666D02*
X91049333Y-50504761D01*
X90935047Y-50028571D02*
X90935047Y-49990476D01*
X90935047Y-49990476D02*
X90954095Y-49952380D01*
X90954095Y-49952380D02*
X90973142Y-49933333D01*
X90973142Y-49933333D02*
X91011238Y-49914285D01*
X91011238Y-49914285D02*
X91087428Y-49895238D01*
X91087428Y-49895238D02*
X91182666Y-49895238D01*
X91182666Y-49895238D02*
X91258857Y-49914285D01*
X91258857Y-49914285D02*
X91296952Y-49933333D01*
X91296952Y-49933333D02*
X91316000Y-49952380D01*
X91316000Y-49952380D02*
X91335047Y-49990476D01*
X91335047Y-49990476D02*
X91335047Y-50028571D01*
X91335047Y-50028571D02*
X91316000Y-50066666D01*
X91316000Y-50066666D02*
X91296952Y-50085714D01*
X91296952Y-50085714D02*
X91258857Y-50104761D01*
X91258857Y-50104761D02*
X91182666Y-50123809D01*
X91182666Y-50123809D02*
X91087428Y-50123809D01*
X91087428Y-50123809D02*
X91011238Y-50104761D01*
X91011238Y-50104761D02*
X90973142Y-50085714D01*
X90973142Y-50085714D02*
X90954095Y-50066666D01*
X90954095Y-50066666D02*
X90935047Y-50028571D01*
D16*
X109550000Y-51475000D02*
X107550000Y-51475000D01*
X109550000Y-50225000D02*
X109550000Y-51475000D01*
X107550000Y-51475000D02*
X107550000Y-50225000D01*
X107550000Y-50225000D02*
X109550000Y-50225000D01*
X106000000Y-52875000D02*
X104000000Y-52875000D01*
X106000000Y-51625000D02*
X106000000Y-52875000D01*
X104000000Y-52875000D02*
X104000000Y-51625000D01*
X104000000Y-51625000D02*
X106000000Y-51625000D01*
X100060000Y-80050000D02*
X101060000Y-80050000D01*
X100060000Y-80550000D02*
X100060000Y-80050000D01*
X101060000Y-80050000D02*
X101060000Y-80550000D01*
X101060000Y-80550000D02*
X100060000Y-80550000D01*
X95547500Y-79137500D02*
X95547500Y-78137500D01*
X96047500Y-79137500D02*
X95547500Y-79137500D01*
X95547500Y-78137500D02*
X96047500Y-78137500D01*
X96047500Y-78137500D02*
X96047500Y-79137500D01*
X86347500Y-73850000D02*
X84747500Y-73850000D01*
X86347500Y-73025000D02*
X86347500Y-73850000D01*
X84747500Y-73850000D02*
X84747500Y-73025000D01*
X84747500Y-73025000D02*
X86347500Y-73025000D01*
X97960000Y-79037500D02*
X96960000Y-78037500D01*
X101960000Y-79037500D02*
X97960000Y-79037500D01*
X96960000Y-78037500D02*
X96960000Y-74037500D01*
X96960000Y-74037500D02*
X101960000Y-74037500D01*
X101960000Y-74037500D02*
X101960000Y-79037500D01*
X111325000Y-54700000D02*
X111325000Y-56700000D01*
X110075000Y-54700000D02*
X111325000Y-54700000D01*
X111325000Y-56700000D02*
X110075000Y-56700000D01*
X110075000Y-56700000D02*
X110075000Y-54700000D01*
X101450000Y-56712500D02*
X101450000Y-55112500D01*
X102250000Y-56712500D02*
X101450000Y-56712500D01*
X101450000Y-55112500D02*
X102250000Y-55112500D01*
X102250000Y-55112500D02*
X102250000Y-56712500D01*
X99887500Y-56712500D02*
X99887500Y-55112500D01*
X100712500Y-56712500D02*
X99887500Y-56712500D01*
X99887500Y-55112500D02*
X100712500Y-55112500D01*
X100712500Y-55112500D02*
X100712500Y-56712500D01*
X101437500Y-53650000D02*
X101437500Y-52050000D01*
X102262500Y-53650000D02*
X101437500Y-53650000D01*
X101437500Y-52050000D02*
X102262500Y-52050000D01*
X102262500Y-52050000D02*
X102262500Y-53650000D01*
X103410000Y-73700000D02*
X103410000Y-74700000D01*
X102910000Y-73700000D02*
X103410000Y-73700000D01*
X103410000Y-74700000D02*
X102910000Y-74700000D01*
X102910000Y-74700000D02*
X102910000Y-73700000D01*
X107168750Y-54600000D02*
X107168750Y-52600000D01*
X108418750Y-54600000D02*
X107168750Y-54600000D01*
X107168750Y-52600000D02*
X108418750Y-52600000D01*
X108418750Y-52600000D02*
X108418750Y-54600000D01*
X113400000Y-52900000D02*
X113000000Y-53300000D01*
X113400000Y-50400000D02*
X113400000Y-52900000D01*
X113000000Y-53300000D02*
X111800000Y-53300000D01*
X111800000Y-53300000D02*
X111800000Y-50400000D01*
X111800000Y-50400000D02*
X113400000Y-50400000D01*
X86700000Y-50200000D02*
X85700000Y-50200000D01*
X86700000Y-49700000D02*
X86700000Y-50200000D01*
X85700000Y-50200000D02*
X85700000Y-49700000D01*
X85700000Y-49700000D02*
X86700000Y-49700000D01*
X89750000Y-55125000D02*
X88750000Y-56125000D01*
X89750000Y-51125000D02*
X89750000Y-55125000D01*
X88750000Y-56125000D02*
X84750000Y-56125000D01*
X84750000Y-56125000D02*
X84750000Y-51125000D01*
X84750000Y-51125000D02*
X89750000Y-51125000D01*
X104287500Y-79797500D02*
X104287500Y-75717500D01*
X114447500Y-79797500D02*
X104287500Y-79797500D01*
X104287500Y-75717500D02*
X105287500Y-74717500D01*
X105287500Y-74717500D02*
X114447500Y-74717500D01*
X114447500Y-74717500D02*
X114447500Y-79797500D01*
X93850000Y-51770000D02*
X93850000Y-50770000D01*
X94350000Y-51770000D02*
X93850000Y-51770000D01*
X93850000Y-50770000D02*
X94350000Y-50770000D01*
X94350000Y-50770000D02*
X94350000Y-51770000D01*
X106900000Y-55775000D02*
X108900000Y-55775000D01*
X106900000Y-57025000D02*
X106900000Y-55775000D01*
X108900000Y-55775000D02*
X108900000Y-57025000D01*
X108900000Y-57025000D02*
X106900000Y-57025000D01*
X100630000Y-52100000D02*
X99630000Y-52100000D01*
X100630000Y-51600000D02*
X100630000Y-52100000D01*
X99630000Y-52100000D02*
X99630000Y-51600000D01*
X99630000Y-51600000D02*
X100630000Y-51600000D01*
X112550000Y-54050000D02*
X114550000Y-54050000D01*
X112550000Y-54950000D02*
X112550000Y-54050000D01*
X114550000Y-54050000D02*
X114550000Y-54950000D01*
X114550000Y-54950000D02*
X112550000Y-54950000D01*
X103420000Y-75625000D02*
X103420000Y-76675000D01*
X102880000Y-75625000D02*
X103420000Y-75625000D01*
X103420000Y-76675000D02*
X102880000Y-76675000D01*
X102880000Y-76675000D02*
X102880000Y-75625000D01*
X91800000Y-55000000D02*
X91800000Y-56000000D01*
X91300000Y-55000000D02*
X91800000Y-55000000D01*
X91800000Y-56000000D02*
X91300000Y-56000000D01*
X91300000Y-56000000D02*
X91300000Y-55000000D01*
X89700000Y-50062500D02*
X88100000Y-50062500D01*
X89700000Y-49237500D02*
X89700000Y-50062500D01*
X88100000Y-50062500D02*
X88100000Y-49237500D01*
X88100000Y-49237500D02*
X89700000Y-49237500D01*
X103417500Y-78362500D02*
X103417500Y-79412500D01*
X102877500Y-78362500D02*
X103417500Y-78362500D01*
X103417500Y-79412500D02*
X102877500Y-79412500D01*
X102877500Y-79412500D02*
X102877500Y-78362500D01*
X97150000Y-54420000D02*
X97150000Y-55420000D01*
X96650000Y-54420000D02*
X97150000Y-54420000D01*
X97150000Y-55420000D02*
X96650000Y-55420000D01*
X96650000Y-55420000D02*
X96650000Y-54420000D01*
X92450000Y-51500000D02*
X92450000Y-49900000D01*
X93250000Y-51500000D02*
X92450000Y-51500000D01*
X92450000Y-49900000D02*
X93250000Y-49900000D01*
X93250000Y-49900000D02*
X93250000Y-51500000D01*
X97562500Y-51625000D02*
X97562500Y-53225000D01*
X96737500Y-51625000D02*
X97562500Y-51625000D01*
X97562500Y-53225000D02*
X96737500Y-53225000D01*
X96737500Y-53225000D02*
X96737500Y-51625000D01*
D12*
X92800000Y-53570000D02*
X93800000Y-52570000D01*
X92800000Y-55570000D02*
X92800000Y-53570000D01*
X93800000Y-52570000D02*
X95800000Y-52570000D01*
X95800000Y-52570000D02*
X95800000Y-55570000D01*
X95800000Y-55570000D02*
X92800000Y-55570000D01*
D16*
X103350000Y-56150000D02*
X102950000Y-55750000D01*
X105850000Y-56150000D02*
X103350000Y-56150000D01*
X102950000Y-55750000D02*
X102950000Y-54550000D01*
X102950000Y-54550000D02*
X105850000Y-54550000D01*
X105850000Y-54550000D02*
X105850000Y-56150000D01*
X96500000Y-56170000D02*
X97500000Y-56170000D01*
X96500000Y-56670000D02*
X96500000Y-56170000D01*
X97500000Y-56170000D02*
X97500000Y-56670000D01*
X97500000Y-56670000D02*
X96500000Y-56670000D01*
X94987500Y-51500000D02*
X94987500Y-49900000D01*
X95812500Y-51500000D02*
X94987500Y-51500000D01*
X94987500Y-49900000D02*
X95812500Y-49900000D01*
X95812500Y-49900000D02*
X95812500Y-51500000D01*
X114600000Y-57025000D02*
X112600000Y-57025000D01*
X114600000Y-55775000D02*
X114600000Y-57025000D01*
X112600000Y-57025000D02*
X112600000Y-55775000D01*
X112600000Y-55775000D02*
X114600000Y-55775000D01*
X84587500Y-79797500D02*
X84587500Y-75717500D01*
X94747500Y-79797500D02*
X84587500Y-79797500D01*
X84587500Y-75717500D02*
X85587500Y-74717500D01*
X85587500Y-74717500D02*
X94747500Y-74717500D01*
X94747500Y-74717500D02*
X94747500Y-79797500D01*
X99162500Y-55100000D02*
X99162500Y-56700000D01*
X98337500Y-55100000D02*
X99162500Y-55100000D01*
X99162500Y-56700000D02*
X98337500Y-56700000D01*
X98337500Y-56700000D02*
X98337500Y-55100000D01*
X90737500Y-51200000D02*
X90737500Y-49600000D01*
X91562500Y-51200000D02*
X90737500Y-51200000D01*
X90737500Y-49600000D02*
X91562500Y-49600000D01*
X91562500Y-49600000D02*
X91562500Y-51200000D01*
M02*
