G04 #@! TF.GenerationSoftware,KiCad,Pcbnew,7.0.1*
G04 #@! TF.CreationDate,2023-07-28T03:37:33-04:00*
G04 #@! TF.ProjectId,cdm324_v2,63646d33-3234-45f7-9632-2e6b69636164,rev?*
G04 #@! TF.SameCoordinates,Original*
G04 #@! TF.FileFunction,Copper,L2,Bot*
G04 #@! TF.FilePolarity,Positive*
%FSLAX46Y46*%
G04 Gerber Fmt 4.6, Leading zero omitted, Abs format (unit mm)*
G04 Created by KiCad (PCBNEW 7.0.1) date 2023-07-28 03:37:33*
%MOMM*%
%LPD*%
G01*
G04 APERTURE LIST*
G04 #@! TA.AperFunction,ComponentPad*
%ADD10R,1.700000X1.700000*%
G04 #@! TD*
G04 #@! TA.AperFunction,ComponentPad*
%ADD11O,1.700000X1.700000*%
G04 #@! TD*
G04 #@! TA.AperFunction,ComponentPad*
%ADD12C,1.200000*%
G04 #@! TD*
G04 #@! TA.AperFunction,ViaPad*
%ADD13C,0.700000*%
G04 #@! TD*
G04 #@! TA.AperFunction,Conductor*
%ADD14C,0.500000*%
G04 #@! TD*
G04 #@! TA.AperFunction,Conductor*
%ADD15C,1.000000*%
G04 #@! TD*
G04 #@! TA.AperFunction,Conductor*
%ADD16C,0.200000*%
G04 #@! TD*
G04 APERTURE END LIST*
D10*
X105557500Y-75987500D03*
D11*
X105557500Y-78527500D03*
X108097500Y-75987500D03*
X108097500Y-78527500D03*
X110637500Y-75987500D03*
X110637500Y-78527500D03*
X113177500Y-75987500D03*
X113177500Y-78527500D03*
D12*
X89000000Y-72500000D03*
X91000000Y-72500000D03*
X93000000Y-72500000D03*
X95000000Y-72500000D03*
X97000000Y-72500000D03*
X99000000Y-72500000D03*
X101000000Y-72500000D03*
X103000000Y-72500000D03*
X105000000Y-72500000D03*
X107000000Y-72500000D03*
X109000000Y-72500000D03*
X111000000Y-72500000D03*
D10*
X85857500Y-75987500D03*
D11*
X85857500Y-78527500D03*
X88397500Y-75987500D03*
X88397500Y-78527500D03*
X90937500Y-75987500D03*
X90937500Y-78527500D03*
X93477500Y-75987500D03*
X93477500Y-78527500D03*
D10*
X96960000Y-50000000D03*
D11*
X99500000Y-50000000D03*
X102040000Y-50000000D03*
D13*
X100760000Y-77800000D03*
X98178750Y-77818750D03*
X88700000Y-55087500D03*
X97725000Y-55370000D03*
X94800000Y-54870000D03*
X103150000Y-52250000D03*
X108850000Y-57600000D03*
X94100000Y-49950000D03*
X87247500Y-73437500D03*
X98210000Y-75250000D03*
X85800000Y-52200000D03*
X104800000Y-55350000D03*
X98824466Y-54125500D03*
X109000000Y-52650000D03*
X114712500Y-51850000D03*
X88700000Y-52150000D03*
X106650000Y-50750000D03*
X85000000Y-49950000D03*
X94800000Y-53270000D03*
X94300000Y-54070000D03*
X87250000Y-53625000D03*
X93800000Y-53270000D03*
X91550000Y-56720000D03*
X93800000Y-54870000D03*
X99460000Y-76537500D03*
X85787500Y-55087500D03*
X110700000Y-57600000D03*
X100728750Y-75268750D03*
X112650000Y-57600000D03*
X92850000Y-56150000D03*
X92050000Y-52350000D03*
X87200000Y-49300000D03*
X91900000Y-54300000D03*
X91950000Y-50550000D03*
X96997500Y-78975000D03*
X110000000Y-73650000D03*
X99360000Y-80250000D03*
X85000000Y-51150000D03*
X87350000Y-67450000D03*
X85050000Y-65200000D03*
X90150000Y-67450000D03*
X90150000Y-66550000D03*
X87350000Y-66550000D03*
X90150000Y-65650000D03*
X87350000Y-65650000D03*
X87350000Y-64750000D03*
X90150000Y-64750000D03*
X90150000Y-63850000D03*
X87350000Y-63850000D03*
X87350000Y-62950000D03*
X90150000Y-62950000D03*
X90150000Y-62050000D03*
X87350000Y-62050000D03*
X90150000Y-61150000D03*
X87350000Y-61150000D03*
X90200000Y-51300000D03*
X92550000Y-77250000D03*
X94600000Y-77500000D03*
X89600000Y-50600000D03*
D14*
X108097500Y-74197500D02*
X108050000Y-74150000D01*
D15*
X108097500Y-75987500D02*
X108097500Y-74197500D01*
D14*
X98272500Y-80250000D02*
X96997500Y-78975000D01*
X90700000Y-49300000D02*
X91950000Y-50550000D01*
X91900000Y-54300000D02*
X91900000Y-55200000D01*
X110637500Y-75987500D02*
X111900000Y-77250000D01*
X91900000Y-55200000D02*
X92850000Y-56150000D01*
X110637500Y-75987500D02*
X110637500Y-74287500D01*
X114600000Y-77700000D02*
X114600000Y-79250000D01*
X99360000Y-80250000D02*
X98272500Y-80250000D01*
X111900000Y-77250000D02*
X114150000Y-77250000D01*
X92850000Y-56150000D02*
X92800000Y-56150000D01*
X114600000Y-79250000D02*
X113500000Y-80350000D01*
X87200000Y-49300000D02*
X90700000Y-49300000D01*
X99460000Y-80350000D02*
X99360000Y-80250000D01*
X114150000Y-77250000D02*
X114600000Y-77700000D01*
X92050000Y-52350000D02*
X92050000Y-54150000D01*
X91950000Y-52250000D02*
X92050000Y-52350000D01*
X110637500Y-74287500D02*
X110000000Y-73650000D01*
X92050000Y-54150000D02*
X91900000Y-54300000D01*
X91950000Y-50550000D02*
X91950000Y-52250000D01*
X113500000Y-80350000D02*
X99460000Y-80350000D01*
D16*
X85000000Y-51150000D02*
X84800000Y-51350000D01*
X87300000Y-67450000D02*
X87350000Y-67450000D01*
X84800000Y-64950000D02*
X85050000Y-65200000D01*
X87350000Y-67450000D02*
X90150000Y-67450000D01*
X84800000Y-51350000D02*
X84800000Y-64950000D01*
X87350000Y-66550000D02*
X90150000Y-66550000D01*
X87350000Y-65650000D02*
X90150000Y-65650000D01*
X87350000Y-64750000D02*
X90150000Y-64750000D01*
X87350000Y-63850000D02*
X90150000Y-63850000D01*
X87350000Y-62950000D02*
X90150000Y-62950000D01*
X87350000Y-62050000D02*
X90150000Y-62050000D01*
X87350000Y-61150000D02*
X90150000Y-61150000D01*
X85650000Y-49350000D02*
X87600000Y-51300000D01*
X84950000Y-80100000D02*
X84400000Y-79550000D01*
X91950000Y-80100000D02*
X84950000Y-80100000D01*
X92200000Y-77600000D02*
X92200000Y-79850000D01*
X92200000Y-79850000D02*
X91950000Y-80100000D01*
X92550000Y-77250000D02*
X92200000Y-77600000D01*
X87600000Y-51300000D02*
X90200000Y-51300000D01*
X84400000Y-79550000D02*
X84400000Y-49650000D01*
X84700000Y-49350000D02*
X85650000Y-49350000D01*
X84400000Y-49650000D02*
X84700000Y-49350000D01*
X87450000Y-50600000D02*
X89600000Y-50600000D01*
X94600000Y-77500000D02*
X94600000Y-79150000D01*
X84500000Y-49000000D02*
X85850000Y-49000000D01*
X85850000Y-49000000D02*
X87450000Y-50600000D01*
X84000000Y-79747487D02*
X84000000Y-49500000D01*
X84752513Y-80500000D02*
X84000000Y-79747487D01*
X84000000Y-49500000D02*
X84500000Y-49000000D01*
X93250000Y-80500000D02*
X84752513Y-80500000D01*
X94600000Y-79150000D02*
X93250000Y-80500000D01*
G04 #@! TA.AperFunction,Conductor*
G36*
X95560500Y-49013263D02*
G01*
X95596737Y-49049500D01*
X95610000Y-49099000D01*
X95610000Y-49749999D01*
X95610001Y-49750000D01*
X97111000Y-49750000D01*
X97160500Y-49763263D01*
X97196737Y-49799500D01*
X97210000Y-49849000D01*
X97210000Y-51349999D01*
X97210001Y-51350000D01*
X97857826Y-51350000D01*
X97917376Y-51343598D01*
X98052089Y-51293353D01*
X98167188Y-51207188D01*
X98253353Y-51092089D01*
X98303598Y-50957376D01*
X98310000Y-50897826D01*
X98310000Y-50363363D01*
X98325621Y-50309988D01*
X98367553Y-50273457D01*
X98422564Y-50265297D01*
X98473296Y-50288083D01*
X98503737Y-50334625D01*
X98512455Y-50363363D01*
X98524768Y-50403954D01*
X98622315Y-50586450D01*
X98753590Y-50746410D01*
X98913550Y-50877685D01*
X99096046Y-50975232D01*
X99294066Y-51035300D01*
X99500000Y-51055583D01*
X99705934Y-51035300D01*
X99903954Y-50975232D01*
X100086450Y-50877685D01*
X100246410Y-50746410D01*
X100377685Y-50586450D01*
X100475232Y-50403954D01*
X100535300Y-50205934D01*
X100555583Y-50000000D01*
X100535300Y-49794066D01*
X100475232Y-49596046D01*
X100377685Y-49413550D01*
X100246410Y-49253590D01*
X100151291Y-49175528D01*
X100118682Y-49125404D01*
X100120883Y-49065648D01*
X100157091Y-49018059D01*
X100214096Y-49000000D01*
X101325904Y-49000000D01*
X101382909Y-49018059D01*
X101419117Y-49065648D01*
X101421318Y-49125404D01*
X101388709Y-49175528D01*
X101293590Y-49253590D01*
X101162315Y-49413549D01*
X101064767Y-49596047D01*
X101004699Y-49794066D01*
X100984416Y-50000000D01*
X101004699Y-50205933D01*
X101052455Y-50363363D01*
X101064768Y-50403954D01*
X101162315Y-50586450D01*
X101293590Y-50746410D01*
X101453550Y-50877685D01*
X101636046Y-50975232D01*
X101834066Y-51035300D01*
X102040000Y-51055583D01*
X102245934Y-51035300D01*
X102443954Y-50975232D01*
X102626450Y-50877685D01*
X102786410Y-50746410D01*
X102917685Y-50586450D01*
X103015232Y-50403954D01*
X103075300Y-50205934D01*
X103095583Y-50000000D01*
X103075300Y-49794066D01*
X103015232Y-49596046D01*
X102917685Y-49413550D01*
X102786410Y-49253590D01*
X102691291Y-49175528D01*
X102658682Y-49125404D01*
X102660883Y-49065648D01*
X102697091Y-49018059D01*
X102754096Y-49000000D01*
X114901000Y-49000000D01*
X114950500Y-49013263D01*
X114986737Y-49049500D01*
X115000000Y-49099000D01*
X115000000Y-77223889D01*
X114983315Y-77278890D01*
X114938886Y-77315353D01*
X114881686Y-77320987D01*
X114830996Y-77293893D01*
X114490366Y-76953263D01*
X114482968Y-76944983D01*
X114459878Y-76916028D01*
X114412259Y-76883562D01*
X114409241Y-76881421D01*
X114386695Y-76864781D01*
X114362882Y-76847207D01*
X114362880Y-76847206D01*
X114360094Y-76845150D01*
X114350976Y-76840547D01*
X114292596Y-76822539D01*
X114289081Y-76821382D01*
X114231439Y-76801213D01*
X114221353Y-76799500D01*
X114217902Y-76799500D01*
X114160284Y-76799500D01*
X114156582Y-76799431D01*
X114084078Y-76796718D01*
X114084114Y-76795737D01*
X114056139Y-76796009D01*
X114012683Y-76772592D01*
X113985936Y-76731102D01*
X113982548Y-76681855D01*
X114003361Y-76637097D01*
X114055185Y-76573950D01*
X114152732Y-76391454D01*
X114212800Y-76193434D01*
X114233083Y-75987500D01*
X114212800Y-75781566D01*
X114152732Y-75583546D01*
X114055185Y-75401050D01*
X113923910Y-75241090D01*
X113763950Y-75109815D01*
X113581454Y-75012268D01*
X113581453Y-75012267D01*
X113581452Y-75012267D01*
X113383433Y-74952199D01*
X113177500Y-74931916D01*
X112971566Y-74952199D01*
X112773547Y-75012267D01*
X112591049Y-75109815D01*
X112431090Y-75241090D01*
X112299815Y-75401049D01*
X112202267Y-75583547D01*
X112142199Y-75781566D01*
X112121916Y-75987500D01*
X112142199Y-76193433D01*
X112202267Y-76391452D01*
X112299815Y-76573950D01*
X112352129Y-76637695D01*
X112373856Y-76688381D01*
X112365096Y-76742828D01*
X112328566Y-76784140D01*
X112275601Y-76799500D01*
X112127611Y-76799500D01*
X112089725Y-76791964D01*
X112057607Y-76770504D01*
X111670010Y-76382907D01*
X111643981Y-76336958D01*
X111645277Y-76284164D01*
X111672800Y-76193434D01*
X111693083Y-75987500D01*
X111672800Y-75781566D01*
X111612732Y-75583546D01*
X111515185Y-75401050D01*
X111383910Y-75241090D01*
X111233623Y-75117753D01*
X111223948Y-75109813D01*
X111140332Y-75065120D01*
X111102085Y-75028706D01*
X111088000Y-74977810D01*
X111088000Y-74318364D01*
X111088622Y-74307281D01*
X111088838Y-74305360D01*
X111092770Y-74270465D01*
X111082053Y-74213827D01*
X111081433Y-74210175D01*
X111072331Y-74149784D01*
X111069144Y-74140096D01*
X111067523Y-74137029D01*
X111067523Y-74137028D01*
X111040577Y-74086046D01*
X111038936Y-74082796D01*
X111013925Y-74030858D01*
X111013923Y-74030856D01*
X111012421Y-74027736D01*
X111006515Y-74019412D01*
X110963311Y-73976207D01*
X110960742Y-73973540D01*
X110919206Y-73928773D01*
X110904896Y-73917793D01*
X110566601Y-73579498D01*
X110547814Y-73553279D01*
X110538452Y-73522413D01*
X110536330Y-73506290D01*
X110517840Y-73461652D01*
X110480861Y-73372375D01*
X110441408Y-73320960D01*
X110421420Y-73270307D01*
X110431244Y-73216743D01*
X110467909Y-73176478D01*
X110520322Y-73161696D01*
X110572621Y-73176868D01*
X110650478Y-73225789D01*
X110740757Y-73257379D01*
X110820741Y-73285367D01*
X110820742Y-73285367D01*
X110820745Y-73285368D01*
X111000000Y-73305565D01*
X111179255Y-73285368D01*
X111349522Y-73225789D01*
X111502262Y-73129816D01*
X111629816Y-73002262D01*
X111725789Y-72849522D01*
X111785368Y-72679255D01*
X111805565Y-72500000D01*
X111785368Y-72320745D01*
X111725789Y-72150478D01*
X111629816Y-71997738D01*
X111502262Y-71870184D01*
X111349522Y-71774211D01*
X111341815Y-71771514D01*
X111179258Y-71714632D01*
X111000000Y-71694435D01*
X110820741Y-71714632D01*
X110650480Y-71774210D01*
X110497739Y-71870183D01*
X110370183Y-71997739D01*
X110274210Y-72150480D01*
X110214632Y-72320741D01*
X110194435Y-72499999D01*
X110214632Y-72679258D01*
X110271514Y-72841815D01*
X110274211Y-72849522D01*
X110370183Y-73002260D01*
X110376119Y-73011707D01*
X110375119Y-73012335D01*
X110394840Y-73047549D01*
X110392730Y-73101253D01*
X110362871Y-73145940D01*
X110314062Y-73168441D01*
X110260690Y-73162124D01*
X110143710Y-73113669D01*
X110000000Y-73094750D01*
X109856289Y-73113669D01*
X109739309Y-73162124D01*
X109685935Y-73168441D01*
X109637126Y-73145938D01*
X109607268Y-73101248D01*
X109605161Y-73047543D01*
X109624881Y-73012335D01*
X109623881Y-73011707D01*
X109629817Y-73002260D01*
X109725789Y-72849522D01*
X109785368Y-72679255D01*
X109805565Y-72500000D01*
X109785368Y-72320745D01*
X109725789Y-72150478D01*
X109629816Y-71997738D01*
X109502262Y-71870184D01*
X109349522Y-71774211D01*
X109341815Y-71771514D01*
X109179258Y-71714632D01*
X109000000Y-71694435D01*
X108820741Y-71714632D01*
X108650480Y-71774210D01*
X108497739Y-71870183D01*
X108370183Y-71997739D01*
X108274210Y-72150480D01*
X108214632Y-72320741D01*
X108194435Y-72499999D01*
X108214632Y-72679258D01*
X108271514Y-72841815D01*
X108274211Y-72849522D01*
X108370184Y-73002262D01*
X108497738Y-73129816D01*
X108650478Y-73225789D01*
X108740757Y-73257379D01*
X108820741Y-73285367D01*
X108820742Y-73285367D01*
X108820745Y-73285368D01*
X109000000Y-73305565D01*
X109179255Y-73285368D01*
X109349522Y-73225789D01*
X109427379Y-73176868D01*
X109479676Y-73161696D01*
X109532089Y-73176477D01*
X109568755Y-73216742D01*
X109578579Y-73270306D01*
X109558589Y-73320962D01*
X109519139Y-73372374D01*
X109463669Y-73506290D01*
X109444750Y-73649999D01*
X109463669Y-73793709D01*
X109502892Y-73888401D01*
X109519139Y-73927625D01*
X109521964Y-73931306D01*
X109607378Y-74042621D01*
X109657306Y-74080932D01*
X109722375Y-74130861D01*
X109817067Y-74170083D01*
X109856290Y-74186330D01*
X109860992Y-74186948D01*
X109872414Y-74188452D01*
X109903279Y-74197814D01*
X109929498Y-74216601D01*
X110158004Y-74445107D01*
X110179464Y-74477225D01*
X110187000Y-74515111D01*
X110187000Y-74977810D01*
X110172915Y-75028706D01*
X110134668Y-75065120D01*
X110051051Y-75109813D01*
X109891090Y-75241090D01*
X109759815Y-75401049D01*
X109662266Y-75583547D01*
X109616680Y-75733827D01*
X109590090Y-75776901D01*
X109545683Y-75801200D01*
X109495070Y-75800372D01*
X109451483Y-75774633D01*
X109426316Y-75730712D01*
X109370929Y-75524004D01*
X109271101Y-75309924D01*
X109135612Y-75116425D01*
X108968574Y-74949387D01*
X108775076Y-74813898D01*
X108560995Y-74714070D01*
X108347500Y-74656864D01*
X108347500Y-76138500D01*
X108334237Y-76188000D01*
X108298000Y-76224237D01*
X108248500Y-76237500D01*
X107946500Y-76237500D01*
X107897000Y-76224237D01*
X107860763Y-76188000D01*
X107847500Y-76138500D01*
X107847500Y-74656864D01*
X107634005Y-74714070D01*
X107419924Y-74813898D01*
X107226425Y-74949387D01*
X107059387Y-75116425D01*
X106923898Y-75309924D01*
X106824070Y-75524004D01*
X106802627Y-75604033D01*
X106773244Y-75651981D01*
X106722487Y-75676191D01*
X106666733Y-75668851D01*
X106623972Y-75632329D01*
X106608000Y-75578410D01*
X106608000Y-75117753D01*
X106606421Y-75109813D01*
X106596367Y-75059269D01*
X106566892Y-75015157D01*
X106552052Y-74992947D01*
X106485731Y-74948633D01*
X106485730Y-74948632D01*
X106427248Y-74937000D01*
X104687752Y-74937000D01*
X104658510Y-74942816D01*
X104629268Y-74948633D01*
X104562947Y-74992947D01*
X104518633Y-75059268D01*
X104507000Y-75117753D01*
X104507000Y-76857247D01*
X104518633Y-76915731D01*
X104562947Y-76982052D01*
X104582740Y-76995277D01*
X104629269Y-77026367D01*
X104687752Y-77038000D01*
X106427247Y-77038000D01*
X106427248Y-77038000D01*
X106485731Y-77026367D01*
X106552052Y-76982052D01*
X106596367Y-76915731D01*
X106608000Y-76857248D01*
X106608000Y-76396590D01*
X106623972Y-76342671D01*
X106666733Y-76306149D01*
X106722487Y-76298809D01*
X106773244Y-76323019D01*
X106802627Y-76370967D01*
X106824070Y-76450995D01*
X106923898Y-76665076D01*
X107059387Y-76858574D01*
X107226425Y-77025612D01*
X107419923Y-77161101D01*
X107634004Y-77260929D01*
X107840712Y-77316316D01*
X107884633Y-77341483D01*
X107910372Y-77385070D01*
X107911200Y-77435683D01*
X107886901Y-77480090D01*
X107843827Y-77506680D01*
X107693547Y-77552266D01*
X107511049Y-77649815D01*
X107351090Y-77781090D01*
X107219815Y-77941049D01*
X107122267Y-78123547D01*
X107062199Y-78321566D01*
X107041916Y-78527499D01*
X107062199Y-78733433D01*
X107114091Y-78904498D01*
X107122268Y-78931454D01*
X107219815Y-79113950D01*
X107351090Y-79273910D01*
X107511050Y-79405185D01*
X107693546Y-79502732D01*
X107891566Y-79562800D01*
X108097500Y-79583083D01*
X108303434Y-79562800D01*
X108501454Y-79502732D01*
X108683950Y-79405185D01*
X108843910Y-79273910D01*
X108975185Y-79113950D01*
X109072732Y-78931454D01*
X109132800Y-78733434D01*
X109153083Y-78527500D01*
X109153083Y-78527499D01*
X109581916Y-78527499D01*
X109602199Y-78733433D01*
X109654091Y-78904498D01*
X109662268Y-78931454D01*
X109759815Y-79113950D01*
X109891090Y-79273910D01*
X110051050Y-79405185D01*
X110233546Y-79502732D01*
X110431566Y-79562800D01*
X110637500Y-79583083D01*
X110843434Y-79562800D01*
X111041454Y-79502732D01*
X111223950Y-79405185D01*
X111383910Y-79273910D01*
X111515185Y-79113950D01*
X111612732Y-78931454D01*
X111672800Y-78733434D01*
X111693083Y-78527500D01*
X111672800Y-78321566D01*
X111612732Y-78123546D01*
X111515185Y-77941050D01*
X111383910Y-77781090D01*
X111223950Y-77649815D01*
X111041454Y-77552268D01*
X111041453Y-77552267D01*
X111041452Y-77552267D01*
X110843433Y-77492199D01*
X110637500Y-77471916D01*
X110431566Y-77492199D01*
X110233547Y-77552267D01*
X110051049Y-77649815D01*
X109891090Y-77781090D01*
X109759815Y-77941049D01*
X109662267Y-78123547D01*
X109602199Y-78321566D01*
X109581916Y-78527499D01*
X109153083Y-78527499D01*
X109132800Y-78321566D01*
X109072732Y-78123546D01*
X108975185Y-77941050D01*
X108843910Y-77781090D01*
X108683950Y-77649815D01*
X108501454Y-77552268D01*
X108501453Y-77552267D01*
X108501452Y-77552267D01*
X108351172Y-77506680D01*
X108308098Y-77480090D01*
X108283799Y-77435684D01*
X108284627Y-77385070D01*
X108310366Y-77341483D01*
X108354287Y-77316316D01*
X108560995Y-77260929D01*
X108775076Y-77161101D01*
X108968574Y-77025612D01*
X109135612Y-76858574D01*
X109271101Y-76665076D01*
X109370929Y-76450995D01*
X109426316Y-76244287D01*
X109451483Y-76200366D01*
X109495070Y-76174627D01*
X109545684Y-76173799D01*
X109590090Y-76198098D01*
X109616680Y-76241172D01*
X109656053Y-76370967D01*
X109662268Y-76391454D01*
X109759815Y-76573950D01*
X109891090Y-76733910D01*
X110051050Y-76865185D01*
X110233546Y-76962732D01*
X110431566Y-77022800D01*
X110637500Y-77043083D01*
X110843434Y-77022800D01*
X110934165Y-76995276D01*
X110986957Y-76993981D01*
X111032906Y-77020010D01*
X111559628Y-77546732D01*
X111567025Y-77555010D01*
X111590121Y-77583971D01*
X111637744Y-77616440D01*
X111640762Y-77618581D01*
X111653160Y-77627731D01*
X111687118Y-77652793D01*
X111687120Y-77652793D01*
X111689909Y-77654852D01*
X111699019Y-77659451D01*
X111702325Y-77660470D01*
X111702327Y-77660472D01*
X111757425Y-77677466D01*
X111760925Y-77678618D01*
X111815301Y-77697646D01*
X111815302Y-77697646D01*
X111818569Y-77698789D01*
X111828637Y-77700500D01*
X111832098Y-77700500D01*
X111889700Y-77700500D01*
X111893402Y-77700569D01*
X111898465Y-77700758D01*
X111951010Y-77702725D01*
X111951010Y-77702724D01*
X111954464Y-77702854D01*
X111972348Y-77700500D01*
X112287911Y-77700500D01*
X112340876Y-77715860D01*
X112377406Y-77757172D01*
X112386166Y-77811619D01*
X112364439Y-77862305D01*
X112299815Y-77941049D01*
X112202267Y-78123547D01*
X112142199Y-78321566D01*
X112121916Y-78527499D01*
X112142199Y-78733433D01*
X112194091Y-78904498D01*
X112202268Y-78931454D01*
X112299815Y-79113950D01*
X112431090Y-79273910D01*
X112591050Y-79405185D01*
X112773546Y-79502732D01*
X112961937Y-79559879D01*
X112971566Y-79562800D01*
X113177500Y-79583083D01*
X113383429Y-79562801D01*
X113383431Y-79562800D01*
X113383434Y-79562800D01*
X113387996Y-79561415D01*
X113439844Y-79559888D01*
X113485350Y-79584788D01*
X113512018Y-79629279D01*
X113512527Y-79681149D01*
X113486739Y-79726156D01*
X113342393Y-79870503D01*
X113310275Y-79891964D01*
X113272389Y-79899500D01*
X99833763Y-79899500D01*
X99789977Y-79889291D01*
X99755222Y-79860769D01*
X99752619Y-79857377D01*
X99637624Y-79769138D01*
X99503709Y-79713669D01*
X99360000Y-79694750D01*
X99216290Y-79713669D01*
X99082374Y-79769139D01*
X99069469Y-79779042D01*
X99041024Y-79794246D01*
X99009202Y-79799500D01*
X98500111Y-79799500D01*
X98462225Y-79791964D01*
X98430107Y-79770504D01*
X97564101Y-78904498D01*
X97545314Y-78878279D01*
X97535952Y-78847413D01*
X97533830Y-78831290D01*
X97517583Y-78792067D01*
X97478361Y-78697375D01*
X97428432Y-78632306D01*
X97390121Y-78582378D01*
X97318600Y-78527499D01*
X104501916Y-78527499D01*
X104522199Y-78733433D01*
X104574091Y-78904498D01*
X104582268Y-78931454D01*
X104679815Y-79113950D01*
X104811090Y-79273910D01*
X104971050Y-79405185D01*
X105153546Y-79502732D01*
X105351566Y-79562800D01*
X105557500Y-79583083D01*
X105763434Y-79562800D01*
X105961454Y-79502732D01*
X106143950Y-79405185D01*
X106303910Y-79273910D01*
X106435185Y-79113950D01*
X106532732Y-78931454D01*
X106592800Y-78733434D01*
X106613083Y-78527500D01*
X106592800Y-78321566D01*
X106532732Y-78123546D01*
X106435185Y-77941050D01*
X106303910Y-77781090D01*
X106143950Y-77649815D01*
X105961454Y-77552268D01*
X105961453Y-77552267D01*
X105961452Y-77552267D01*
X105763433Y-77492199D01*
X105557500Y-77471916D01*
X105351566Y-77492199D01*
X105153547Y-77552267D01*
X104971049Y-77649815D01*
X104811090Y-77781090D01*
X104679815Y-77941049D01*
X104582267Y-78123547D01*
X104522199Y-78321566D01*
X104501916Y-78527499D01*
X97318600Y-78527499D01*
X97275125Y-78494139D01*
X97235901Y-78477892D01*
X97141209Y-78438669D01*
X96997500Y-78419750D01*
X96853790Y-78438669D01*
X96719875Y-78494139D01*
X96604878Y-78582378D01*
X96516639Y-78697375D01*
X96461169Y-78831290D01*
X96442250Y-78974999D01*
X96461169Y-79118709D01*
X96494423Y-79198990D01*
X96516639Y-79252625D01*
X96532971Y-79273909D01*
X96604878Y-79367621D01*
X96645964Y-79399147D01*
X96719875Y-79455861D01*
X96793115Y-79486197D01*
X96853789Y-79511330D01*
X96862377Y-79512460D01*
X96869913Y-79513452D01*
X96900778Y-79522814D01*
X96926997Y-79541601D01*
X97417348Y-80031952D01*
X97716393Y-80330996D01*
X97743487Y-80381686D01*
X97737853Y-80438886D01*
X97701390Y-80483315D01*
X97646389Y-80500000D01*
X93913978Y-80500000D01*
X93858977Y-80483315D01*
X93822514Y-80438886D01*
X93816880Y-80381686D01*
X93843974Y-80330996D01*
X94304467Y-79870503D01*
X94766405Y-79408564D01*
X94779496Y-79399147D01*
X94784225Y-79393959D01*
X94784228Y-79393958D01*
X94815877Y-79359239D01*
X94818994Y-79355975D01*
X94832174Y-79342797D01*
X94832238Y-79342702D01*
X94840745Y-79331961D01*
X94859916Y-79310933D01*
X94863466Y-79301766D01*
X94874104Y-79281585D01*
X94879656Y-79273481D01*
X94886169Y-79245785D01*
X94890221Y-79232702D01*
X94900500Y-79206173D01*
X94900500Y-79196348D01*
X94903130Y-79173679D01*
X94905379Y-79164119D01*
X94901448Y-79135946D01*
X94900500Y-79122269D01*
X94900500Y-78012129D01*
X94910710Y-77968342D01*
X94939230Y-77933588D01*
X94992621Y-77892621D01*
X95080861Y-77777625D01*
X95136330Y-77643709D01*
X95155250Y-77500000D01*
X95136330Y-77356291D01*
X95130196Y-77341483D01*
X95092303Y-77250000D01*
X95080861Y-77222375D01*
X95030932Y-77157306D01*
X94992621Y-77107378D01*
X94908829Y-77043083D01*
X94877625Y-77019139D01*
X94838401Y-77002892D01*
X94743709Y-76963669D01*
X94600000Y-76944750D01*
X94456290Y-76963669D01*
X94322375Y-77019139D01*
X94207378Y-77107378D01*
X94119139Y-77222375D01*
X94063669Y-77356290D01*
X94046256Y-77488559D01*
X94029044Y-77532642D01*
X93993337Y-77563699D01*
X93947294Y-77574634D01*
X93901436Y-77562948D01*
X93881453Y-77552267D01*
X93683433Y-77492199D01*
X93477500Y-77471916D01*
X93271569Y-77492198D01*
X93212050Y-77510253D01*
X93163204Y-77512451D01*
X93119264Y-77491005D01*
X93090946Y-77451144D01*
X93085160Y-77402593D01*
X93086499Y-77392422D01*
X93105250Y-77250000D01*
X93087217Y-77113029D01*
X93093004Y-77064479D01*
X93121321Y-77024618D01*
X93165262Y-77003172D01*
X93214108Y-77005371D01*
X93259497Y-77019139D01*
X93271566Y-77022800D01*
X93477500Y-77043083D01*
X93683434Y-77022800D01*
X93881454Y-76962732D01*
X94063950Y-76865185D01*
X94223910Y-76733910D01*
X94355185Y-76573950D01*
X94452732Y-76391454D01*
X94512800Y-76193434D01*
X94533083Y-75987500D01*
X94512800Y-75781566D01*
X94452732Y-75583546D01*
X94355185Y-75401050D01*
X94223910Y-75241090D01*
X94063950Y-75109815D01*
X93881454Y-75012268D01*
X93881453Y-75012267D01*
X93881452Y-75012267D01*
X93683433Y-74952199D01*
X93477500Y-74931916D01*
X93271566Y-74952199D01*
X93073547Y-75012267D01*
X92891049Y-75109815D01*
X92731090Y-75241090D01*
X92599815Y-75401049D01*
X92502267Y-75583547D01*
X92442199Y-75781566D01*
X92421916Y-75987500D01*
X92442199Y-76193433D01*
X92502267Y-76391452D01*
X92589434Y-76554529D01*
X92601121Y-76600388D01*
X92590186Y-76646431D01*
X92559130Y-76682139D01*
X92515047Y-76699351D01*
X92406289Y-76713669D01*
X92272375Y-76769139D01*
X92157378Y-76857378D01*
X92069139Y-76972375D01*
X92013669Y-77106290D01*
X91994750Y-77250000D01*
X92003533Y-77316719D01*
X91999127Y-77361460D01*
X91975389Y-77399639D01*
X91967823Y-77407205D01*
X91967754Y-77407307D01*
X91959256Y-77418034D01*
X91940083Y-77439067D01*
X91936530Y-77448238D01*
X91925895Y-77468414D01*
X91920343Y-77476519D01*
X91913830Y-77504207D01*
X91909777Y-77517296D01*
X91899500Y-77543826D01*
X91899500Y-77553652D01*
X91896870Y-77576317D01*
X91895070Y-77583971D01*
X91894621Y-77585881D01*
X91898551Y-77614053D01*
X91899500Y-77627731D01*
X91899500Y-77767101D01*
X91881441Y-77824106D01*
X91833852Y-77860314D01*
X91774096Y-77862515D01*
X91723972Y-77829906D01*
X91698389Y-77798733D01*
X91683910Y-77781090D01*
X91523950Y-77649815D01*
X91341454Y-77552268D01*
X91341453Y-77552267D01*
X91341452Y-77552267D01*
X91143433Y-77492199D01*
X90937500Y-77471916D01*
X90731566Y-77492199D01*
X90533547Y-77552267D01*
X90351049Y-77649815D01*
X90191090Y-77781090D01*
X90059815Y-77941049D01*
X89962267Y-78123547D01*
X89902199Y-78321566D01*
X89881916Y-78527499D01*
X89902199Y-78733433D01*
X89954091Y-78904498D01*
X89962268Y-78931454D01*
X90059815Y-79113950D01*
X90191090Y-79273910D01*
X90351050Y-79405185D01*
X90533546Y-79502732D01*
X90731566Y-79562800D01*
X90937500Y-79583083D01*
X91143434Y-79562800D01*
X91341454Y-79502732D01*
X91523950Y-79405185D01*
X91683910Y-79273910D01*
X91723972Y-79225093D01*
X91774096Y-79192485D01*
X91833852Y-79194686D01*
X91881441Y-79230894D01*
X91899500Y-79287899D01*
X91899500Y-79684521D01*
X91891965Y-79722405D01*
X91870506Y-79754522D01*
X91854528Y-79770501D01*
X91822409Y-79791963D01*
X91784522Y-79799500D01*
X85115479Y-79799500D01*
X85077593Y-79791964D01*
X85045476Y-79770504D01*
X84729497Y-79454526D01*
X84708036Y-79422408D01*
X84700500Y-79384522D01*
X84700500Y-78986621D01*
X84714089Y-78936561D01*
X84751126Y-78900244D01*
X84801444Y-78887640D01*
X84851227Y-78902209D01*
X84886810Y-78939952D01*
X84952793Y-79063396D01*
X84979815Y-79113950D01*
X85111090Y-79273910D01*
X85271050Y-79405185D01*
X85453546Y-79502732D01*
X85651566Y-79562800D01*
X85857500Y-79583083D01*
X86063434Y-79562800D01*
X86261454Y-79502732D01*
X86443950Y-79405185D01*
X86603910Y-79273910D01*
X86735185Y-79113950D01*
X86832732Y-78931454D01*
X86892800Y-78733434D01*
X86913083Y-78527500D01*
X86913083Y-78527499D01*
X87341916Y-78527499D01*
X87362199Y-78733433D01*
X87414091Y-78904498D01*
X87422268Y-78931454D01*
X87519815Y-79113950D01*
X87651090Y-79273910D01*
X87811050Y-79405185D01*
X87993546Y-79502732D01*
X88191566Y-79562800D01*
X88397500Y-79583083D01*
X88603434Y-79562800D01*
X88801454Y-79502732D01*
X88983950Y-79405185D01*
X89143910Y-79273910D01*
X89275185Y-79113950D01*
X89372732Y-78931454D01*
X89432800Y-78733434D01*
X89453083Y-78527500D01*
X89432800Y-78321566D01*
X89372732Y-78123546D01*
X89275185Y-77941050D01*
X89143910Y-77781090D01*
X88983950Y-77649815D01*
X88801454Y-77552268D01*
X88801453Y-77552267D01*
X88801452Y-77552267D01*
X88603433Y-77492199D01*
X88397500Y-77471916D01*
X88191566Y-77492199D01*
X87993547Y-77552267D01*
X87811049Y-77649815D01*
X87651090Y-77781090D01*
X87519815Y-77941049D01*
X87422267Y-78123547D01*
X87362199Y-78321566D01*
X87341916Y-78527499D01*
X86913083Y-78527499D01*
X86892800Y-78321566D01*
X86832732Y-78123546D01*
X86735185Y-77941050D01*
X86603910Y-77781090D01*
X86443950Y-77649815D01*
X86261454Y-77552268D01*
X86261453Y-77552267D01*
X86261452Y-77552267D01*
X86063433Y-77492199D01*
X85857500Y-77471916D01*
X85651566Y-77492199D01*
X85453547Y-77552267D01*
X85271049Y-77649815D01*
X85111090Y-77781090D01*
X84979815Y-77941049D01*
X84886810Y-78115048D01*
X84851227Y-78152791D01*
X84801444Y-78167360D01*
X84751126Y-78154756D01*
X84714089Y-78118439D01*
X84700500Y-78068379D01*
X84700500Y-77058724D01*
X84714585Y-77007828D01*
X84752832Y-76971414D01*
X84804358Y-76959843D01*
X84854502Y-76976409D01*
X84882740Y-76995277D01*
X84929269Y-77026367D01*
X84987752Y-77038000D01*
X86727247Y-77038000D01*
X86727248Y-77038000D01*
X86785731Y-77026367D01*
X86852052Y-76982052D01*
X86896367Y-76915731D01*
X86908000Y-76857248D01*
X86908000Y-75987500D01*
X87341916Y-75987500D01*
X87362199Y-76193433D01*
X87407470Y-76342671D01*
X87422268Y-76391454D01*
X87519815Y-76573950D01*
X87651090Y-76733910D01*
X87811050Y-76865185D01*
X87993546Y-76962732D01*
X88191566Y-77022800D01*
X88397500Y-77043083D01*
X88603434Y-77022800D01*
X88801454Y-76962732D01*
X88983950Y-76865185D01*
X89143910Y-76733910D01*
X89275185Y-76573950D01*
X89372732Y-76391454D01*
X89432800Y-76193434D01*
X89453083Y-75987500D01*
X89881916Y-75987500D01*
X89902199Y-76193433D01*
X89947470Y-76342671D01*
X89962268Y-76391454D01*
X90059815Y-76573950D01*
X90191090Y-76733910D01*
X90351050Y-76865185D01*
X90533546Y-76962732D01*
X90731566Y-77022800D01*
X90937500Y-77043083D01*
X91143434Y-77022800D01*
X91341454Y-76962732D01*
X91523950Y-76865185D01*
X91683910Y-76733910D01*
X91815185Y-76573950D01*
X91912732Y-76391454D01*
X91972800Y-76193434D01*
X91993083Y-75987500D01*
X91972800Y-75781566D01*
X91912732Y-75583546D01*
X91815185Y-75401050D01*
X91683910Y-75241090D01*
X91523950Y-75109815D01*
X91341454Y-75012268D01*
X91341453Y-75012267D01*
X91341452Y-75012267D01*
X91143433Y-74952199D01*
X90937500Y-74931916D01*
X90731566Y-74952199D01*
X90533547Y-75012267D01*
X90351049Y-75109815D01*
X90191090Y-75241090D01*
X90059815Y-75401049D01*
X89962267Y-75583547D01*
X89902199Y-75781566D01*
X89881916Y-75987500D01*
X89453083Y-75987500D01*
X89432800Y-75781566D01*
X89372732Y-75583546D01*
X89275185Y-75401050D01*
X89143910Y-75241090D01*
X88983950Y-75109815D01*
X88801454Y-75012268D01*
X88801453Y-75012267D01*
X88801452Y-75012267D01*
X88603433Y-74952199D01*
X88397500Y-74931916D01*
X88191566Y-74952199D01*
X87993547Y-75012267D01*
X87811049Y-75109815D01*
X87651090Y-75241090D01*
X87519815Y-75401049D01*
X87422267Y-75583547D01*
X87362199Y-75781566D01*
X87341916Y-75987500D01*
X86908000Y-75987500D01*
X86908000Y-75117752D01*
X86896367Y-75059269D01*
X86866892Y-75015157D01*
X86852052Y-74992947D01*
X86785731Y-74948633D01*
X86785730Y-74948632D01*
X86727248Y-74937000D01*
X84987752Y-74937000D01*
X84958510Y-74942816D01*
X84929268Y-74948633D01*
X84854502Y-74998591D01*
X84804358Y-75015157D01*
X84752832Y-75003586D01*
X84714585Y-74967172D01*
X84700500Y-74916276D01*
X84700500Y-72499999D01*
X88194435Y-72499999D01*
X88214632Y-72679258D01*
X88271514Y-72841815D01*
X88274211Y-72849522D01*
X88370184Y-73002262D01*
X88497738Y-73129816D01*
X88650478Y-73225789D01*
X88740757Y-73257379D01*
X88820741Y-73285367D01*
X88820742Y-73285367D01*
X88820745Y-73285368D01*
X89000000Y-73305565D01*
X89179255Y-73285368D01*
X89349522Y-73225789D01*
X89502262Y-73129816D01*
X89629816Y-73002262D01*
X89725789Y-72849522D01*
X89785368Y-72679255D01*
X89805565Y-72500000D01*
X89805565Y-72499999D01*
X90194435Y-72499999D01*
X90214632Y-72679258D01*
X90271514Y-72841815D01*
X90274211Y-72849522D01*
X90370184Y-73002262D01*
X90497738Y-73129816D01*
X90650478Y-73225789D01*
X90740757Y-73257379D01*
X90820741Y-73285367D01*
X90820742Y-73285367D01*
X90820745Y-73285368D01*
X91000000Y-73305565D01*
X91179255Y-73285368D01*
X91349522Y-73225789D01*
X91502262Y-73129816D01*
X91629816Y-73002262D01*
X91725789Y-72849522D01*
X91785368Y-72679255D01*
X91805565Y-72500000D01*
X91805565Y-72499999D01*
X92194435Y-72499999D01*
X92214632Y-72679258D01*
X92271514Y-72841815D01*
X92274211Y-72849522D01*
X92370184Y-73002262D01*
X92497738Y-73129816D01*
X92650478Y-73225789D01*
X92740757Y-73257379D01*
X92820741Y-73285367D01*
X92820742Y-73285367D01*
X92820745Y-73285368D01*
X93000000Y-73305565D01*
X93179255Y-73285368D01*
X93349522Y-73225789D01*
X93502262Y-73129816D01*
X93629816Y-73002262D01*
X93725789Y-72849522D01*
X93785368Y-72679255D01*
X93805565Y-72500000D01*
X93805565Y-72499999D01*
X94194435Y-72499999D01*
X94214632Y-72679258D01*
X94271514Y-72841815D01*
X94274211Y-72849522D01*
X94370184Y-73002262D01*
X94497738Y-73129816D01*
X94650478Y-73225789D01*
X94740757Y-73257379D01*
X94820741Y-73285367D01*
X94820742Y-73285367D01*
X94820745Y-73285368D01*
X95000000Y-73305565D01*
X95179255Y-73285368D01*
X95349522Y-73225789D01*
X95502262Y-73129816D01*
X95629816Y-73002262D01*
X95725789Y-72849522D01*
X95785368Y-72679255D01*
X95805565Y-72500000D01*
X95805565Y-72499999D01*
X96194435Y-72499999D01*
X96214632Y-72679258D01*
X96271514Y-72841815D01*
X96274211Y-72849522D01*
X96370184Y-73002262D01*
X96497738Y-73129816D01*
X96650478Y-73225789D01*
X96740757Y-73257379D01*
X96820741Y-73285367D01*
X96820742Y-73285367D01*
X96820745Y-73285368D01*
X97000000Y-73305565D01*
X97179255Y-73285368D01*
X97349522Y-73225789D01*
X97502262Y-73129816D01*
X97629816Y-73002262D01*
X97725789Y-72849522D01*
X97785368Y-72679255D01*
X97805565Y-72500000D01*
X97805565Y-72499999D01*
X98194435Y-72499999D01*
X98214632Y-72679258D01*
X98271514Y-72841815D01*
X98274211Y-72849522D01*
X98370184Y-73002262D01*
X98497738Y-73129816D01*
X98650478Y-73225789D01*
X98740757Y-73257379D01*
X98820741Y-73285367D01*
X98820742Y-73285367D01*
X98820745Y-73285368D01*
X99000000Y-73305565D01*
X99179255Y-73285368D01*
X99349522Y-73225789D01*
X99502262Y-73129816D01*
X99629816Y-73002262D01*
X99725789Y-72849522D01*
X99785368Y-72679255D01*
X99805565Y-72500000D01*
X99805565Y-72499999D01*
X100194435Y-72499999D01*
X100214632Y-72679258D01*
X100271514Y-72841815D01*
X100274211Y-72849522D01*
X100370184Y-73002262D01*
X100497738Y-73129816D01*
X100650478Y-73225789D01*
X100740757Y-73257379D01*
X100820741Y-73285367D01*
X100820742Y-73285367D01*
X100820745Y-73285368D01*
X101000000Y-73305565D01*
X101179255Y-73285368D01*
X101349522Y-73225789D01*
X101502262Y-73129816D01*
X101629816Y-73002262D01*
X101725789Y-72849522D01*
X101785368Y-72679255D01*
X101805565Y-72500000D01*
X101805565Y-72499999D01*
X102194435Y-72499999D01*
X102214632Y-72679258D01*
X102271514Y-72841815D01*
X102274211Y-72849522D01*
X102370184Y-73002262D01*
X102497738Y-73129816D01*
X102650478Y-73225789D01*
X102740757Y-73257379D01*
X102820741Y-73285367D01*
X102820742Y-73285367D01*
X102820745Y-73285368D01*
X103000000Y-73305565D01*
X103179255Y-73285368D01*
X103349522Y-73225789D01*
X103502262Y-73129816D01*
X103629816Y-73002262D01*
X103725789Y-72849522D01*
X103785368Y-72679255D01*
X103805565Y-72500000D01*
X103805565Y-72499999D01*
X104194435Y-72499999D01*
X104214632Y-72679258D01*
X104271514Y-72841815D01*
X104274211Y-72849522D01*
X104370184Y-73002262D01*
X104497738Y-73129816D01*
X104650478Y-73225789D01*
X104740757Y-73257379D01*
X104820741Y-73285367D01*
X104820742Y-73285367D01*
X104820745Y-73285368D01*
X105000000Y-73305565D01*
X105179255Y-73285368D01*
X105349522Y-73225789D01*
X105502262Y-73129816D01*
X105629816Y-73002262D01*
X105725789Y-72849522D01*
X105785368Y-72679255D01*
X105805565Y-72500000D01*
X105805565Y-72499999D01*
X106194435Y-72499999D01*
X106214632Y-72679258D01*
X106271514Y-72841815D01*
X106274211Y-72849522D01*
X106370184Y-73002262D01*
X106497738Y-73129816D01*
X106650478Y-73225789D01*
X106740757Y-73257379D01*
X106820741Y-73285367D01*
X106820742Y-73285367D01*
X106820745Y-73285368D01*
X107000000Y-73305565D01*
X107179255Y-73285368D01*
X107349522Y-73225789D01*
X107502262Y-73129816D01*
X107629816Y-73002262D01*
X107725789Y-72849522D01*
X107785368Y-72679255D01*
X107805565Y-72500000D01*
X107785368Y-72320745D01*
X107725789Y-72150478D01*
X107629816Y-71997738D01*
X107502262Y-71870184D01*
X107349522Y-71774211D01*
X107341815Y-71771514D01*
X107179258Y-71714632D01*
X107000000Y-71694435D01*
X106820741Y-71714632D01*
X106650480Y-71774210D01*
X106497739Y-71870183D01*
X106370183Y-71997739D01*
X106274210Y-72150480D01*
X106214632Y-72320741D01*
X106194435Y-72499999D01*
X105805565Y-72499999D01*
X105785368Y-72320745D01*
X105725789Y-72150478D01*
X105629816Y-71997738D01*
X105502262Y-71870184D01*
X105349522Y-71774211D01*
X105341815Y-71771514D01*
X105179258Y-71714632D01*
X105000000Y-71694435D01*
X104820741Y-71714632D01*
X104650480Y-71774210D01*
X104497739Y-71870183D01*
X104370183Y-71997739D01*
X104274210Y-72150480D01*
X104214632Y-72320741D01*
X104194435Y-72499999D01*
X103805565Y-72499999D01*
X103785368Y-72320745D01*
X103725789Y-72150478D01*
X103629816Y-71997738D01*
X103502262Y-71870184D01*
X103349522Y-71774211D01*
X103341815Y-71771514D01*
X103179258Y-71714632D01*
X103000000Y-71694435D01*
X102820741Y-71714632D01*
X102650480Y-71774210D01*
X102497739Y-71870183D01*
X102370183Y-71997739D01*
X102274210Y-72150480D01*
X102214632Y-72320741D01*
X102194435Y-72499999D01*
X101805565Y-72499999D01*
X101785368Y-72320745D01*
X101725789Y-72150478D01*
X101629816Y-71997738D01*
X101502262Y-71870184D01*
X101349522Y-71774211D01*
X101341815Y-71771514D01*
X101179258Y-71714632D01*
X101000000Y-71694435D01*
X100820741Y-71714632D01*
X100650480Y-71774210D01*
X100497739Y-71870183D01*
X100370183Y-71997739D01*
X100274210Y-72150480D01*
X100214632Y-72320741D01*
X100194435Y-72499999D01*
X99805565Y-72499999D01*
X99785368Y-72320745D01*
X99725789Y-72150478D01*
X99629816Y-71997738D01*
X99502262Y-71870184D01*
X99349522Y-71774211D01*
X99341815Y-71771514D01*
X99179258Y-71714632D01*
X99000000Y-71694435D01*
X98820741Y-71714632D01*
X98650480Y-71774210D01*
X98497739Y-71870183D01*
X98370183Y-71997739D01*
X98274210Y-72150480D01*
X98214632Y-72320741D01*
X98194435Y-72499999D01*
X97805565Y-72499999D01*
X97785368Y-72320745D01*
X97725789Y-72150478D01*
X97629816Y-71997738D01*
X97502262Y-71870184D01*
X97349522Y-71774211D01*
X97341815Y-71771514D01*
X97179258Y-71714632D01*
X97000000Y-71694435D01*
X96820741Y-71714632D01*
X96650480Y-71774210D01*
X96497739Y-71870183D01*
X96370183Y-71997739D01*
X96274210Y-72150480D01*
X96214632Y-72320741D01*
X96194435Y-72499999D01*
X95805565Y-72499999D01*
X95785368Y-72320745D01*
X95725789Y-72150478D01*
X95629816Y-71997738D01*
X95502262Y-71870184D01*
X95349522Y-71774211D01*
X95341815Y-71771514D01*
X95179258Y-71714632D01*
X95000000Y-71694435D01*
X94820741Y-71714632D01*
X94650480Y-71774210D01*
X94497739Y-71870183D01*
X94370183Y-71997739D01*
X94274210Y-72150480D01*
X94214632Y-72320741D01*
X94194435Y-72499999D01*
X93805565Y-72499999D01*
X93785368Y-72320745D01*
X93725789Y-72150478D01*
X93629816Y-71997738D01*
X93502262Y-71870184D01*
X93349522Y-71774211D01*
X93341815Y-71771514D01*
X93179258Y-71714632D01*
X93000000Y-71694435D01*
X92820741Y-71714632D01*
X92650480Y-71774210D01*
X92497739Y-71870183D01*
X92370183Y-71997739D01*
X92274210Y-72150480D01*
X92214632Y-72320741D01*
X92194435Y-72499999D01*
X91805565Y-72499999D01*
X91785368Y-72320745D01*
X91725789Y-72150478D01*
X91629816Y-71997738D01*
X91502262Y-71870184D01*
X91349522Y-71774211D01*
X91341815Y-71771514D01*
X91179258Y-71714632D01*
X91000000Y-71694435D01*
X90820741Y-71714632D01*
X90650480Y-71774210D01*
X90497739Y-71870183D01*
X90370183Y-71997739D01*
X90274210Y-72150480D01*
X90214632Y-72320741D01*
X90194435Y-72499999D01*
X89805565Y-72499999D01*
X89785368Y-72320745D01*
X89725789Y-72150478D01*
X89629816Y-71997738D01*
X89502262Y-71870184D01*
X89349522Y-71774211D01*
X89341815Y-71771514D01*
X89179258Y-71714632D01*
X89000000Y-71694435D01*
X88820741Y-71714632D01*
X88650480Y-71774210D01*
X88497739Y-71870183D01*
X88370183Y-71997739D01*
X88274210Y-72150480D01*
X88214632Y-72320741D01*
X88194435Y-72499999D01*
X84700500Y-72499999D01*
X84700500Y-67449999D01*
X86794750Y-67449999D01*
X86813669Y-67593709D01*
X86852892Y-67688401D01*
X86869139Y-67727625D01*
X86886692Y-67750500D01*
X86957378Y-67842621D01*
X87007306Y-67880932D01*
X87072375Y-67930861D01*
X87167067Y-67970083D01*
X87206290Y-67986330D01*
X87223008Y-67988531D01*
X87350000Y-68005250D01*
X87493709Y-67986330D01*
X87627625Y-67930861D01*
X87742621Y-67842621D01*
X87783588Y-67789230D01*
X87818342Y-67760710D01*
X87862129Y-67750500D01*
X89637871Y-67750500D01*
X89681658Y-67760710D01*
X89716411Y-67789230D01*
X89757379Y-67842621D01*
X89757381Y-67842623D01*
X89793898Y-67870643D01*
X89872375Y-67930861D01*
X89967067Y-67970083D01*
X90006290Y-67986330D01*
X90023008Y-67988531D01*
X90150000Y-68005250D01*
X90293709Y-67986330D01*
X90427625Y-67930861D01*
X90542621Y-67842621D01*
X90630861Y-67727625D01*
X90686330Y-67593709D01*
X90705250Y-67450000D01*
X90686330Y-67306291D01*
X90630861Y-67172375D01*
X90605474Y-67139290D01*
X90544837Y-67060266D01*
X90526726Y-67021426D01*
X90526726Y-66978571D01*
X90544834Y-66939736D01*
X90630861Y-66827625D01*
X90686330Y-66693709D01*
X90705250Y-66550000D01*
X90686330Y-66406291D01*
X90630861Y-66272375D01*
X90605474Y-66239290D01*
X90544837Y-66160266D01*
X90526726Y-66121426D01*
X90526726Y-66078571D01*
X90544834Y-66039736D01*
X90630861Y-65927625D01*
X90686330Y-65793709D01*
X90705250Y-65650000D01*
X90686330Y-65506291D01*
X90674456Y-65477625D01*
X90630861Y-65372375D01*
X90544837Y-65260266D01*
X90526726Y-65221426D01*
X90526726Y-65178571D01*
X90544836Y-65139734D01*
X90630861Y-65027625D01*
X90686330Y-64893709D01*
X90705250Y-64750000D01*
X90686330Y-64606291D01*
X90630861Y-64472375D01*
X90544835Y-64360265D01*
X90526726Y-64321428D01*
X90526726Y-64278572D01*
X90544837Y-64239733D01*
X90630861Y-64127625D01*
X90686330Y-63993709D01*
X90705250Y-63850000D01*
X90686330Y-63706291D01*
X90630861Y-63572375D01*
X90605474Y-63539290D01*
X90544837Y-63460266D01*
X90526726Y-63421426D01*
X90526726Y-63378571D01*
X90544836Y-63339734D01*
X90630861Y-63227625D01*
X90686330Y-63093709D01*
X90705250Y-62950000D01*
X90686330Y-62806291D01*
X90630861Y-62672375D01*
X90544835Y-62560265D01*
X90526726Y-62521428D01*
X90526726Y-62478572D01*
X90544837Y-62439733D01*
X90630861Y-62327625D01*
X90686330Y-62193709D01*
X90705250Y-62050000D01*
X90686330Y-61906291D01*
X90630861Y-61772375D01*
X90544835Y-61660265D01*
X90526726Y-61621428D01*
X90526726Y-61578572D01*
X90544837Y-61539733D01*
X90630861Y-61427625D01*
X90686330Y-61293709D01*
X90705250Y-61150000D01*
X90686330Y-61006291D01*
X90630861Y-60872375D01*
X90580932Y-60807306D01*
X90542621Y-60757378D01*
X90477552Y-60707450D01*
X90427625Y-60669139D01*
X90388401Y-60652892D01*
X90293709Y-60613669D01*
X90150000Y-60594750D01*
X90006290Y-60613669D01*
X89872375Y-60669139D01*
X89757381Y-60757376D01*
X89757378Y-60757379D01*
X89757379Y-60757379D01*
X89716411Y-60810769D01*
X89681658Y-60839290D01*
X89637871Y-60849500D01*
X87862129Y-60849500D01*
X87818342Y-60839290D01*
X87783588Y-60810769D01*
X87742621Y-60757379D01*
X87742619Y-60757377D01*
X87742618Y-60757376D01*
X87687841Y-60715344D01*
X87627625Y-60669139D01*
X87588401Y-60652892D01*
X87493709Y-60613669D01*
X87350000Y-60594750D01*
X87206290Y-60613669D01*
X87072375Y-60669139D01*
X86957378Y-60757378D01*
X86869139Y-60872375D01*
X86813669Y-61006290D01*
X86794750Y-61149999D01*
X86813669Y-61293709D01*
X86852892Y-61388401D01*
X86869139Y-61427625D01*
X86886692Y-61450500D01*
X86955162Y-61539733D01*
X86973273Y-61578573D01*
X86973273Y-61621427D01*
X86955162Y-61660267D01*
X86869139Y-61772375D01*
X86813669Y-61906290D01*
X86794750Y-62050000D01*
X86813669Y-62193709D01*
X86852892Y-62288401D01*
X86869139Y-62327625D01*
X86894526Y-62360710D01*
X86955162Y-62439733D01*
X86973273Y-62478573D01*
X86973273Y-62521427D01*
X86955162Y-62560267D01*
X86869139Y-62672375D01*
X86813669Y-62806290D01*
X86794750Y-62950000D01*
X86813669Y-63093709D01*
X86852892Y-63188401D01*
X86869139Y-63227625D01*
X86886692Y-63250500D01*
X86955162Y-63339733D01*
X86973273Y-63378573D01*
X86973273Y-63421427D01*
X86955162Y-63460267D01*
X86869139Y-63572375D01*
X86813669Y-63706290D01*
X86794750Y-63849999D01*
X86813669Y-63993709D01*
X86852892Y-64088401D01*
X86869139Y-64127625D01*
X86886692Y-64150500D01*
X86955162Y-64239733D01*
X86973273Y-64278573D01*
X86973273Y-64321427D01*
X86955162Y-64360267D01*
X86869139Y-64472375D01*
X86813669Y-64606290D01*
X86794750Y-64750000D01*
X86813669Y-64893709D01*
X86869138Y-65027624D01*
X86955162Y-65139732D01*
X86973273Y-65178571D01*
X86973273Y-65221426D01*
X86955162Y-65260266D01*
X86869139Y-65372374D01*
X86813669Y-65506290D01*
X86794750Y-65650000D01*
X86813669Y-65793709D01*
X86852892Y-65888401D01*
X86869139Y-65927625D01*
X86894526Y-65960710D01*
X86955162Y-66039733D01*
X86973273Y-66078573D01*
X86973273Y-66121427D01*
X86955162Y-66160267D01*
X86869139Y-66272375D01*
X86813669Y-66406290D01*
X86794750Y-66549999D01*
X86813669Y-66693709D01*
X86852892Y-66788401D01*
X86869139Y-66827625D01*
X86894526Y-66860710D01*
X86955162Y-66939733D01*
X86973273Y-66978573D01*
X86973273Y-67021427D01*
X86955162Y-67060267D01*
X86869139Y-67172375D01*
X86813669Y-67306290D01*
X86794750Y-67449999D01*
X84700500Y-67449999D01*
X84700500Y-65799253D01*
X84712190Y-65752585D01*
X84744498Y-65716938D01*
X84789796Y-65700730D01*
X84837385Y-65707789D01*
X84906289Y-65736330D01*
X84936242Y-65740273D01*
X85050000Y-65755250D01*
X85193709Y-65736330D01*
X85327625Y-65680861D01*
X85442621Y-65592621D01*
X85530861Y-65477625D01*
X85586330Y-65343709D01*
X85605250Y-65200000D01*
X85586330Y-65056291D01*
X85583931Y-65050500D01*
X85570083Y-65017067D01*
X85530861Y-64922375D01*
X85480932Y-64857306D01*
X85442621Y-64807378D01*
X85377552Y-64757450D01*
X85327625Y-64719139D01*
X85297287Y-64706572D01*
X85193710Y-64663669D01*
X85186578Y-64662731D01*
X85142716Y-64645674D01*
X85111686Y-64610291D01*
X85100500Y-64564578D01*
X85100500Y-51770378D01*
X85117184Y-51715377D01*
X85161614Y-51678914D01*
X85193786Y-51665587D01*
X85277625Y-51630861D01*
X85392621Y-51542621D01*
X85480861Y-51427625D01*
X85536330Y-51293709D01*
X85555250Y-51150000D01*
X85536330Y-51006291D01*
X85480861Y-50872375D01*
X85430932Y-50807306D01*
X85392621Y-50757378D01*
X85303698Y-50689146D01*
X85277625Y-50669139D01*
X85238401Y-50652892D01*
X85143709Y-50613669D01*
X85000000Y-50594750D01*
X84856291Y-50613669D01*
X84837384Y-50621501D01*
X84789795Y-50628559D01*
X84744498Y-50612351D01*
X84712190Y-50576704D01*
X84700500Y-50530036D01*
X84700500Y-49815479D01*
X84708036Y-49777593D01*
X84729496Y-49745475D01*
X84795475Y-49679496D01*
X84827593Y-49658036D01*
X84865479Y-49650500D01*
X85484521Y-49650500D01*
X85522407Y-49658036D01*
X85554525Y-49679496D01*
X87341436Y-51466407D01*
X87350857Y-51479501D01*
X87390726Y-51515847D01*
X87394031Y-51519003D01*
X87407201Y-51532173D01*
X87407295Y-51532237D01*
X87418039Y-51540746D01*
X87439067Y-51559916D01*
X87448230Y-51563465D01*
X87468413Y-51574103D01*
X87476519Y-51579656D01*
X87504211Y-51586169D01*
X87517298Y-51590222D01*
X87543827Y-51600500D01*
X87553652Y-51600500D01*
X87576317Y-51603129D01*
X87585881Y-51605379D01*
X87614053Y-51601448D01*
X87627731Y-51600500D01*
X89687871Y-51600500D01*
X89731658Y-51610710D01*
X89766411Y-51639230D01*
X89807379Y-51692621D01*
X89807381Y-51692623D01*
X89837035Y-51715377D01*
X89922375Y-51780861D01*
X90017067Y-51820083D01*
X90056290Y-51836330D01*
X90073008Y-51838531D01*
X90200000Y-51855250D01*
X90343709Y-51836330D01*
X90477625Y-51780861D01*
X90592621Y-51692621D01*
X90680861Y-51577625D01*
X90736330Y-51443709D01*
X90755250Y-51300000D01*
X90736330Y-51156291D01*
X90733724Y-51150000D01*
X90709737Y-51092089D01*
X90680861Y-51022375D01*
X90630932Y-50957306D01*
X90592621Y-50907378D01*
X90505503Y-50840531D01*
X90477625Y-50819139D01*
X90447287Y-50806572D01*
X90343710Y-50763669D01*
X90235432Y-50749414D01*
X90188087Y-50729803D01*
X90156891Y-50689146D01*
X90150202Y-50638340D01*
X90155250Y-50600000D01*
X90136330Y-50456291D01*
X90080861Y-50322375D01*
X90025326Y-50250001D01*
X89992621Y-50207378D01*
X89927459Y-50157378D01*
X89877625Y-50119139D01*
X89838401Y-50102892D01*
X89743709Y-50063669D01*
X89600000Y-50044750D01*
X89456290Y-50063669D01*
X89322375Y-50119139D01*
X89207381Y-50207376D01*
X89207378Y-50207379D01*
X89207379Y-50207379D01*
X89166411Y-50260769D01*
X89131658Y-50289290D01*
X89087871Y-50299500D01*
X87615479Y-50299500D01*
X87577593Y-50291964D01*
X87545475Y-50270504D01*
X87280292Y-50005321D01*
X87253882Y-49957797D01*
X87256550Y-49903494D01*
X87287492Y-49858788D01*
X87337375Y-49837164D01*
X87343710Y-49836330D01*
X87382932Y-49820083D01*
X87477625Y-49780861D01*
X87490530Y-49770958D01*
X87518976Y-49755754D01*
X87550798Y-49750500D01*
X90472388Y-49750500D01*
X90510274Y-49758036D01*
X90542392Y-49779496D01*
X91383397Y-50620500D01*
X91402183Y-50646716D01*
X91411546Y-50677580D01*
X91413669Y-50693709D01*
X91469139Y-50827625D01*
X91479042Y-50840531D01*
X91494246Y-50868976D01*
X91499500Y-50900798D01*
X91499500Y-52219134D01*
X91498878Y-52230217D01*
X91494729Y-52267037D01*
X91498232Y-52285552D01*
X91499110Y-52316871D01*
X91494749Y-52349997D01*
X91513669Y-52493709D01*
X91569139Y-52627625D01*
X91579042Y-52640531D01*
X91594246Y-52668976D01*
X91599500Y-52700798D01*
X91599500Y-53787871D01*
X91589290Y-53831658D01*
X91560769Y-53866411D01*
X91518924Y-53898519D01*
X91507376Y-53907381D01*
X91419139Y-54022375D01*
X91363669Y-54156290D01*
X91344750Y-54299999D01*
X91363669Y-54443709D01*
X91419139Y-54577625D01*
X91429042Y-54590531D01*
X91444246Y-54618976D01*
X91449500Y-54650798D01*
X91449500Y-55169136D01*
X91448878Y-55180219D01*
X91444730Y-55217037D01*
X91455444Y-55273664D01*
X91456064Y-55277312D01*
X91465168Y-55337710D01*
X91468363Y-55347420D01*
X91496905Y-55401424D01*
X91498574Y-55404728D01*
X91525075Y-55459757D01*
X91530993Y-55468097D01*
X91574199Y-55511304D01*
X91576768Y-55513971D01*
X91618299Y-55558731D01*
X91632601Y-55569705D01*
X92283397Y-56220500D01*
X92302183Y-56246716D01*
X92311546Y-56277580D01*
X92313669Y-56293709D01*
X92352892Y-56388401D01*
X92369139Y-56427625D01*
X92407450Y-56477552D01*
X92457378Y-56542621D01*
X92507306Y-56580932D01*
X92572375Y-56630861D01*
X92667067Y-56670083D01*
X92706290Y-56686330D01*
X92723008Y-56688531D01*
X92850000Y-56705250D01*
X92993709Y-56686330D01*
X93127625Y-56630861D01*
X93242621Y-56542621D01*
X93330861Y-56427625D01*
X93386330Y-56293709D01*
X93405250Y-56150000D01*
X93386330Y-56006291D01*
X93330861Y-55872375D01*
X93280932Y-55807306D01*
X93242621Y-55757378D01*
X93177552Y-55707450D01*
X93127625Y-55669139D01*
X93097287Y-55656572D01*
X92993710Y-55613669D01*
X92977580Y-55611546D01*
X92946717Y-55602183D01*
X92920501Y-55583397D01*
X92379496Y-55042393D01*
X92358036Y-55010275D01*
X92350500Y-54972389D01*
X92350500Y-54650798D01*
X92355754Y-54618976D01*
X92370958Y-54590531D01*
X92372458Y-54588575D01*
X92380861Y-54577625D01*
X92436330Y-54443709D01*
X92442373Y-54397805D01*
X92450412Y-54377878D01*
X92447860Y-54376986D01*
X92451318Y-54367097D01*
X92459448Y-54350990D01*
X92460470Y-54347675D01*
X92460472Y-54347673D01*
X92477482Y-54292522D01*
X92478590Y-54289154D01*
X92497646Y-54234699D01*
X92497646Y-54234693D01*
X92498790Y-54231425D01*
X92500500Y-54221365D01*
X92500500Y-54160284D01*
X92500569Y-54156582D01*
X92502853Y-54095532D01*
X92500500Y-54077655D01*
X92500500Y-52700798D01*
X92505754Y-52668976D01*
X92520958Y-52640531D01*
X92522458Y-52638575D01*
X92530861Y-52627625D01*
X92586330Y-52493709D01*
X92605250Y-52350000D01*
X92586330Y-52206291D01*
X92530861Y-52072375D01*
X92442621Y-51957379D01*
X92439230Y-51954777D01*
X92410709Y-51920023D01*
X92400500Y-51876237D01*
X92400500Y-50900798D01*
X92400991Y-50897826D01*
X95610000Y-50897826D01*
X95616401Y-50957376D01*
X95666646Y-51092089D01*
X95752811Y-51207188D01*
X95867910Y-51293353D01*
X96002623Y-51343598D01*
X96062174Y-51350000D01*
X96709999Y-51350000D01*
X96710000Y-51349999D01*
X96710000Y-50250001D01*
X96709999Y-50250000D01*
X95610001Y-50250000D01*
X95610000Y-50250001D01*
X95610000Y-50897826D01*
X92400991Y-50897826D01*
X92405754Y-50868976D01*
X92420958Y-50840531D01*
X92422458Y-50838575D01*
X92430861Y-50827625D01*
X92486330Y-50693709D01*
X92505250Y-50550000D01*
X92486330Y-50406291D01*
X92485361Y-50403952D01*
X92451571Y-50322375D01*
X92430861Y-50272375D01*
X92379878Y-50205933D01*
X92342621Y-50157378D01*
X92277552Y-50107450D01*
X92227625Y-50069139D01*
X92197287Y-50056572D01*
X92093710Y-50013669D01*
X92077580Y-50011546D01*
X92046717Y-50002183D01*
X92020501Y-49983397D01*
X91633150Y-49596046D01*
X91206106Y-49169003D01*
X91179013Y-49118314D01*
X91184647Y-49061114D01*
X91221110Y-49016685D01*
X91276111Y-49000000D01*
X95511000Y-49000000D01*
X95560500Y-49013263D01*
G37*
G04 #@! TD.AperFunction*
M02*
