%TF.GenerationSoftware,KiCad,Pcbnew,7.0.1*%
%TF.CreationDate,2023-07-08T21:15:04-04:00*%
%TF.ProjectId,cdm324_exp,63646d33-3234-45f6-9578-702e6b696361,rev?*%
%TF.SameCoordinates,Original*%
%TF.FileFunction,Copper,L1,Top*%
%TF.FilePolarity,Positive*%
%FSLAX46Y46*%
G04 Gerber Fmt 4.6, Leading zero omitted, Abs format (unit mm)*
G04 Created by KiCad (PCBNEW 7.0.1) date 2023-07-08 21:15:04*
%MOMM*%
%LPD*%
G01*
G04 APERTURE LIST*
G04 Aperture macros list*
%AMRoundRect*
0 Rectangle with rounded corners*
0 $1 Rounding radius*
0 $2 $3 $4 $5 $6 $7 $8 $9 X,Y pos of 4 corners*
0 Add a 4 corners polygon primitive as box body*
4,1,4,$2,$3,$4,$5,$6,$7,$8,$9,$2,$3,0*
0 Add four circle primitives for the rounded corners*
1,1,$1+$1,$2,$3*
1,1,$1+$1,$4,$5*
1,1,$1+$1,$6,$7*
1,1,$1+$1,$8,$9*
0 Add four rect primitives between the rounded corners*
20,1,$1+$1,$2,$3,$4,$5,0*
20,1,$1+$1,$4,$5,$6,$7,0*
20,1,$1+$1,$6,$7,$8,$9,0*
20,1,$1+$1,$8,$9,$2,$3,0*%
G04 Aperture macros list end*
%TA.AperFunction,ComponentPad*%
%ADD10R,1.700000X1.700000*%
%TD*%
%TA.AperFunction,ComponentPad*%
%ADD11O,1.700000X1.700000*%
%TD*%
%TA.AperFunction,SMDPad,CuDef*%
%ADD12R,1.400000X0.300000*%
%TD*%
%TA.AperFunction,SMDPad,CuDef*%
%ADD13RoundRect,0.200000X-0.275000X0.200000X-0.275000X-0.200000X0.275000X-0.200000X0.275000X0.200000X0*%
%TD*%
%TA.AperFunction,SMDPad,CuDef*%
%ADD14RoundRect,0.218750X0.218750X0.256250X-0.218750X0.256250X-0.218750X-0.256250X0.218750X-0.256250X0*%
%TD*%
%TA.AperFunction,SMDPad,CuDef*%
%ADD15RoundRect,0.200000X-0.200000X-0.275000X0.200000X-0.275000X0.200000X0.275000X-0.200000X0.275000X0*%
%TD*%
%TA.AperFunction,SMDPad,CuDef*%
%ADD16RoundRect,0.225000X0.225000X0.250000X-0.225000X0.250000X-0.225000X-0.250000X0.225000X-0.250000X0*%
%TD*%
%TA.AperFunction,SMDPad,CuDef*%
%ADD17R,1.200000X2.500000*%
%TD*%
%TA.AperFunction,SMDPad,CuDef*%
%ADD18R,1.550000X1.300000*%
%TD*%
%TA.AperFunction,SMDPad,CuDef*%
%ADD19RoundRect,0.200000X0.200000X0.275000X-0.200000X0.275000X-0.200000X-0.275000X0.200000X-0.275000X0*%
%TD*%
%TA.AperFunction,SMDPad,CuDef*%
%ADD20RoundRect,0.225000X-0.225000X-0.250000X0.225000X-0.250000X0.225000X0.250000X-0.225000X0.250000X0*%
%TD*%
%TA.AperFunction,SMDPad,CuDef*%
%ADD21RoundRect,0.200000X0.275000X-0.200000X0.275000X0.200000X-0.275000X0.200000X-0.275000X-0.200000X0*%
%TD*%
%TA.AperFunction,ComponentPad*%
%ADD22R,1.600000X1.600000*%
%TD*%
%TA.AperFunction,ComponentPad*%
%ADD23O,1.600000X1.600000*%
%TD*%
%TA.AperFunction,SMDPad,CuDef*%
%ADD24R,1.240000X0.600000*%
%TD*%
%TA.AperFunction,SMDPad,CuDef*%
%ADD25R,1.240000X0.300000*%
%TD*%
%TA.AperFunction,ComponentPad*%
%ADD26O,2.100000X1.000000*%
%TD*%
%TA.AperFunction,ComponentPad*%
%ADD27O,1.800000X1.000000*%
%TD*%
%TA.AperFunction,ViaPad*%
%ADD28C,0.700000*%
%TD*%
%TA.AperFunction,Conductor*%
%ADD29C,0.200000*%
%TD*%
%TA.AperFunction,Conductor*%
%ADD30C,0.500000*%
%TD*%
%TA.AperFunction,Conductor*%
%ADD31C,0.300000*%
%TD*%
G04 APERTURE END LIST*
D10*
%TO.P,J6,1,Pin_1*%
%TO.N,+3V3*%
X107600000Y-102900000D03*
D11*
%TO.P,J6,2,Pin_2*%
%TO.N,/I2C_SDA*%
X105060000Y-102900000D03*
%TO.P,J6,3,Pin_3*%
%TO.N,/I2C_SCL*%
X102520000Y-102900000D03*
%TO.P,J6,4,Pin_4*%
%TO.N,GND*%
X99980000Y-102900000D03*
%TD*%
D12*
%TO.P,U1,1,UD+*%
%TO.N,Net-(U1-UD+)*%
X127900000Y-104000000D03*
%TO.P,U1,2,UD-*%
%TO.N,Net-(U1-UD-)*%
X127900000Y-103500000D03*
%TO.P,U1,3,GND*%
%TO.N,GND*%
X127900000Y-103000000D03*
%TO.P,U1,4,~{RTS}*%
%TO.N,Net-(U1-~{RTS})*%
X127900000Y-102500000D03*
%TO.P,U1,5,~{CTS}*%
%TO.N,unconnected-(U1-~{CTS}-Pad5)*%
X127900000Y-102000000D03*
%TO.P,U1,6,TNOW*%
%TO.N,/BOOT0*%
X123500000Y-102000000D03*
%TO.P,U1,7,VCC*%
%TO.N,VCC*%
X123500000Y-102500000D03*
%TO.P,U1,8,TXD*%
%TO.N,/UART_RX*%
X123500000Y-103000000D03*
%TO.P,U1,9,RXD*%
%TO.N,/UART_TX*%
X123500000Y-103500000D03*
%TO.P,U1,10,V3*%
%TO.N,Net-(U1-V3)*%
X123500000Y-104000000D03*
%TD*%
D13*
%TO.P,R2,1*%
%TO.N,Net-(J3-CC1)*%
X131350000Y-103075000D03*
%TO.P,R2,2*%
%TO.N,GND*%
X131350000Y-104725000D03*
%TD*%
D14*
%TO.P,FB1,1*%
%TO.N,Net-(C2-Pad1)*%
X131387500Y-95700000D03*
%TO.P,FB1,2*%
%TO.N,VCC*%
X129812500Y-95700000D03*
%TD*%
D15*
%TO.P,R4,1*%
%TO.N,Net-(J7-PadT)*%
X94450000Y-96800000D03*
%TO.P,R4,2*%
%TO.N,Net-(C4-Pad1)*%
X96100000Y-96800000D03*
%TD*%
D16*
%TO.P,C3,1*%
%TO.N,VCC*%
X121275000Y-102100000D03*
%TO.P,C3,2*%
%TO.N,GND*%
X119725000Y-102100000D03*
%TD*%
D17*
%TO.P,J7,R1*%
%TO.N,unconnected-(J7-PadR1)*%
X87405000Y-96150000D03*
%TO.P,J7,R2*%
%TO.N,unconnected-(J7-PadR2)*%
X84405000Y-96150000D03*
%TO.P,J7,S*%
%TO.N,GND*%
X92505000Y-102650000D03*
%TO.P,J7,T*%
%TO.N,Net-(J7-PadT)*%
X91405000Y-96150000D03*
%TD*%
D15*
%TO.P,R5,1*%
%TO.N,Net-(J7-PadT)*%
X94475000Y-95300000D03*
%TO.P,R5,2*%
%TO.N,Net-(C4-Pad1)*%
X96125000Y-95300000D03*
%TD*%
%TO.P,R11,1*%
%TO.N,+3V3*%
X94475000Y-105850000D03*
%TO.P,R11,2*%
%TO.N,/SPI_SCK*%
X96125000Y-105850000D03*
%TD*%
%TO.P,R9,1*%
%TO.N,+3V3*%
X94475000Y-102800000D03*
%TO.P,R9,2*%
%TO.N,/SPI_nCS*%
X96125000Y-102800000D03*
%TD*%
D13*
%TO.P,R12,1*%
%TO.N,+3V3*%
X100150000Y-105475000D03*
%TO.P,R12,2*%
%TO.N,/SPI_MISO*%
X100150000Y-107125000D03*
%TD*%
D15*
%TO.P,R8,1*%
%TO.N,+3V3*%
X94475000Y-101300000D03*
%TO.P,R8,2*%
%TO.N,Net-(J5-DAT2)*%
X96125000Y-101300000D03*
%TD*%
D18*
%TO.P,SW2,1,1*%
%TO.N,/BOOT0*%
X117675000Y-99950000D03*
X109725000Y-99950000D03*
%TO.P,SW2,2,2*%
%TO.N,+3V3*%
X117675000Y-95450000D03*
X109725000Y-95450000D03*
%TD*%
D15*
%TO.P,R10,2*%
%TO.N,/SPI_MOSI*%
X96125000Y-104350000D03*
%TO.P,R10,1*%
%TO.N,+3V3*%
X94475000Y-104350000D03*
%TD*%
D19*
%TO.P,R13,1*%
%TO.N,+3V3*%
X101725000Y-108600000D03*
%TO.P,R13,2*%
%TO.N,Net-(J5-DAT1)*%
X100075000Y-108600000D03*
%TD*%
D16*
%TO.P,C1,1*%
%TO.N,Net-(U1-V3)*%
X121275000Y-104350000D03*
%TO.P,C1,2*%
%TO.N,GND*%
X119725000Y-104350000D03*
%TD*%
D18*
%TO.P,SW1,1,1*%
%TO.N,/nRESET*%
X117675000Y-106550000D03*
X109725000Y-106550000D03*
%TO.P,SW1,2,2*%
%TO.N,GND*%
X117675000Y-102050000D03*
X109725000Y-102050000D03*
%TD*%
D20*
%TO.P,C4,1*%
%TO.N,Net-(C4-Pad1)*%
X97575000Y-95300000D03*
%TO.P,C4,2*%
%TO.N,/VOUT*%
X99125000Y-95300000D03*
%TD*%
D21*
%TO.P,R1,1*%
%TO.N,Net-(U1-~{RTS})*%
X119500000Y-107975000D03*
%TO.P,R1,2*%
%TO.N,/nRESET*%
X119500000Y-106325000D03*
%TD*%
D22*
%TO.P,SW3,1*%
%TO.N,/PA1*%
X121682500Y-107850000D03*
D23*
%TO.P,SW3,2*%
%TO.N,GND*%
X129302500Y-107850000D03*
%TD*%
D16*
%TO.P,C2,1*%
%TO.N,Net-(C2-Pad1)*%
X131375000Y-97250000D03*
%TO.P,C2,2*%
%TO.N,GND*%
X129825000Y-97250000D03*
%TD*%
D15*
%TO.P,R7,1*%
%TO.N,GND*%
X94475000Y-99800000D03*
%TO.P,R7,2*%
%TO.N,Net-(R6-Pad1)*%
X96125000Y-99800000D03*
%TD*%
D19*
%TO.P,R3,1*%
%TO.N,Net-(J3-CC2)*%
X131425000Y-98750000D03*
%TO.P,R3,2*%
%TO.N,GND*%
X129775000Y-98750000D03*
%TD*%
D24*
%TO.P,J3,A1,GND*%
%TO.N,GND*%
X133275000Y-103200000D03*
%TO.P,J3,A4,VBUS*%
%TO.N,Net-(C2-Pad1)*%
X133275000Y-102400000D03*
D25*
%TO.P,J3,A5,CC1*%
%TO.N,Net-(J3-CC1)*%
X133275000Y-101250000D03*
%TO.P,J3,A6,D+*%
%TO.N,Net-(U1-UD+)*%
X133275000Y-100250000D03*
%TO.P,J3,A7,D-*%
%TO.N,Net-(U1-UD-)*%
X133275000Y-99750000D03*
%TO.P,J3,A8,SBU1*%
%TO.N,unconnected-(J3-SBU1-PadA8)*%
X133275000Y-98750000D03*
D24*
%TO.P,J3,A9,VBUS*%
%TO.N,Net-(C2-Pad1)*%
X133275000Y-97600000D03*
%TO.P,J3,A12,GND*%
%TO.N,GND*%
X133275000Y-96800000D03*
%TO.P,J3,B1,GND*%
X133275000Y-96800000D03*
%TO.P,J3,B4,VBUS*%
%TO.N,Net-(C2-Pad1)*%
X133275000Y-97600000D03*
D25*
%TO.P,J3,B5,CC2*%
%TO.N,Net-(J3-CC2)*%
X133275000Y-98250000D03*
%TO.P,J3,B6,D+*%
%TO.N,Net-(U1-UD+)*%
X133275000Y-99250000D03*
%TO.P,J3,B7,D-*%
%TO.N,Net-(U1-UD-)*%
X133275000Y-100750000D03*
%TO.P,J3,B8,SBU2*%
%TO.N,unconnected-(J3-SBU2-PadB8)*%
X133275000Y-101750000D03*
D24*
%TO.P,J3,B9,VBUS*%
%TO.N,Net-(C2-Pad1)*%
X133275000Y-102400000D03*
%TO.P,J3,B12,GND*%
%TO.N,GND*%
X133275000Y-103200000D03*
D26*
%TO.P,J3,S1,SHIELD*%
X133875000Y-104320000D03*
D27*
X138075000Y-104320000D03*
D26*
X133875000Y-95680000D03*
D27*
X138075000Y-95680000D03*
%TD*%
D19*
%TO.P,R6,1*%
%TO.N,Net-(R6-Pad1)*%
X96125000Y-98300000D03*
%TO.P,R6,2*%
%TO.N,Net-(J7-PadT)*%
X94475000Y-98300000D03*
%TD*%
D16*
%TO.P,C5,2*%
%TO.N,GND*%
X91425000Y-105200000D03*
%TO.P,C5,1*%
%TO.N,+3V3*%
X92975000Y-105200000D03*
%TD*%
D10*
%TO.P,J2,1,Pin_1*%
%TO.N,/UART_RX*%
X119700000Y-100000000D03*
D11*
%TO.P,J2,2,Pin_2*%
%TO.N,/VOUT*%
X119700000Y-97460000D03*
%TO.P,J2,3,Pin_3*%
%TO.N,/UART_TX*%
X122240000Y-100000000D03*
%TO.P,J2,4,Pin_4*%
%TO.N,GND*%
X122240000Y-97460000D03*
%TO.P,J2,5,Pin_5*%
%TO.N,/PA1*%
X124780000Y-100000000D03*
%TO.P,J2,6,Pin_6*%
%TO.N,+3V3*%
X124780000Y-97460000D03*
%TO.P,J2,7,Pin_7*%
%TO.N,/PA0*%
X127320000Y-100000000D03*
%TO.P,J2,8,Pin_8*%
%TO.N,VCC*%
X127320000Y-97460000D03*
%TD*%
D10*
%TO.P,J1,1,Pin_1*%
%TO.N,/nRESET*%
X100000000Y-100000000D03*
D11*
%TO.P,J1,2,Pin_2*%
%TO.N,/SPI_nCS*%
X100000000Y-97460000D03*
%TO.P,J1,3,Pin_3*%
%TO.N,/I2C_SCL*%
X102540000Y-100000000D03*
%TO.P,J1,4,Pin_4*%
%TO.N,/SPI_SCK*%
X102540000Y-97460000D03*
%TO.P,J1,5,Pin_5*%
%TO.N,/I2C_SDA*%
X105080000Y-100000000D03*
%TO.P,J1,6,Pin_6*%
%TO.N,/SPI_MISO*%
X105080000Y-97460000D03*
%TO.P,J1,7,Pin_7*%
%TO.N,/BOOT0*%
X107620000Y-100000000D03*
%TO.P,J1,8,Pin_8*%
%TO.N,/SPI_MOSI*%
X107620000Y-97460000D03*
%TD*%
D28*
%TO.N,GND*%
X90450000Y-105200000D03*
%TO.N,+3V3*%
X95347164Y-103597657D03*
%TO.N,Net-(J5-DAT2)*%
X98450000Y-100900000D03*
%TO.N,/SPI_nCS*%
X98450000Y-102000000D03*
%TO.N,/SPI_MOSI*%
X98450000Y-103100000D03*
%TO.N,/SPI_SCK*%
X98450000Y-105300000D03*
%TO.N,GND*%
X109700000Y-103200000D03*
X92480000Y-100900000D03*
X128850000Y-98750000D03*
X118750000Y-102100000D03*
X128850000Y-97250000D03*
X131350000Y-105600000D03*
X126500000Y-103550000D03*
X118750000Y-104350000D03*
%TO.N,+3V3*%
X113850000Y-97200000D03*
X113850000Y-95700000D03*
%TO.N,/SPI_MISO*%
X98450000Y-107500000D03*
%TO.N,/UART_TX*%
X118200000Y-97099500D03*
X120950000Y-96249500D03*
%TO.N,/PA0*%
X95500000Y-109600000D03*
%TO.N,Net-(U1-UD-)*%
X130850000Y-99850000D03*
X131750000Y-100950000D03*
%TO.N,Net-(J5-DAT1)*%
X98450000Y-108600000D03*
%TD*%
D29*
%TO.N,/SPI_MISO*%
X101425000Y-105850000D02*
X100150000Y-107125000D01*
X105850000Y-105850000D02*
X101425000Y-105850000D01*
X107450000Y-104250000D02*
X105850000Y-105850000D01*
X110525000Y-98700000D02*
X111050000Y-99225000D01*
X111050000Y-99225000D02*
X111050000Y-102850000D01*
X106320000Y-98700000D02*
X110525000Y-98700000D01*
X111050000Y-102850000D02*
X109650000Y-104250000D01*
X109650000Y-104250000D02*
X107450000Y-104250000D01*
X105080000Y-97460000D02*
X106320000Y-98700000D01*
%TO.N,Net-(J7-PadT)*%
X94450000Y-96000000D02*
X94450000Y-96150000D01*
X94450000Y-96150000D02*
X91405000Y-96150000D01*
D30*
%TO.N,+3V3*%
X105575000Y-105200000D02*
X99900000Y-105200000D01*
X99900000Y-105200000D02*
X98700000Y-106400000D01*
X98700000Y-106400000D02*
X97950000Y-106400000D01*
X107600000Y-103175000D02*
X105575000Y-105200000D01*
X97950000Y-106400000D02*
X97575000Y-106775000D01*
X107600000Y-102900000D02*
X107600000Y-103175000D01*
X101725000Y-108600000D02*
X101725000Y-109775000D01*
X101725000Y-109775000D02*
X101750000Y-109800000D01*
X101750000Y-109800000D02*
X109750000Y-109800000D01*
X97900000Y-109800000D02*
X101750000Y-109800000D01*
%TO.N,Net-(J5-DAT1)*%
X100075000Y-108600000D02*
X98450000Y-108600000D01*
D29*
%TO.N,/SPI_MISO*%
X98825000Y-107125000D02*
X98450000Y-107500000D01*
X100150000Y-107125000D02*
X98825000Y-107125000D01*
%TO.N,/SPI_MOSI*%
X99500000Y-104150000D02*
X98450000Y-103100000D01*
X103000000Y-104150000D02*
X99500000Y-104150000D01*
X103800000Y-103350000D02*
X103000000Y-104150000D01*
X103050000Y-98750000D02*
X103800000Y-99500000D01*
X102000000Y-98750000D02*
X103050000Y-98750000D01*
X101250000Y-96950000D02*
X101250000Y-98000000D01*
X103800000Y-99500000D02*
X103800000Y-103350000D01*
X102000000Y-96200000D02*
X101250000Y-96950000D01*
X101250000Y-98000000D02*
X102000000Y-98750000D01*
X106360000Y-96200000D02*
X102000000Y-96200000D01*
X107620000Y-97460000D02*
X106360000Y-96200000D01*
D30*
%TO.N,+3V3*%
X94475000Y-106325000D02*
X94475000Y-105150000D01*
X95100000Y-106950000D02*
X94475000Y-106325000D01*
X97400000Y-106950000D02*
X95100000Y-106950000D01*
X97575000Y-106775000D02*
X97400000Y-106950000D01*
%TO.N,GND*%
X91425000Y-105200000D02*
X90450000Y-105200000D01*
%TO.N,+3V3*%
X94475000Y-105150000D02*
X93025000Y-105150000D01*
X94475000Y-105150000D02*
X94475000Y-104350000D01*
X93025000Y-105150000D02*
X92975000Y-105200000D01*
X95299507Y-103550000D02*
X95347164Y-103597657D01*
X94475000Y-103550000D02*
X95299507Y-103550000D01*
X94475000Y-103550000D02*
X94475000Y-101300000D01*
X94475000Y-104350000D02*
X94475000Y-103550000D01*
X97575000Y-106775000D02*
X97300000Y-107050000D01*
D29*
%TO.N,/SPI_SCK*%
X96675000Y-105300000D02*
X96125000Y-105850000D01*
X98450000Y-105300000D02*
X96675000Y-105300000D01*
%TO.N,/SPI_MOSI*%
X98450000Y-103100000D02*
X97375000Y-103100000D01*
X97375000Y-103100000D02*
X96125000Y-104350000D01*
%TO.N,/SPI_nCS*%
X96925000Y-102000000D02*
X96125000Y-102800000D01*
X98450000Y-102000000D02*
X96925000Y-102000000D01*
%TO.N,Net-(J5-DAT2)*%
X96525000Y-100900000D02*
X96125000Y-101300000D01*
X98450000Y-100900000D02*
X96525000Y-100900000D01*
%TO.N,/SPI_nCS*%
X100750000Y-101500000D02*
X98950000Y-101500000D01*
X98950000Y-101500000D02*
X98450000Y-102000000D01*
X101300000Y-98900000D02*
X101300000Y-100950000D01*
X100000000Y-97600000D02*
X101300000Y-98900000D01*
X101300000Y-100950000D02*
X100750000Y-101500000D01*
X100000000Y-97460000D02*
X100000000Y-97600000D01*
%TO.N,/SPI_SCK*%
X99150000Y-104600000D02*
X98450000Y-105300000D01*
X100450000Y-104600000D02*
X99150000Y-104600000D01*
X100450000Y-104600000D02*
X99850000Y-104600000D01*
X105250000Y-104600000D02*
X100450000Y-104600000D01*
D31*
%TO.N,Net-(U1-V3)*%
X121850000Y-104000000D02*
X121625000Y-104000000D01*
X121850000Y-104000000D02*
X121375000Y-104000000D01*
X123500000Y-104000000D02*
X121850000Y-104000000D01*
X121625000Y-104000000D02*
X121275000Y-104350000D01*
%TO.N,GND*%
X127050000Y-103000000D02*
X126500000Y-103550000D01*
D30*
X129825000Y-97250000D02*
X128850000Y-97250000D01*
X92755000Y-102900000D02*
X92505000Y-102650000D01*
X92505000Y-100925000D02*
X92480000Y-100900000D01*
X118700000Y-102050000D02*
X118750000Y-102100000D01*
X133275000Y-96800000D02*
X133275000Y-96280000D01*
X131350000Y-105600000D02*
X131350000Y-104725000D01*
X117675000Y-102050000D02*
X118700000Y-102050000D01*
D29*
X94475000Y-99800000D02*
X93580000Y-99800000D01*
D30*
X133275000Y-96280000D02*
X133875000Y-95680000D01*
X129775000Y-98750000D02*
X128850000Y-98750000D01*
D31*
X127900000Y-103000000D02*
X127050000Y-103000000D01*
D30*
X133275000Y-103200000D02*
X133275000Y-103720000D01*
X92505000Y-102650000D02*
X92505000Y-100925000D01*
X119725000Y-104350000D02*
X118750000Y-104350000D01*
D29*
X93580000Y-99800000D02*
X92480000Y-100900000D01*
D30*
X109725000Y-102050000D02*
X109725000Y-103175000D01*
X119725000Y-102100000D02*
X118750000Y-102100000D01*
X109725000Y-103175000D02*
X109700000Y-103200000D01*
X133275000Y-103720000D02*
X133875000Y-104320000D01*
D31*
%TO.N,Net-(C2-Pad1)*%
X133275000Y-102400000D02*
X133425000Y-102250000D01*
D30*
X131725000Y-97600000D02*
X131375000Y-97250000D01*
D31*
X133425000Y-97750000D02*
X133275000Y-97600000D01*
D30*
X131387500Y-97237500D02*
X131375000Y-97250000D01*
D31*
X134850000Y-101445000D02*
X134850000Y-98555000D01*
X134850000Y-98555000D02*
X134045000Y-97750000D01*
X133425000Y-102250000D02*
X134045000Y-102250000D01*
X134045000Y-97750000D02*
X133425000Y-97750000D01*
D30*
X133275000Y-97600000D02*
X131725000Y-97600000D01*
D31*
X134045000Y-102250000D02*
X134850000Y-101445000D01*
D30*
X131387500Y-95700000D02*
X131387500Y-97237500D01*
D31*
%TO.N,VCC*%
X127320000Y-97830000D02*
X127320000Y-97460000D01*
X124450000Y-102500000D02*
X126050000Y-100900000D01*
X121675000Y-102500000D02*
X121275000Y-102100000D01*
X123500000Y-102500000D02*
X124450000Y-102500000D01*
X126050000Y-99100000D02*
X127320000Y-97830000D01*
D30*
X129080000Y-95700000D02*
X127320000Y-97460000D01*
D31*
X126050000Y-100900000D02*
X126050000Y-99100000D01*
X123500000Y-102500000D02*
X121675000Y-102500000D01*
D30*
X129812500Y-95700000D02*
X129080000Y-95700000D01*
D29*
%TO.N,Net-(C4-Pad1)*%
X96125000Y-96775000D02*
X96100000Y-96800000D01*
X97575000Y-95300000D02*
X96125000Y-95300000D01*
X96125000Y-95300000D02*
X96125000Y-96775000D01*
%TO.N,/VOUT*%
X99375000Y-95300000D02*
X99250000Y-95300000D01*
X108815686Y-96450000D02*
X107665686Y-95300000D01*
X118690000Y-96450000D02*
X108815686Y-96450000D01*
X107665686Y-95300000D02*
X99125000Y-95300000D01*
X119700000Y-97460000D02*
X118690000Y-96450000D01*
D30*
%TO.N,+3V3*%
X97300000Y-107050000D02*
X97300000Y-109200000D01*
X122770000Y-95450000D02*
X124780000Y-97460000D01*
X109725000Y-95450000D02*
X117675000Y-95450000D01*
X97300000Y-109200000D02*
X97900000Y-109800000D01*
X109750000Y-109800000D02*
X113850000Y-105700000D01*
X117675000Y-95450000D02*
X122770000Y-95450000D01*
X113850000Y-105700000D02*
X113850000Y-97200000D01*
D29*
%TO.N,/SPI_nCS*%
X96125000Y-102800000D02*
X96050000Y-102800000D01*
X96125000Y-102775000D02*
X96125000Y-102800000D01*
%TO.N,/nRESET*%
X111550000Y-99050000D02*
X109400000Y-96900000D01*
X111550000Y-103000000D02*
X111550000Y-99050000D01*
X98750000Y-99450000D02*
X99300000Y-100000000D01*
X109725000Y-104825000D02*
X111550000Y-103000000D01*
X107550000Y-95750000D02*
X99950000Y-95750000D01*
X109400000Y-96900000D02*
X108700000Y-96900000D01*
X108700000Y-96900000D02*
X107550000Y-95750000D01*
X117900000Y-106325000D02*
X117675000Y-106550000D01*
X99950000Y-95750000D02*
X98750000Y-96950000D01*
X119500000Y-106325000D02*
X117900000Y-106325000D01*
X98750000Y-96950000D02*
X98750000Y-99450000D01*
X109725000Y-106550000D02*
X109725000Y-104825000D01*
X99300000Y-100000000D02*
X100000000Y-100000000D01*
%TO.N,/SPI_SCK*%
X102540000Y-97460000D02*
X103780000Y-98700000D01*
X106350000Y-103500000D02*
X105250000Y-104600000D01*
X103780000Y-98700000D02*
X105650000Y-98700000D01*
X105650000Y-98700000D02*
X106350000Y-99400000D01*
X106350000Y-99400000D02*
X106350000Y-103500000D01*
%TO.N,/I2C_SCL*%
X102540000Y-100000000D02*
X102540000Y-102880000D01*
X102540000Y-102880000D02*
X102520000Y-102900000D01*
%TO.N,/I2C_SDA*%
X105080000Y-102880000D02*
X105060000Y-102900000D01*
X105080000Y-100000000D02*
X105080000Y-102880000D01*
%TO.N,/SPI_MOSI*%
X107620000Y-97460000D02*
X107730000Y-97350000D01*
X96125000Y-104350000D02*
X96125000Y-104125000D01*
X96100000Y-104350000D02*
X96125000Y-104350000D01*
%TO.N,/BOOT0*%
X123500000Y-102000000D02*
X123000000Y-102000000D01*
X122250000Y-101250000D02*
X121350000Y-101250000D01*
X107670000Y-99950000D02*
X107620000Y-100000000D01*
X109725000Y-99950000D02*
X107670000Y-99950000D01*
X123000000Y-102000000D02*
X122250000Y-101250000D01*
X121350000Y-101250000D02*
X120950000Y-100850000D01*
X120750000Y-98750000D02*
X118550000Y-98750000D01*
X120950000Y-98950000D02*
X120750000Y-98750000D01*
X120950000Y-100850000D02*
X120950000Y-98950000D01*
X117675000Y-99625000D02*
X117675000Y-99950000D01*
X118550000Y-98750000D02*
X117675000Y-99625000D01*
%TO.N,/UART_RX*%
X120500000Y-102650000D02*
X120500000Y-100800000D01*
X120850000Y-103000000D02*
X120500000Y-102650000D01*
X120500000Y-100800000D02*
X119700000Y-100000000D01*
X123500000Y-103000000D02*
X120850000Y-103000000D01*
%TO.N,/UART_TX*%
X123500000Y-103500000D02*
X116950000Y-103500000D01*
X118200000Y-96950000D02*
X118200000Y-97099500D01*
X116100000Y-99050000D02*
X118200000Y-96950000D01*
X122240000Y-99490000D02*
X122240000Y-100000000D01*
X116100000Y-102650000D02*
X116100000Y-99050000D01*
X116950000Y-103500000D02*
X116100000Y-102650000D01*
X120950000Y-96249500D02*
X120950000Y-98200000D01*
X120950000Y-98200000D02*
X122240000Y-99490000D01*
X122850000Y-100000000D02*
X122240000Y-100000000D01*
%TO.N,/PA1*%
X128400000Y-101350000D02*
X127000000Y-101350000D01*
X125200000Y-103150000D02*
X125200000Y-104500000D01*
X125200000Y-104500000D02*
X121800000Y-107900000D01*
X126050000Y-98250000D02*
X126050000Y-96800000D01*
X130600000Y-95200000D02*
X130600000Y-99150000D01*
X126050000Y-96800000D02*
X127950000Y-94900000D01*
X121800000Y-107900000D02*
X121682500Y-107900000D01*
X124780000Y-99520000D02*
X126050000Y-98250000D01*
X130300000Y-94900000D02*
X130600000Y-95200000D01*
X127000000Y-101350000D02*
X125200000Y-103150000D01*
X124780000Y-100000000D02*
X124780000Y-99520000D01*
X127950000Y-94900000D02*
X130300000Y-94900000D01*
X130600000Y-99150000D02*
X128400000Y-101350000D01*
%TO.N,/PA0*%
X95500000Y-109600000D02*
X96400000Y-110500000D01*
X124750000Y-104300000D02*
X124750000Y-102900000D01*
X123700000Y-105350000D02*
X124750000Y-104300000D01*
X110650000Y-110500000D02*
X115800000Y-105350000D01*
X115800000Y-105350000D02*
X123700000Y-105350000D01*
X124750000Y-102900000D02*
X127320000Y-100330000D01*
X127320000Y-100330000D02*
X127320000Y-100000000D01*
X96400000Y-110500000D02*
X110650000Y-110500000D01*
%TO.N,Net-(U1-UD+)*%
X129250000Y-104000000D02*
X130150000Y-103100000D01*
X134145000Y-99250000D02*
X134350000Y-99455000D01*
X133275000Y-99250000D02*
X134145000Y-99250000D01*
X134350000Y-100045000D02*
X134145000Y-100250000D01*
X134145000Y-100250000D02*
X133275000Y-100250000D01*
X131450000Y-100250000D02*
X133275000Y-100250000D01*
X130150000Y-103100000D02*
X130150000Y-101550000D01*
X130150000Y-101550000D02*
X131450000Y-100250000D01*
X134350000Y-99455000D02*
X134350000Y-100045000D01*
X127900000Y-104000000D02*
X129250000Y-104000000D01*
D31*
%TO.N,Net-(J3-CC1)*%
X132500000Y-101250000D02*
X131350000Y-102400000D01*
X133275000Y-101250000D02*
X132500000Y-101250000D01*
X131350000Y-102400000D02*
X131350000Y-103075000D01*
D29*
%TO.N,Net-(U1-UD-)*%
X131950000Y-100750000D02*
X131750000Y-100950000D01*
X133275000Y-100750000D02*
X131950000Y-100750000D01*
X129550000Y-102800000D02*
X128850000Y-103500000D01*
X131050000Y-99750000D02*
X129550000Y-101250000D01*
X129550000Y-101250000D02*
X129550000Y-102800000D01*
X128850000Y-103500000D02*
X127900000Y-103500000D01*
X133275000Y-99750000D02*
X131050000Y-99750000D01*
%TO.N,Net-(J3-CC2)*%
X133275000Y-98250000D02*
X131925000Y-98250000D01*
X131925000Y-98250000D02*
X131425000Y-98750000D01*
%TO.N,Net-(U1-~{RTS})*%
X127900000Y-102500000D02*
X126550000Y-102500000D01*
X125650000Y-103400000D02*
X125650000Y-106200000D01*
X119500000Y-108400000D02*
X119500000Y-107975000D01*
X125650000Y-106200000D02*
X122700000Y-109150000D01*
X120250000Y-109150000D02*
X119500000Y-108400000D01*
X126550000Y-102500000D02*
X125650000Y-103400000D01*
X122700000Y-109150000D02*
X120250000Y-109150000D01*
%TO.N,Net-(R6-Pad1)*%
X96125000Y-98300000D02*
X96125000Y-99800000D01*
%TO.N,Net-(J5-DAT2)*%
X96125000Y-101300000D02*
X96050000Y-101300000D01*
%TO.N,Net-(J5-DAT1)*%
X98475000Y-108625000D02*
X98450000Y-108600000D01*
%TO.N,Net-(J7-PadT)*%
X94450000Y-96800000D02*
X94450000Y-96000000D01*
X94450000Y-96800000D02*
X94450000Y-98275000D01*
X90930000Y-96150000D02*
X91405000Y-96150000D01*
X94450000Y-98275000D02*
X94475000Y-98300000D01*
X94450000Y-95325000D02*
X94475000Y-95300000D01*
X94450000Y-96000000D02*
X94450000Y-95325000D01*
%TD*%
M02*
