%TF.GenerationSoftware,KiCad,Pcbnew,7.0.1*%
%TF.CreationDate,2023-07-08T21:15:05-04:00*%
%TF.ProjectId,cdm324_exp,63646d33-3234-45f6-9578-702e6b696361,rev?*%
%TF.SameCoordinates,Original*%
%TF.FileFunction,Soldermask,Top*%
%TF.FilePolarity,Negative*%
%FSLAX46Y46*%
G04 Gerber Fmt 4.6, Leading zero omitted, Abs format (unit mm)*
G04 Created by KiCad (PCBNEW 7.0.1) date 2023-07-08 21:15:05*
%MOMM*%
%LPD*%
G01*
G04 APERTURE LIST*
G04 Aperture macros list*
%AMRoundRect*
0 Rectangle with rounded corners*
0 $1 Rounding radius*
0 $2 $3 $4 $5 $6 $7 $8 $9 X,Y pos of 4 corners*
0 Add a 4 corners polygon primitive as box body*
4,1,4,$2,$3,$4,$5,$6,$7,$8,$9,$2,$3,0*
0 Add four circle primitives for the rounded corners*
1,1,$1+$1,$2,$3*
1,1,$1+$1,$4,$5*
1,1,$1+$1,$6,$7*
1,1,$1+$1,$8,$9*
0 Add four rect primitives between the rounded corners*
20,1,$1+$1,$2,$3,$4,$5,0*
20,1,$1+$1,$4,$5,$6,$7,0*
20,1,$1+$1,$6,$7,$8,$9,0*
20,1,$1+$1,$8,$9,$2,$3,0*%
G04 Aperture macros list end*
%ADD10R,1.700000X1.700000*%
%ADD11O,1.700000X1.700000*%
%ADD12R,1.400000X0.300000*%
%ADD13RoundRect,0.200000X-0.275000X0.200000X-0.275000X-0.200000X0.275000X-0.200000X0.275000X0.200000X0*%
%ADD14RoundRect,0.218750X0.218750X0.256250X-0.218750X0.256250X-0.218750X-0.256250X0.218750X-0.256250X0*%
%ADD15RoundRect,0.200000X-0.200000X-0.275000X0.200000X-0.275000X0.200000X0.275000X-0.200000X0.275000X0*%
%ADD16RoundRect,0.225000X0.225000X0.250000X-0.225000X0.250000X-0.225000X-0.250000X0.225000X-0.250000X0*%
%ADD17C,1.500000*%
%ADD18R,1.200000X2.500000*%
%ADD19R,1.550000X1.300000*%
%ADD20RoundRect,0.200000X0.200000X0.275000X-0.200000X0.275000X-0.200000X-0.275000X0.200000X-0.275000X0*%
%ADD21RoundRect,0.225000X-0.225000X-0.250000X0.225000X-0.250000X0.225000X0.250000X-0.225000X0.250000X0*%
%ADD22RoundRect,0.200000X0.275000X-0.200000X0.275000X0.200000X-0.275000X0.200000X-0.275000X-0.200000X0*%
%ADD23R,1.600000X1.600000*%
%ADD24O,1.600000X1.600000*%
%ADD25C,0.650000*%
%ADD26R,1.240000X0.600000*%
%ADD27R,1.240000X0.300000*%
%ADD28O,2.100000X1.000000*%
%ADD29O,1.800000X1.000000*%
%ADD30C,1.200000*%
G04 APERTURE END LIST*
D10*
%TO.C,J6*%
X107600000Y-102900000D03*
D11*
X105060000Y-102900000D03*
X102520000Y-102900000D03*
X99980000Y-102900000D03*
%TD*%
D12*
%TO.C,U1*%
X127900000Y-104000000D03*
X127900000Y-103500000D03*
X127900000Y-103000000D03*
X127900000Y-102500000D03*
X127900000Y-102000000D03*
X123500000Y-102000000D03*
X123500000Y-102500000D03*
X123500000Y-103000000D03*
X123500000Y-103500000D03*
X123500000Y-104000000D03*
%TD*%
D13*
%TO.C,R2*%
X131350000Y-103075000D03*
X131350000Y-104725000D03*
%TD*%
D14*
%TO.C,FB1*%
X131387500Y-95700000D03*
X129812500Y-95700000D03*
%TD*%
D15*
%TO.C,R4*%
X94450000Y-96800000D03*
X96100000Y-96800000D03*
%TD*%
D16*
%TO.C,C3*%
X121275000Y-102100000D03*
X119725000Y-102100000D03*
%TD*%
D17*
%TO.C,J7*%
X82805000Y-99400000D03*
X89805000Y-99400000D03*
D18*
X87405000Y-96150000D03*
X84405000Y-96150000D03*
X92505000Y-102650000D03*
X91405000Y-96150000D03*
%TD*%
D15*
%TO.C,R5*%
X94475000Y-95300000D03*
X96125000Y-95300000D03*
%TD*%
%TO.C,R11*%
X94475000Y-105850000D03*
X96125000Y-105850000D03*
%TD*%
%TO.C,R9*%
X94475000Y-102800000D03*
X96125000Y-102800000D03*
%TD*%
D13*
%TO.C,R12*%
X100150000Y-105475000D03*
X100150000Y-107125000D03*
%TD*%
D15*
%TO.C,R8*%
X94475000Y-101300000D03*
X96125000Y-101300000D03*
%TD*%
D19*
%TO.C,SW2*%
X117675000Y-99950000D03*
X109725000Y-99950000D03*
X117675000Y-95450000D03*
X109725000Y-95450000D03*
%TD*%
D15*
%TO.C,R10*%
X96125000Y-104350000D03*
X94475000Y-104350000D03*
%TD*%
D20*
%TO.C,R13*%
X101725000Y-108600000D03*
X100075000Y-108600000D03*
%TD*%
D16*
%TO.C,C1*%
X121275000Y-104350000D03*
X119725000Y-104350000D03*
%TD*%
D19*
%TO.C,SW1*%
X117675000Y-106550000D03*
X109725000Y-106550000D03*
X117675000Y-102050000D03*
X109725000Y-102050000D03*
%TD*%
D21*
%TO.C,C4*%
X97575000Y-95300000D03*
X99125000Y-95300000D03*
%TD*%
D22*
%TO.C,R1*%
X119500000Y-107975000D03*
X119500000Y-106325000D03*
%TD*%
D23*
%TO.C,SW3*%
X121682500Y-107850000D03*
D24*
X129302500Y-107850000D03*
%TD*%
D16*
%TO.C,C2*%
X131375000Y-97250000D03*
X129825000Y-97250000D03*
%TD*%
D15*
%TO.C,R7*%
X94475000Y-99800000D03*
X96125000Y-99800000D03*
%TD*%
D20*
%TO.C,R3*%
X131425000Y-98750000D03*
X129775000Y-98750000D03*
%TD*%
D25*
%TO.C,J3*%
X134395000Y-102890000D03*
X134395000Y-97110000D03*
D26*
X133275000Y-103200000D03*
X133275000Y-102400000D03*
D27*
X133275000Y-101250000D03*
X133275000Y-100250000D03*
X133275000Y-99750000D03*
X133275000Y-98750000D03*
D26*
X133275000Y-97600000D03*
X133275000Y-96800000D03*
X133275000Y-96800000D03*
X133275000Y-97600000D03*
D27*
X133275000Y-98250000D03*
X133275000Y-99250000D03*
X133275000Y-100750000D03*
X133275000Y-101750000D03*
D26*
X133275000Y-102400000D03*
X133275000Y-103200000D03*
D28*
X133875000Y-104320000D03*
D29*
X138075000Y-104320000D03*
D28*
X133875000Y-95680000D03*
D29*
X138075000Y-95680000D03*
%TD*%
D20*
%TO.C,R6*%
X96125000Y-98300000D03*
X94475000Y-98300000D03*
%TD*%
D16*
%TO.C,C5*%
X91425000Y-105200000D03*
X92975000Y-105200000D03*
%TD*%
D30*
%TO.C,J5*%
X85950000Y-108100000D03*
X85950000Y-100100000D03*
%TD*%
D10*
%TO.C,J2*%
X119700000Y-100000000D03*
D11*
X119700000Y-97460000D03*
X122240000Y-100000000D03*
X122240000Y-97460000D03*
X124780000Y-100000000D03*
X124780000Y-97460000D03*
X127320000Y-100000000D03*
X127320000Y-97460000D03*
%TD*%
D10*
%TO.C,J1*%
X100000000Y-100000000D03*
D11*
X100000000Y-97460000D03*
X102540000Y-100000000D03*
X102540000Y-97460000D03*
X105080000Y-100000000D03*
X105080000Y-97460000D03*
X107620000Y-100000000D03*
X107620000Y-97460000D03*
%TD*%
M02*
