M48
; DRILL file {KiCad 7.0.1} date Sat Jul  8 21:15:14 2023
; FORMAT={-:-/ absolute / metric / decimal}
; #@! TF.CreationDate,2023-07-08T21:15:14-04:00
; #@! TF.GenerationSoftware,Kicad,Pcbnew,7.0.1
; #@! TF.FileFunction,MixedPlating,1,2
FMAT,2
METRIC
; #@! TA.AperFunction,Plated,PTH,ViaDrill
T1C0.300
; #@! TA.AperFunction,Plated,PTH,ComponentDrill
T2C0.600
; #@! TA.AperFunction,Plated,PTH,ComponentDrill
T3C1.000
; #@! TA.AperFunction,NonPlated,NPTH,ComponentDrill
T4C0.650
; #@! TA.AperFunction,NonPlated,NPTH,ComponentDrill
T5C1.200
; #@! TA.AperFunction,NonPlated,NPTH,ComponentDrill
T6C1.500
%
G90
G05
T1
X90.45Y-105.2
X92.48Y-100.9
X95.347Y-103.598
X95.5Y-109.6
X98.45Y-100.9
X98.45Y-102.0
X98.45Y-103.1
X98.45Y-105.3
X98.45Y-107.5
X98.45Y-108.6
X109.7Y-103.2
X113.85Y-95.7
X113.85Y-97.2
X118.2Y-97.099
X118.75Y-102.1
X118.75Y-104.35
X120.95Y-96.249
X126.5Y-103.55
X128.85Y-97.25
X128.85Y-98.75
X130.85Y-99.85
X131.35Y-105.6
X131.75Y-100.95
T3
X99.98Y-102.9
X100.0Y-97.46
X100.0Y-100.0
X102.52Y-102.9
X102.54Y-97.46
X102.54Y-100.0
X105.06Y-102.9
X105.08Y-97.46
X105.08Y-100.0
X107.6Y-102.9
X107.62Y-97.46
X107.62Y-100.0
X119.7Y-97.46
X119.7Y-100.0
X121.682Y-107.85
X122.24Y-97.46
X122.24Y-100.0
X124.78Y-97.46
X124.78Y-100.0
X127.32Y-97.46
X127.32Y-100.0
X129.302Y-107.85
T4
X134.395Y-97.11
X134.395Y-102.89
T5
X85.95Y-100.1
X85.95Y-108.1
T6
X82.805Y-99.4
X89.805Y-99.4
T2
G00X133.325Y-95.68
M15
G01X134.425Y-95.68
M16
G05
G00X133.325Y-104.32
M15
G01X134.425Y-104.32
M16
G05
G00X137.675Y-95.68
M15
G01X138.475Y-95.68
M16
G05
G00X137.675Y-104.32
M15
G01X138.475Y-104.32
M16
G05
T0
M30
