%TF.GenerationSoftware,KiCad,Pcbnew,7.0.1*%
%TF.CreationDate,2023-07-08T21:15:04-04:00*%
%TF.ProjectId,cdm324_exp,63646d33-3234-45f6-9578-702e6b696361,rev?*%
%TF.SameCoordinates,Original*%
%TF.FileFunction,Copper,L2,Bot*%
%TF.FilePolarity,Positive*%
%FSLAX46Y46*%
G04 Gerber Fmt 4.6, Leading zero omitted, Abs format (unit mm)*
G04 Created by KiCad (PCBNEW 7.0.1) date 2023-07-08 21:15:04*
%MOMM*%
%LPD*%
G01*
G04 APERTURE LIST*
%TA.AperFunction,ComponentPad*%
%ADD10R,1.700000X1.700000*%
%TD*%
%TA.AperFunction,ComponentPad*%
%ADD11O,1.700000X1.700000*%
%TD*%
%TA.AperFunction,ComponentPad*%
%ADD12R,1.600000X1.600000*%
%TD*%
%TA.AperFunction,ComponentPad*%
%ADD13O,1.600000X1.600000*%
%TD*%
%TA.AperFunction,ComponentPad*%
%ADD14O,2.100000X1.000000*%
%TD*%
%TA.AperFunction,ComponentPad*%
%ADD15O,1.800000X1.000000*%
%TD*%
%TA.AperFunction,SMDPad,CuDef*%
%ADD16R,1.600000X0.700000*%
%TD*%
%TA.AperFunction,SMDPad,CuDef*%
%ADD17R,2.200000X1.200000*%
%TD*%
%TA.AperFunction,SMDPad,CuDef*%
%ADD18R,1.500000X1.200000*%
%TD*%
%TA.AperFunction,SMDPad,CuDef*%
%ADD19R,1.500000X1.600000*%
%TD*%
%TA.AperFunction,ViaPad*%
%ADD20C,0.700000*%
%TD*%
%TA.AperFunction,Conductor*%
%ADD21C,0.500000*%
%TD*%
%TA.AperFunction,Conductor*%
%ADD22C,0.200000*%
%TD*%
G04 APERTURE END LIST*
D10*
%TO.P,J6,1,Pin_1*%
%TO.N,+3V3*%
X107600000Y-102900000D03*
D11*
%TO.P,J6,2,Pin_2*%
%TO.N,/I2C_SDA*%
X105060000Y-102900000D03*
%TO.P,J6,3,Pin_3*%
%TO.N,/I2C_SCL*%
X102520000Y-102900000D03*
%TO.P,J6,4,Pin_4*%
%TO.N,GND*%
X99980000Y-102900000D03*
%TD*%
D12*
%TO.P,SW3,1*%
%TO.N,/PA1*%
X121682500Y-107850000D03*
D13*
%TO.P,SW3,2*%
%TO.N,GND*%
X129302500Y-107850000D03*
%TD*%
D14*
%TO.P,J3,S1,SHIELD*%
%TO.N,GND*%
X133875000Y-104320000D03*
D15*
X138075000Y-104320000D03*
D14*
X133875000Y-95680000D03*
D15*
X138075000Y-95680000D03*
%TD*%
D16*
%TO.P,J5,1,DAT2*%
%TO.N,Net-(J5-DAT2)*%
X96950000Y-100900000D03*
%TO.P,J5,2,DAT3/CD*%
%TO.N,/SPI_nCS*%
X96950000Y-102000000D03*
%TO.P,J5,3,CMD*%
%TO.N,/SPI_MOSI*%
X96950000Y-103100000D03*
%TO.P,J5,4,VDD*%
%TO.N,+3V3*%
X96950000Y-104200000D03*
%TO.P,J5,5,CLK*%
%TO.N,/SPI_SCK*%
X96950000Y-105300000D03*
%TO.P,J5,6,VSS*%
%TO.N,GND*%
X96950000Y-106400000D03*
%TO.P,J5,7,DAT0*%
%TO.N,/SPI_MISO*%
X96950000Y-107500000D03*
%TO.P,J5,8,DAT1*%
%TO.N,Net-(J5-DAT1)*%
X96950000Y-108600000D03*
%TO.P,J5,9,DET*%
%TO.N,/PA0*%
X96950000Y-109700000D03*
D17*
%TO.P,J5,10,SHIELD*%
%TO.N,GND*%
X86350000Y-110900000D03*
D18*
X95950000Y-110900000D03*
D19*
X95950000Y-96300000D03*
D17*
X86350000Y-95400000D03*
%TD*%
D10*
%TO.P,J2,1,Pin_1*%
%TO.N,/UART_RX*%
X119700000Y-100000000D03*
D11*
%TO.P,J2,2,Pin_2*%
%TO.N,/VOUT*%
X119700000Y-97460000D03*
%TO.P,J2,3,Pin_3*%
%TO.N,/UART_TX*%
X122240000Y-100000000D03*
%TO.P,J2,4,Pin_4*%
%TO.N,GND*%
X122240000Y-97460000D03*
%TO.P,J2,5,Pin_5*%
%TO.N,/PA1*%
X124780000Y-100000000D03*
%TO.P,J2,6,Pin_6*%
%TO.N,+3V3*%
X124780000Y-97460000D03*
%TO.P,J2,7,Pin_7*%
%TO.N,/PA0*%
X127320000Y-100000000D03*
%TO.P,J2,8,Pin_8*%
%TO.N,VCC*%
X127320000Y-97460000D03*
%TD*%
D10*
%TO.P,J1,1,Pin_1*%
%TO.N,/nRESET*%
X100000000Y-100000000D03*
D11*
%TO.P,J1,2,Pin_2*%
%TO.N,/SPI_nCS*%
X100000000Y-97460000D03*
%TO.P,J1,3,Pin_3*%
%TO.N,/I2C_SCL*%
X102540000Y-100000000D03*
%TO.P,J1,4,Pin_4*%
%TO.N,/SPI_SCK*%
X102540000Y-97460000D03*
%TO.P,J1,5,Pin_5*%
%TO.N,/I2C_SDA*%
X105080000Y-100000000D03*
%TO.P,J1,6,Pin_6*%
%TO.N,/SPI_MISO*%
X105080000Y-97460000D03*
%TO.P,J1,7,Pin_7*%
%TO.N,/BOOT0*%
X107620000Y-100000000D03*
%TO.P,J1,8,Pin_8*%
%TO.N,/SPI_MOSI*%
X107620000Y-97460000D03*
%TD*%
D20*
%TO.N,GND*%
X90450000Y-105200000D03*
%TO.N,+3V3*%
X95347164Y-103597657D03*
%TO.N,Net-(J5-DAT2)*%
X98450000Y-100900000D03*
%TO.N,/SPI_nCS*%
X98450000Y-102000000D03*
%TO.N,/SPI_MOSI*%
X98450000Y-103100000D03*
%TO.N,/SPI_SCK*%
X98450000Y-105300000D03*
%TO.N,GND*%
X109700000Y-103200000D03*
X92480000Y-100900000D03*
X128850000Y-98750000D03*
X118750000Y-102100000D03*
X128850000Y-97250000D03*
X131350000Y-105600000D03*
X126500000Y-103550000D03*
X118750000Y-104350000D03*
%TO.N,+3V3*%
X113850000Y-97200000D03*
X113850000Y-95700000D03*
%TO.N,/SPI_MISO*%
X98450000Y-107500000D03*
%TO.N,/UART_TX*%
X118200000Y-97099500D03*
X120950000Y-96249500D03*
%TO.N,/PA0*%
X95500000Y-109600000D03*
%TO.N,Net-(U1-UD-)*%
X130850000Y-99850000D03*
X131750000Y-100950000D03*
%TO.N,Net-(J5-DAT1)*%
X98450000Y-108600000D03*
%TD*%
D21*
%TO.N,GND*%
X99980000Y-104720000D02*
X99950000Y-104750000D01*
X99980000Y-102900000D02*
X99980000Y-104720000D01*
X99980000Y-102900000D02*
X99980000Y-101570000D01*
X122240000Y-97460000D02*
X121050000Y-98650000D01*
X122240000Y-95760000D02*
X122250000Y-95750000D01*
X122240000Y-97460000D02*
X122240000Y-95760000D01*
X122240000Y-97460000D02*
X123480000Y-98700000D01*
X123480000Y-98700000D02*
X123550000Y-98700000D01*
%TO.N,+3V3*%
X95949507Y-104200000D02*
X95347164Y-103597657D01*
X96950000Y-104200000D02*
X95949507Y-104200000D01*
D22*
%TO.N,Net-(J5-DAT2)*%
X97950000Y-100900000D02*
X98450000Y-100900000D01*
X97950000Y-100900000D02*
X98050000Y-100900000D01*
X96950000Y-100900000D02*
X97950000Y-100900000D01*
%TO.N,/SPI_nCS*%
X96950000Y-102000000D02*
X98450000Y-102000000D01*
%TO.N,/SPI_MOSI*%
X96950000Y-103100000D02*
X98450000Y-103100000D01*
%TO.N,/SPI_SCK*%
X96950000Y-105300000D02*
X98450000Y-105300000D01*
D21*
%TO.N,+3V3*%
X96950000Y-104200000D02*
X96100000Y-104200000D01*
D22*
%TO.N,/SPI_nCS*%
X96950000Y-102000000D02*
X97950000Y-102000000D01*
D21*
%TO.N,+3V3*%
X113850000Y-97200000D02*
X113850000Y-95700000D01*
D22*
%TO.N,/SPI_MISO*%
X96950000Y-107500000D02*
X98450000Y-107500000D01*
%TO.N,/UART_TX*%
X119050000Y-96249500D02*
X120950000Y-96249500D01*
X118200000Y-97099500D02*
X119050000Y-96249500D01*
%TO.N,/PA0*%
X96950000Y-109700000D02*
X95600000Y-109700000D01*
X95600000Y-109700000D02*
X95500000Y-109600000D01*
%TO.N,Net-(U1-UD-)*%
X131750000Y-100750000D02*
X130850000Y-99850000D01*
X131750000Y-100950000D02*
X131750000Y-100750000D01*
%TO.N,Net-(J5-DAT1)*%
X96950000Y-108600000D02*
X98450000Y-108600000D01*
%TD*%
%TA.AperFunction,Conductor*%
%TO.N,GND*%
G36*
X84700500Y-95013263D02*
G01*
X84736737Y-95049500D01*
X84750000Y-95099000D01*
X84750000Y-95149999D01*
X84750001Y-95150000D01*
X87949999Y-95150000D01*
X87950000Y-95149999D01*
X87950000Y-95099000D01*
X87963263Y-95049500D01*
X87999500Y-95013263D01*
X88049000Y-95000000D01*
X94751941Y-95000000D01*
X94803970Y-95014774D01*
X94840470Y-95054686D01*
X94850547Y-95107825D01*
X94831194Y-95158329D01*
X94756646Y-95257910D01*
X94706401Y-95392623D01*
X94700000Y-95452174D01*
X94700000Y-96049999D01*
X94700001Y-96050000D01*
X97199999Y-96050000D01*
X97200000Y-96049999D01*
X97200000Y-95452174D01*
X97193598Y-95392623D01*
X97143353Y-95257910D01*
X97068806Y-95158329D01*
X97049453Y-95107825D01*
X97059530Y-95054686D01*
X97096030Y-95014774D01*
X97148059Y-95000000D01*
X113603718Y-95000000D01*
X113655445Y-95014589D01*
X113691928Y-95054055D01*
X113702413Y-95106768D01*
X113683811Y-95157191D01*
X113641604Y-95190464D01*
X113572373Y-95219139D01*
X113457378Y-95307378D01*
X113369139Y-95422375D01*
X113313669Y-95556290D01*
X113294750Y-95699999D01*
X113313669Y-95843709D01*
X113369139Y-95977625D01*
X113379042Y-95990531D01*
X113394246Y-96018976D01*
X113399500Y-96050798D01*
X113399500Y-96849202D01*
X113394246Y-96881024D01*
X113379042Y-96909469D01*
X113369139Y-96922374D01*
X113313669Y-97056290D01*
X113294750Y-97199999D01*
X113313669Y-97343709D01*
X113347171Y-97424589D01*
X113369139Y-97477625D01*
X113407450Y-97527552D01*
X113457378Y-97592621D01*
X113506346Y-97630195D01*
X113572375Y-97680861D01*
X113667067Y-97720083D01*
X113706290Y-97736330D01*
X113723008Y-97738531D01*
X113850000Y-97755250D01*
X113993709Y-97736330D01*
X114127625Y-97680861D01*
X114242621Y-97592621D01*
X114330861Y-97477625D01*
X114386330Y-97343709D01*
X114405250Y-97200000D01*
X114392019Y-97099499D01*
X117644750Y-97099499D01*
X117663669Y-97243209D01*
X117691153Y-97309561D01*
X117719139Y-97377125D01*
X117751585Y-97419409D01*
X117807378Y-97492121D01*
X117857306Y-97530432D01*
X117922375Y-97580361D01*
X118017067Y-97619583D01*
X118056290Y-97635830D01*
X118073008Y-97638031D01*
X118200000Y-97654750D01*
X118343709Y-97635830D01*
X118477625Y-97580361D01*
X118502389Y-97561358D01*
X118550536Y-97541645D01*
X118602032Y-97549068D01*
X118642653Y-97581577D01*
X118661179Y-97630195D01*
X118664699Y-97665933D01*
X118686054Y-97736330D01*
X118724768Y-97863954D01*
X118822315Y-98046450D01*
X118953590Y-98206410D01*
X119113550Y-98337685D01*
X119296046Y-98435232D01*
X119494066Y-98495300D01*
X119700000Y-98515583D01*
X119905934Y-98495300D01*
X120103954Y-98435232D01*
X120286450Y-98337685D01*
X120446410Y-98206410D01*
X120577685Y-98046450D01*
X120675232Y-97863954D01*
X120720819Y-97713671D01*
X120747409Y-97670598D01*
X120791815Y-97646299D01*
X120842428Y-97647127D01*
X120886016Y-97672866D01*
X120911183Y-97716787D01*
X120966570Y-97923495D01*
X121066398Y-98137576D01*
X121201887Y-98331074D01*
X121368925Y-98498112D01*
X121562423Y-98633601D01*
X121776504Y-98733429D01*
X121983212Y-98788816D01*
X122027133Y-98813983D01*
X122052872Y-98857570D01*
X122053700Y-98908183D01*
X122029401Y-98952590D01*
X121986327Y-98979180D01*
X121836047Y-99024766D01*
X121653549Y-99122315D01*
X121493590Y-99253590D01*
X121362315Y-99413549D01*
X121264767Y-99596047D01*
X121204699Y-99794066D01*
X121184416Y-100000000D01*
X121204699Y-100205933D01*
X121263833Y-100400872D01*
X121264768Y-100403954D01*
X121362315Y-100586450D01*
X121493590Y-100746410D01*
X121653550Y-100877685D01*
X121836046Y-100975232D01*
X122034066Y-101035300D01*
X122240000Y-101055583D01*
X122445934Y-101035300D01*
X122643954Y-100975232D01*
X122826450Y-100877685D01*
X122986410Y-100746410D01*
X123117685Y-100586450D01*
X123215232Y-100403954D01*
X123275300Y-100205934D01*
X123295583Y-100000000D01*
X123724416Y-100000000D01*
X123744699Y-100205933D01*
X123803833Y-100400872D01*
X123804768Y-100403954D01*
X123902315Y-100586450D01*
X124033590Y-100746410D01*
X124193550Y-100877685D01*
X124376046Y-100975232D01*
X124574066Y-101035300D01*
X124780000Y-101055583D01*
X124985934Y-101035300D01*
X125183954Y-100975232D01*
X125366450Y-100877685D01*
X125526410Y-100746410D01*
X125657685Y-100586450D01*
X125755232Y-100403954D01*
X125815300Y-100205934D01*
X125835583Y-100000000D01*
X126264416Y-100000000D01*
X126284699Y-100205933D01*
X126343833Y-100400872D01*
X126344768Y-100403954D01*
X126442315Y-100586450D01*
X126573590Y-100746410D01*
X126733550Y-100877685D01*
X126916046Y-100975232D01*
X127114066Y-101035300D01*
X127320000Y-101055583D01*
X127525934Y-101035300D01*
X127723954Y-100975232D01*
X127906450Y-100877685D01*
X128066410Y-100746410D01*
X128197685Y-100586450D01*
X128295232Y-100403954D01*
X128355300Y-100205934D01*
X128375583Y-100000000D01*
X128360809Y-99850000D01*
X130294750Y-99850000D01*
X130296951Y-99866717D01*
X130313669Y-99993709D01*
X130318708Y-100005873D01*
X130369139Y-100127625D01*
X130381656Y-100143937D01*
X130457378Y-100242621D01*
X130507306Y-100280932D01*
X130572375Y-100330861D01*
X130667067Y-100370083D01*
X130706290Y-100386330D01*
X130728078Y-100389198D01*
X130850000Y-100405250D01*
X130916720Y-100396465D01*
X130961461Y-100400872D01*
X130999643Y-100424614D01*
X131215998Y-100640969D01*
X131243092Y-100691658D01*
X131237459Y-100748857D01*
X131213669Y-100806291D01*
X131194750Y-100949999D01*
X131213669Y-101093709D01*
X131248429Y-101177625D01*
X131269139Y-101227625D01*
X131301461Y-101269747D01*
X131357378Y-101342621D01*
X131394960Y-101371458D01*
X131472375Y-101430861D01*
X131567067Y-101470083D01*
X131606290Y-101486330D01*
X131623008Y-101488531D01*
X131750000Y-101505250D01*
X131893709Y-101486330D01*
X132027625Y-101430861D01*
X132142621Y-101342621D01*
X132230861Y-101227625D01*
X132286330Y-101093709D01*
X132305250Y-100950000D01*
X132286330Y-100806291D01*
X132230861Y-100672375D01*
X132164928Y-100586450D01*
X132142621Y-100557378D01*
X132027625Y-100469139D01*
X131893709Y-100413669D01*
X131863608Y-100409706D01*
X131832744Y-100400343D01*
X131806528Y-100381557D01*
X131424614Y-99999643D01*
X131400872Y-99961461D01*
X131396465Y-99916720D01*
X131405250Y-99850000D01*
X131386330Y-99706291D01*
X131375358Y-99679803D01*
X131362509Y-99648782D01*
X131330861Y-99572375D01*
X131271216Y-99494644D01*
X131242621Y-99457378D01*
X131154759Y-99389960D01*
X131127625Y-99369139D01*
X131080212Y-99349500D01*
X130993709Y-99313669D01*
X130850000Y-99294750D01*
X130706290Y-99313669D01*
X130572375Y-99369139D01*
X130457378Y-99457378D01*
X130369139Y-99572375D01*
X130313669Y-99706290D01*
X130301238Y-99800719D01*
X130294750Y-99850000D01*
X128360809Y-99850000D01*
X128355300Y-99794066D01*
X128295232Y-99596046D01*
X128197685Y-99413550D01*
X128066410Y-99253590D01*
X127906450Y-99122315D01*
X127723954Y-99024768D01*
X127723953Y-99024767D01*
X127723952Y-99024767D01*
X127525933Y-98964699D01*
X127319999Y-98944416D01*
X127114066Y-98964699D01*
X126916047Y-99024767D01*
X126733549Y-99122315D01*
X126573590Y-99253590D01*
X126442315Y-99413549D01*
X126344767Y-99596047D01*
X126284699Y-99794066D01*
X126264416Y-100000000D01*
X125835583Y-100000000D01*
X125815300Y-99794066D01*
X125755232Y-99596046D01*
X125657685Y-99413550D01*
X125526410Y-99253590D01*
X125366450Y-99122315D01*
X125183954Y-99024768D01*
X125183953Y-99024767D01*
X125183952Y-99024767D01*
X124985933Y-98964699D01*
X124779999Y-98944416D01*
X124574066Y-98964699D01*
X124376047Y-99024767D01*
X124193549Y-99122315D01*
X124033590Y-99253590D01*
X123902315Y-99413549D01*
X123804767Y-99596047D01*
X123744699Y-99794066D01*
X123724416Y-100000000D01*
X123295583Y-100000000D01*
X123275300Y-99794066D01*
X123215232Y-99596046D01*
X123117685Y-99413550D01*
X122986410Y-99253590D01*
X122826450Y-99122315D01*
X122643954Y-99024768D01*
X122643953Y-99024767D01*
X122643952Y-99024767D01*
X122493672Y-98979180D01*
X122450598Y-98952590D01*
X122426299Y-98908184D01*
X122427127Y-98857570D01*
X122452866Y-98813983D01*
X122496787Y-98788816D01*
X122703495Y-98733429D01*
X122917576Y-98633601D01*
X123111074Y-98498112D01*
X123278112Y-98331074D01*
X123413601Y-98137576D01*
X123513429Y-97923495D01*
X123568816Y-97716787D01*
X123593983Y-97672866D01*
X123637570Y-97647127D01*
X123688184Y-97646299D01*
X123732590Y-97670598D01*
X123759180Y-97713672D01*
X123771793Y-97755250D01*
X123804768Y-97863954D01*
X123902315Y-98046450D01*
X124033590Y-98206410D01*
X124193550Y-98337685D01*
X124376046Y-98435232D01*
X124574066Y-98495300D01*
X124780000Y-98515583D01*
X124985934Y-98495300D01*
X125183954Y-98435232D01*
X125366450Y-98337685D01*
X125526410Y-98206410D01*
X125657685Y-98046450D01*
X125755232Y-97863954D01*
X125815300Y-97665934D01*
X125835583Y-97460000D01*
X125835583Y-97459999D01*
X126264416Y-97459999D01*
X126284699Y-97665933D01*
X126306054Y-97736330D01*
X126344768Y-97863954D01*
X126442315Y-98046450D01*
X126573590Y-98206410D01*
X126733550Y-98337685D01*
X126916046Y-98435232D01*
X127114066Y-98495300D01*
X127320000Y-98515583D01*
X127525934Y-98495300D01*
X127723954Y-98435232D01*
X127906450Y-98337685D01*
X128066410Y-98206410D01*
X128197685Y-98046450D01*
X128295232Y-97863954D01*
X128355300Y-97665934D01*
X128375583Y-97460000D01*
X128355300Y-97254066D01*
X128332337Y-97178367D01*
X133919500Y-97178367D01*
X133958022Y-97309562D01*
X134031944Y-97424589D01*
X134135279Y-97514129D01*
X134259660Y-97570932D01*
X134360986Y-97585500D01*
X134360989Y-97585500D01*
X134429011Y-97585500D01*
X134429014Y-97585500D01*
X134530339Y-97570932D01*
X134530340Y-97570931D01*
X134530342Y-97570931D01*
X134654718Y-97514130D01*
X134654718Y-97514129D01*
X134654720Y-97514129D01*
X134758055Y-97424589D01*
X134788558Y-97377124D01*
X134831978Y-97309561D01*
X134870500Y-97178367D01*
X134870500Y-97041633D01*
X134831978Y-96910439D01*
X134814221Y-96882808D01*
X134758055Y-96795410D01*
X134746527Y-96785421D01*
X134717569Y-96742298D01*
X134714431Y-96690449D01*
X134737976Y-96644148D01*
X134781723Y-96616142D01*
X134821390Y-96603697D01*
X134999212Y-96504997D01*
X135153531Y-96372519D01*
X135278019Y-96211693D01*
X135367587Y-96029096D01*
X135393246Y-95930001D01*
X136701632Y-95930001D01*
X136701929Y-95931941D01*
X136772566Y-96122667D01*
X136880145Y-96295263D01*
X137020268Y-96442670D01*
X137187193Y-96558855D01*
X137374095Y-96639061D01*
X137573307Y-96680000D01*
X137824999Y-96680000D01*
X137825000Y-96679999D01*
X137825000Y-95930001D01*
X137824999Y-95930000D01*
X136701634Y-95930000D01*
X136701632Y-95930001D01*
X135393246Y-95930001D01*
X135393246Y-95930000D01*
X134125001Y-95930000D01*
X134125000Y-95930001D01*
X134125000Y-96669567D01*
X134116053Y-96710693D01*
X134090831Y-96744387D01*
X134031942Y-96795413D01*
X133958022Y-96910437D01*
X133919500Y-97041633D01*
X133919500Y-97178367D01*
X128332337Y-97178367D01*
X128295232Y-97056046D01*
X128197685Y-96873550D01*
X128066410Y-96713590D01*
X127906450Y-96582315D01*
X127723954Y-96484768D01*
X127723953Y-96484767D01*
X127723952Y-96484767D01*
X127525933Y-96424699D01*
X127320000Y-96404416D01*
X127114066Y-96424699D01*
X126916047Y-96484767D01*
X126733549Y-96582315D01*
X126573590Y-96713590D01*
X126442315Y-96873549D01*
X126344767Y-97056047D01*
X126284699Y-97254066D01*
X126264416Y-97459999D01*
X125835583Y-97459999D01*
X125815300Y-97254066D01*
X125755232Y-97056046D01*
X125657685Y-96873550D01*
X125526410Y-96713590D01*
X125366450Y-96582315D01*
X125183954Y-96484768D01*
X125183953Y-96484767D01*
X125183952Y-96484767D01*
X124985933Y-96424699D01*
X124780000Y-96404416D01*
X124574066Y-96424699D01*
X124376047Y-96484767D01*
X124193549Y-96582315D01*
X124033590Y-96713590D01*
X123902315Y-96873549D01*
X123804766Y-97056047D01*
X123759180Y-97206327D01*
X123732590Y-97249401D01*
X123688183Y-97273700D01*
X123637570Y-97272872D01*
X123593983Y-97247133D01*
X123568816Y-97203212D01*
X123513429Y-96996504D01*
X123413601Y-96782424D01*
X123278112Y-96588925D01*
X123111074Y-96421887D01*
X122917576Y-96286398D01*
X122703495Y-96186570D01*
X122490000Y-96129364D01*
X122490000Y-97611000D01*
X122476737Y-97660500D01*
X122440500Y-97696737D01*
X122391000Y-97710000D01*
X122089000Y-97710000D01*
X122039500Y-97696737D01*
X122003263Y-97660500D01*
X121990000Y-97611000D01*
X121990000Y-96129364D01*
X121776509Y-96186569D01*
X121635502Y-96252322D01*
X121575056Y-96259833D01*
X121521653Y-96230535D01*
X121495510Y-96175519D01*
X121486330Y-96105790D01*
X121463221Y-96050000D01*
X121430861Y-95971875D01*
X121398730Y-95930001D01*
X132351632Y-95930001D01*
X132351929Y-95931941D01*
X132422566Y-96122667D01*
X132530145Y-96295263D01*
X132670268Y-96442670D01*
X132837193Y-96558855D01*
X133024095Y-96639061D01*
X133223307Y-96680000D01*
X133624999Y-96680000D01*
X133625000Y-96679999D01*
X133625000Y-95930001D01*
X133624999Y-95930000D01*
X132351634Y-95930000D01*
X132351632Y-95930001D01*
X121398730Y-95930001D01*
X121380932Y-95906806D01*
X121342621Y-95856878D01*
X121277552Y-95806950D01*
X121227625Y-95768639D01*
X121188401Y-95752392D01*
X121093709Y-95713169D01*
X120950000Y-95694250D01*
X120806290Y-95713169D01*
X120672375Y-95768639D01*
X120557381Y-95856876D01*
X120557378Y-95856879D01*
X120557379Y-95856879D01*
X120516411Y-95910269D01*
X120481658Y-95938790D01*
X120437871Y-95949000D01*
X119115169Y-95949000D01*
X119099242Y-95946401D01*
X119045338Y-95948894D01*
X119040766Y-95949000D01*
X119022153Y-95949000D01*
X119022030Y-95949023D01*
X119008433Y-95950599D01*
X118980009Y-95951913D01*
X118971010Y-95955887D01*
X118949219Y-95962634D01*
X118939566Y-95964438D01*
X118915383Y-95979411D01*
X118903261Y-95985801D01*
X118877234Y-95997294D01*
X118870285Y-96004243D01*
X118852408Y-96018404D01*
X118844047Y-96023581D01*
X118826907Y-96046277D01*
X118817910Y-96056617D01*
X118349643Y-96524884D01*
X118311462Y-96548626D01*
X118266718Y-96553033D01*
X118200000Y-96544250D01*
X118056290Y-96563169D01*
X117922375Y-96618639D01*
X117807378Y-96706878D01*
X117719139Y-96821875D01*
X117663669Y-96955790D01*
X117644750Y-97099499D01*
X114392019Y-97099499D01*
X114386330Y-97056291D01*
X114370832Y-97018876D01*
X114344702Y-96955791D01*
X114330861Y-96922375D01*
X114320958Y-96909469D01*
X114305754Y-96881024D01*
X114300500Y-96849202D01*
X114300500Y-96050798D01*
X114305754Y-96018976D01*
X114320958Y-95990531D01*
X114324587Y-95985801D01*
X114330861Y-95977625D01*
X114386330Y-95843709D01*
X114405250Y-95700000D01*
X114386330Y-95556291D01*
X114330861Y-95422375D01*
X114260672Y-95330903D01*
X114242621Y-95307378D01*
X114127626Y-95219139D01*
X114058396Y-95190464D01*
X114016189Y-95157191D01*
X113997587Y-95106768D01*
X114008072Y-95054055D01*
X114044555Y-95014589D01*
X114096282Y-95000000D01*
X132385897Y-95000000D01*
X132433942Y-95012440D01*
X132469913Y-95046633D01*
X132484770Y-95093986D01*
X132474780Y-95142599D01*
X132382412Y-95330903D01*
X132356754Y-95430000D01*
X135398367Y-95430000D01*
X135398367Y-95429998D01*
X135398070Y-95428058D01*
X135327433Y-95237332D01*
X135273851Y-95151367D01*
X135258899Y-95101508D01*
X135271307Y-95050955D01*
X135307645Y-95013685D01*
X135357867Y-95000000D01*
X136735897Y-95000000D01*
X136783942Y-95012440D01*
X136819913Y-95046633D01*
X136834770Y-95093986D01*
X136824780Y-95142599D01*
X136732412Y-95330903D01*
X136706754Y-95430000D01*
X138226000Y-95430000D01*
X138275500Y-95443263D01*
X138311737Y-95479500D01*
X138325000Y-95529000D01*
X138325000Y-96679999D01*
X138325001Y-96680000D01*
X138525713Y-96680000D01*
X138677335Y-96664581D01*
X138871363Y-96603705D01*
X138932228Y-96604219D01*
X138981289Y-96640245D01*
X139000000Y-96698165D01*
X139000000Y-103306891D01*
X138988162Y-103353836D01*
X138955479Y-103389553D01*
X138909767Y-103405502D01*
X138861959Y-103397868D01*
X138775904Y-103360938D01*
X138576693Y-103320000D01*
X138325001Y-103320000D01*
X138325000Y-103320001D01*
X138325000Y-105319999D01*
X138325001Y-105320000D01*
X138525713Y-105320000D01*
X138677335Y-105304581D01*
X138871363Y-105243705D01*
X138932228Y-105244219D01*
X138981289Y-105280245D01*
X139000000Y-105338165D01*
X139000000Y-111401000D01*
X138986737Y-111450500D01*
X138950500Y-111486737D01*
X138901000Y-111500000D01*
X97299000Y-111500000D01*
X97249500Y-111486737D01*
X97213263Y-111450500D01*
X97200000Y-111401000D01*
X97200000Y-111150001D01*
X97199999Y-111150000D01*
X94700001Y-111150000D01*
X94700000Y-111150001D01*
X94700000Y-111401000D01*
X94686737Y-111450500D01*
X94650500Y-111486737D01*
X94601000Y-111500000D01*
X88049000Y-111500000D01*
X87999500Y-111486737D01*
X87963263Y-111450500D01*
X87950000Y-111401000D01*
X87950000Y-111150001D01*
X87949999Y-111150000D01*
X84750001Y-111150000D01*
X84750000Y-111150001D01*
X84750000Y-111401000D01*
X84736737Y-111450500D01*
X84700500Y-111486737D01*
X84651000Y-111500000D01*
X80099000Y-111500000D01*
X80049500Y-111486737D01*
X80013263Y-111450500D01*
X80000000Y-111401000D01*
X80000000Y-110649999D01*
X84750000Y-110649999D01*
X84750001Y-110650000D01*
X86099999Y-110650000D01*
X86100000Y-110649999D01*
X86600000Y-110649999D01*
X86600001Y-110650000D01*
X87949999Y-110650000D01*
X87950000Y-110649999D01*
X94700000Y-110649999D01*
X94700001Y-110650000D01*
X97199999Y-110650000D01*
X97200000Y-110649999D01*
X97200000Y-110349500D01*
X97213263Y-110300000D01*
X97249500Y-110263763D01*
X97299000Y-110250500D01*
X97769747Y-110250500D01*
X97769748Y-110250500D01*
X97828231Y-110238867D01*
X97894552Y-110194552D01*
X97938867Y-110128231D01*
X97950500Y-110069748D01*
X97950500Y-109330252D01*
X97938867Y-109271769D01*
X97894552Y-109205448D01*
X97894254Y-109205002D01*
X97877569Y-109150001D01*
X97894253Y-109094999D01*
X97903700Y-109080861D01*
X97936040Y-109032460D01*
X97976514Y-108997740D01*
X98029131Y-108989052D01*
X98078621Y-109008922D01*
X98125314Y-109044750D01*
X98172375Y-109080861D01*
X98206508Y-109094999D01*
X98306290Y-109136330D01*
X98323008Y-109138531D01*
X98450000Y-109155250D01*
X98593709Y-109136330D01*
X98727625Y-109080861D01*
X98842621Y-108992621D01*
X98930861Y-108877625D01*
X98986330Y-108743709D01*
X98996067Y-108669747D01*
X120682000Y-108669747D01*
X120693633Y-108728231D01*
X120737947Y-108794552D01*
X120782261Y-108824162D01*
X120804269Y-108838867D01*
X120862752Y-108850500D01*
X122502247Y-108850500D01*
X122502248Y-108850500D01*
X122560731Y-108838867D01*
X122627052Y-108794552D01*
X122671367Y-108728231D01*
X122683000Y-108669748D01*
X122683000Y-108100000D01*
X128023628Y-108100000D01*
X128076234Y-108296329D01*
X128172364Y-108502480D01*
X128302835Y-108688812D01*
X128463687Y-108849664D01*
X128650019Y-108980135D01*
X128856170Y-109076265D01*
X129052500Y-109128872D01*
X129552500Y-109128872D01*
X129748829Y-109076265D01*
X129954980Y-108980135D01*
X130141312Y-108849664D01*
X130302164Y-108688812D01*
X130432635Y-108502480D01*
X130528765Y-108296329D01*
X130581372Y-108100000D01*
X129552501Y-108100000D01*
X129552500Y-108100001D01*
X129552500Y-109128872D01*
X129052500Y-109128872D01*
X129052500Y-108100001D01*
X129052499Y-108100000D01*
X128023628Y-108100000D01*
X122683000Y-108100000D01*
X122683000Y-107600000D01*
X128023628Y-107600000D01*
X129052499Y-107600000D01*
X129052500Y-107599999D01*
X129052500Y-106571128D01*
X129552500Y-106571128D01*
X129552500Y-107599999D01*
X129552501Y-107600000D01*
X130581372Y-107600000D01*
X130528765Y-107403670D01*
X130432635Y-107197519D01*
X130302164Y-107011187D01*
X130141312Y-106850335D01*
X129954980Y-106719864D01*
X129748829Y-106623734D01*
X129552500Y-106571128D01*
X129052500Y-106571128D01*
X128856170Y-106623734D01*
X128650019Y-106719864D01*
X128463687Y-106850335D01*
X128302835Y-107011187D01*
X128172364Y-107197519D01*
X128076234Y-107403670D01*
X128023628Y-107600000D01*
X122683000Y-107600000D01*
X122683000Y-107030252D01*
X122671367Y-106971769D01*
X122653313Y-106944750D01*
X122627052Y-106905447D01*
X122560731Y-106861133D01*
X122541843Y-106857376D01*
X122502248Y-106849500D01*
X120862752Y-106849500D01*
X120833510Y-106855316D01*
X120804268Y-106861133D01*
X120737947Y-106905447D01*
X120693633Y-106971768D01*
X120682000Y-107030253D01*
X120682000Y-108669747D01*
X98996067Y-108669747D01*
X99005250Y-108600000D01*
X98986330Y-108456291D01*
X98930861Y-108322375D01*
X98842621Y-108207379D01*
X98739878Y-108128541D01*
X98705728Y-108079768D01*
X98705728Y-108020228D01*
X98739875Y-107971460D01*
X98842621Y-107892621D01*
X98930861Y-107777625D01*
X98986330Y-107643709D01*
X99005250Y-107500000D01*
X98986330Y-107356291D01*
X98930861Y-107222375D01*
X98880932Y-107157306D01*
X98842621Y-107107378D01*
X98777552Y-107057450D01*
X98727625Y-107019139D01*
X98662320Y-106992089D01*
X98593709Y-106963669D01*
X98466717Y-106946951D01*
X98450000Y-106944750D01*
X98449999Y-106944750D01*
X98355917Y-106957136D01*
X98297979Y-106947157D01*
X98255917Y-106906083D01*
X98244562Y-106848399D01*
X98250000Y-106797823D01*
X98250000Y-106650001D01*
X98249999Y-106650000D01*
X95650001Y-106650000D01*
X95650000Y-106650001D01*
X95650000Y-106797826D01*
X95656401Y-106857376D01*
X95706646Y-106992089D01*
X95792811Y-107107188D01*
X95909829Y-107194789D01*
X95939029Y-107229728D01*
X95949500Y-107274042D01*
X95949500Y-107869748D01*
X95953340Y-107889052D01*
X95961133Y-107928231D01*
X96005746Y-107994999D01*
X96022430Y-108050000D01*
X96005746Y-108105001D01*
X95961133Y-108171768D01*
X95949500Y-108230253D01*
X95949500Y-108969747D01*
X95964211Y-109043705D01*
X95957945Y-109102396D01*
X95919392Y-109147090D01*
X95862256Y-109161900D01*
X95806846Y-109141561D01*
X95790309Y-109128872D01*
X95777625Y-109119139D01*
X95737203Y-109102396D01*
X95643709Y-109063669D01*
X95500000Y-109044750D01*
X95356290Y-109063669D01*
X95222375Y-109119139D01*
X95107378Y-109207378D01*
X95019139Y-109322375D01*
X94963669Y-109456290D01*
X94944750Y-109599999D01*
X94963669Y-109743708D01*
X94968585Y-109755576D01*
X94976008Y-109798172D01*
X94964569Y-109839868D01*
X94936449Y-109872713D01*
X94842811Y-109942811D01*
X94756646Y-110057910D01*
X94706401Y-110192623D01*
X94700000Y-110252174D01*
X94700000Y-110649999D01*
X87950000Y-110649999D01*
X87950000Y-110252174D01*
X87943598Y-110192623D01*
X87893353Y-110057910D01*
X87807188Y-109942811D01*
X87692089Y-109856646D01*
X87557376Y-109806401D01*
X87497826Y-109800000D01*
X86600001Y-109800000D01*
X86600000Y-109800001D01*
X86600000Y-110649999D01*
X86100000Y-110649999D01*
X86100000Y-109800001D01*
X86099999Y-109800000D01*
X85202174Y-109800000D01*
X85142623Y-109806401D01*
X85007910Y-109856646D01*
X84892811Y-109942811D01*
X84806646Y-110057910D01*
X84756401Y-110192623D01*
X84750000Y-110252174D01*
X84750000Y-110649999D01*
X80000000Y-110649999D01*
X80000000Y-108143937D01*
X85195669Y-108143937D01*
X85226134Y-108316712D01*
X85286343Y-108456290D01*
X85295623Y-108477804D01*
X85400390Y-108618530D01*
X85461428Y-108669747D01*
X85534783Y-108731300D01*
X85534784Y-108731300D01*
X85534786Y-108731302D01*
X85660728Y-108794552D01*
X85691569Y-108810041D01*
X85862277Y-108850500D01*
X85862279Y-108850500D01*
X85993704Y-108850500D01*
X85993709Y-108850500D01*
X86124255Y-108835241D01*
X86289117Y-108775237D01*
X86435696Y-108678830D01*
X86556092Y-108551218D01*
X86643812Y-108399281D01*
X86694130Y-108231210D01*
X86704331Y-108056065D01*
X86675510Y-107892618D01*
X86673865Y-107883287D01*
X86604377Y-107722197D01*
X86604377Y-107722196D01*
X86499610Y-107581470D01*
X86432412Y-107525084D01*
X86365216Y-107468699D01*
X86208430Y-107389958D01*
X86037723Y-107349500D01*
X86037721Y-107349500D01*
X85906291Y-107349500D01*
X85813043Y-107360399D01*
X85775743Y-107364759D01*
X85610882Y-107424763D01*
X85464304Y-107521169D01*
X85343909Y-107648780D01*
X85256188Y-107800719D01*
X85205870Y-107968789D01*
X85202874Y-108020228D01*
X85201789Y-108038867D01*
X85195669Y-108143937D01*
X80000000Y-108143937D01*
X80000000Y-103597657D01*
X94791914Y-103597657D01*
X94810833Y-103741366D01*
X94846814Y-103828231D01*
X94866303Y-103875282D01*
X94904614Y-103925209D01*
X94954542Y-103990278D01*
X95004470Y-104028589D01*
X95069539Y-104078518D01*
X95164231Y-104117740D01*
X95203454Y-104133987D01*
X95208156Y-104134605D01*
X95219578Y-104136109D01*
X95250443Y-104145471D01*
X95276662Y-104164258D01*
X95609135Y-104496731D01*
X95616532Y-104505009D01*
X95639628Y-104533971D01*
X95687251Y-104566440D01*
X95690269Y-104568581D01*
X95694822Y-104571941D01*
X95736625Y-104602793D01*
X95736627Y-104602793D01*
X95739416Y-104604852D01*
X95748526Y-104609451D01*
X95751832Y-104610470D01*
X95751834Y-104610472D01*
X95806932Y-104627466D01*
X95810432Y-104628618D01*
X95864808Y-104647646D01*
X95864809Y-104647646D01*
X95868076Y-104648789D01*
X95878144Y-104650500D01*
X95881605Y-104650500D01*
X95923097Y-104650500D01*
X95969791Y-104662203D01*
X96005445Y-104694547D01*
X96005778Y-104695046D01*
X96022430Y-104750028D01*
X96005746Y-104805000D01*
X95961133Y-104871768D01*
X95949500Y-104930253D01*
X95949500Y-105525958D01*
X95939029Y-105570272D01*
X95909829Y-105605211D01*
X95792811Y-105692811D01*
X95706646Y-105807910D01*
X95656401Y-105942623D01*
X95650000Y-106002174D01*
X95650000Y-106149999D01*
X95650001Y-106150000D01*
X98249999Y-106150000D01*
X98250000Y-106149999D01*
X98250000Y-106002176D01*
X98244562Y-105951599D01*
X98255917Y-105893916D01*
X98297980Y-105852842D01*
X98355915Y-105842863D01*
X98450000Y-105855250D01*
X98593709Y-105836330D01*
X98727625Y-105780861D01*
X98842621Y-105692621D01*
X98930861Y-105577625D01*
X98986330Y-105443709D01*
X99005250Y-105300000D01*
X98986330Y-105156291D01*
X98930861Y-105022375D01*
X98880932Y-104957306D01*
X98842621Y-104907378D01*
X98770050Y-104851693D01*
X98727625Y-104819139D01*
X98688401Y-104802892D01*
X98593709Y-104763669D01*
X98450000Y-104744750D01*
X98306290Y-104763669D01*
X98172375Y-104819138D01*
X98078620Y-104891078D01*
X98029131Y-104910947D01*
X97976514Y-104902259D01*
X97936039Y-104867537D01*
X97894552Y-104805448D01*
X97894253Y-104805000D01*
X97877569Y-104749998D01*
X97894254Y-104694996D01*
X97894549Y-104694553D01*
X97894552Y-104694552D01*
X97938867Y-104628231D01*
X97950450Y-104570001D01*
X132351632Y-104570001D01*
X132351929Y-104571941D01*
X132422566Y-104762667D01*
X132530145Y-104935263D01*
X132670268Y-105082670D01*
X132837193Y-105198855D01*
X133024095Y-105279061D01*
X133223307Y-105320000D01*
X133624999Y-105320000D01*
X133625000Y-105319999D01*
X134125000Y-105319999D01*
X134125001Y-105320000D01*
X134475713Y-105320000D01*
X134627335Y-105304581D01*
X134821392Y-105243696D01*
X134999212Y-105144997D01*
X135153531Y-105012519D01*
X135278019Y-104851693D01*
X135367587Y-104669096D01*
X135393246Y-104570001D01*
X136701632Y-104570001D01*
X136701929Y-104571941D01*
X136772566Y-104762667D01*
X136880145Y-104935263D01*
X137020268Y-105082670D01*
X137187193Y-105198855D01*
X137374095Y-105279061D01*
X137573307Y-105320000D01*
X137824999Y-105320000D01*
X137825000Y-105319999D01*
X137825000Y-104570001D01*
X137824999Y-104570000D01*
X136701634Y-104570000D01*
X136701632Y-104570001D01*
X135393246Y-104570001D01*
X135393246Y-104570000D01*
X134125001Y-104570000D01*
X134125000Y-104570001D01*
X134125000Y-105319999D01*
X133625000Y-105319999D01*
X133625000Y-104570001D01*
X133624999Y-104570000D01*
X132351634Y-104570000D01*
X132351632Y-104570001D01*
X97950450Y-104570001D01*
X97950500Y-104569748D01*
X97950500Y-103830252D01*
X97938867Y-103771769D01*
X97894552Y-103705448D01*
X97894254Y-103705002D01*
X97877569Y-103650001D01*
X97894253Y-103594999D01*
X97894552Y-103594552D01*
X97936040Y-103532460D01*
X97976514Y-103497740D01*
X98029131Y-103489052D01*
X98078621Y-103508922D01*
X98158626Y-103570311D01*
X98172375Y-103580861D01*
X98206508Y-103594999D01*
X98306290Y-103636330D01*
X98323008Y-103638531D01*
X98450000Y-103655250D01*
X98593709Y-103636330D01*
X98717067Y-103585234D01*
X98760704Y-103577866D01*
X98803196Y-103590251D01*
X98836044Y-103619915D01*
X98941887Y-103771074D01*
X99108925Y-103938112D01*
X99302423Y-104073601D01*
X99516504Y-104173429D01*
X99730000Y-104230636D01*
X99730000Y-101569364D01*
X100230000Y-101569364D01*
X100230000Y-104230636D01*
X100443495Y-104173429D01*
X100657576Y-104073601D01*
X100662719Y-104070000D01*
X132356754Y-104070000D01*
X133624999Y-104070000D01*
X133625000Y-104069999D01*
X133625000Y-103320001D01*
X133624999Y-103320000D01*
X133274287Y-103320000D01*
X133122664Y-103335418D01*
X132928607Y-103396303D01*
X132750787Y-103495002D01*
X132596468Y-103627480D01*
X132471980Y-103788306D01*
X132382412Y-103970903D01*
X132356754Y-104070000D01*
X100662719Y-104070000D01*
X100851074Y-103938112D01*
X101018112Y-103771074D01*
X101153601Y-103577576D01*
X101253429Y-103363495D01*
X101308816Y-103156787D01*
X101333983Y-103112866D01*
X101377570Y-103087127D01*
X101428184Y-103086299D01*
X101472590Y-103110598D01*
X101499180Y-103153672D01*
X101541788Y-103294130D01*
X101544768Y-103303954D01*
X101642315Y-103486450D01*
X101773590Y-103646410D01*
X101933550Y-103777685D01*
X102116046Y-103875232D01*
X102314066Y-103935300D01*
X102520000Y-103955583D01*
X102725934Y-103935300D01*
X102923954Y-103875232D01*
X103106450Y-103777685D01*
X103266410Y-103646410D01*
X103397685Y-103486450D01*
X103495232Y-103303954D01*
X103555300Y-103105934D01*
X103575583Y-102900000D01*
X104004416Y-102900000D01*
X104024699Y-103105933D01*
X104080325Y-103289307D01*
X104084768Y-103303954D01*
X104182315Y-103486450D01*
X104313590Y-103646410D01*
X104473550Y-103777685D01*
X104656046Y-103875232D01*
X104854066Y-103935300D01*
X105060000Y-103955583D01*
X105265934Y-103935300D01*
X105463954Y-103875232D01*
X105646450Y-103777685D01*
X105656121Y-103769748D01*
X106549500Y-103769748D01*
X106561132Y-103828230D01*
X106561133Y-103828231D01*
X106605447Y-103894552D01*
X106649762Y-103924162D01*
X106671769Y-103938867D01*
X106730252Y-103950500D01*
X108469747Y-103950500D01*
X108469748Y-103950500D01*
X108528231Y-103938867D01*
X108594552Y-103894552D01*
X108638867Y-103828231D01*
X108650500Y-103769748D01*
X108650500Y-102958367D01*
X133919500Y-102958367D01*
X133958022Y-103089562D01*
X134031942Y-103204586D01*
X134031944Y-103204588D01*
X134031945Y-103204589D01*
X134077092Y-103243709D01*
X134090831Y-103255613D01*
X134116053Y-103289307D01*
X134125000Y-103330433D01*
X134125000Y-104069999D01*
X134125001Y-104070000D01*
X135398367Y-104070000D01*
X136706754Y-104070000D01*
X137824999Y-104070000D01*
X137825000Y-104069999D01*
X137825000Y-103320001D01*
X137824999Y-103320000D01*
X137624287Y-103320000D01*
X137472664Y-103335418D01*
X137278607Y-103396303D01*
X137100787Y-103495002D01*
X136946468Y-103627480D01*
X136821980Y-103788306D01*
X136732412Y-103970903D01*
X136706754Y-104070000D01*
X135398367Y-104070000D01*
X135398367Y-104069998D01*
X135398070Y-104068058D01*
X135327433Y-103877332D01*
X135219854Y-103704736D01*
X135079731Y-103557329D01*
X134912806Y-103441144D01*
X134771945Y-103380696D01*
X134732769Y-103350407D01*
X134713162Y-103304934D01*
X134718031Y-103255655D01*
X134746156Y-103214899D01*
X134758055Y-103204589D01*
X134831978Y-103089561D01*
X134870500Y-102958367D01*
X134870500Y-102821633D01*
X134831978Y-102690439D01*
X134831311Y-102689401D01*
X134758055Y-102575410D01*
X134654720Y-102485870D01*
X134530339Y-102429067D01*
X134429014Y-102414500D01*
X134429011Y-102414500D01*
X134360989Y-102414500D01*
X134360986Y-102414500D01*
X134259660Y-102429067D01*
X134135279Y-102485870D01*
X134031944Y-102575410D01*
X133958022Y-102690437D01*
X133919500Y-102821633D01*
X133919500Y-102958367D01*
X108650500Y-102958367D01*
X108650500Y-102030252D01*
X108638867Y-101971769D01*
X108624162Y-101949762D01*
X108594552Y-101905447D01*
X108528231Y-101861133D01*
X108504537Y-101856420D01*
X108469748Y-101849500D01*
X106730252Y-101849500D01*
X106701010Y-101855316D01*
X106671768Y-101861133D01*
X106605447Y-101905447D01*
X106561133Y-101971768D01*
X106555316Y-102001010D01*
X106549500Y-102030252D01*
X106549500Y-103769748D01*
X105656121Y-103769748D01*
X105806410Y-103646410D01*
X105937685Y-103486450D01*
X106035232Y-103303954D01*
X106095300Y-103105934D01*
X106115583Y-102900000D01*
X106095300Y-102694066D01*
X106035232Y-102496046D01*
X105937685Y-102313550D01*
X105806410Y-102153590D01*
X105646450Y-102022315D01*
X105463954Y-101924768D01*
X105463953Y-101924767D01*
X105463952Y-101924767D01*
X105265933Y-101864699D01*
X105060000Y-101844416D01*
X104854066Y-101864699D01*
X104656047Y-101924767D01*
X104473549Y-102022315D01*
X104313590Y-102153590D01*
X104182315Y-102313549D01*
X104084767Y-102496047D01*
X104024699Y-102694066D01*
X104004416Y-102900000D01*
X103575583Y-102900000D01*
X103555300Y-102694066D01*
X103495232Y-102496046D01*
X103397685Y-102313550D01*
X103266410Y-102153590D01*
X103106450Y-102022315D01*
X102923954Y-101924768D01*
X102923953Y-101924767D01*
X102923952Y-101924767D01*
X102725933Y-101864699D01*
X102520000Y-101844416D01*
X102314066Y-101864699D01*
X102116047Y-101924767D01*
X101933549Y-102022315D01*
X101773590Y-102153590D01*
X101642315Y-102313549D01*
X101544766Y-102496047D01*
X101499180Y-102646327D01*
X101472590Y-102689401D01*
X101428183Y-102713700D01*
X101377570Y-102712872D01*
X101333983Y-102687133D01*
X101308816Y-102643212D01*
X101253429Y-102436504D01*
X101153601Y-102222424D01*
X101018112Y-102028925D01*
X100851074Y-101861887D01*
X100657576Y-101726398D01*
X100443495Y-101626570D01*
X100230000Y-101569364D01*
X99730000Y-101569364D01*
X99516505Y-101626570D01*
X99302424Y-101726398D01*
X99116733Y-101856420D01*
X99061388Y-101874314D01*
X99005547Y-101858037D01*
X98968485Y-101813209D01*
X98932527Y-101726398D01*
X98930861Y-101722375D01*
X98860173Y-101630253D01*
X98842621Y-101607378D01*
X98739879Y-101528542D01*
X98705728Y-101479770D01*
X98705728Y-101420230D01*
X98739879Y-101371458D01*
X98842621Y-101292621D01*
X98892495Y-101227624D01*
X98930861Y-101177625D01*
X98963596Y-101098592D01*
X98989782Y-101062050D01*
X99029435Y-101040855D01*
X99074368Y-101039384D01*
X99130252Y-101050500D01*
X100869747Y-101050500D01*
X100869748Y-101050500D01*
X100928231Y-101038867D01*
X100994552Y-100994552D01*
X101038867Y-100928231D01*
X101050500Y-100869748D01*
X101050500Y-100000000D01*
X101484416Y-100000000D01*
X101504699Y-100205933D01*
X101563833Y-100400872D01*
X101564768Y-100403954D01*
X101662315Y-100586450D01*
X101793590Y-100746410D01*
X101953550Y-100877685D01*
X102136046Y-100975232D01*
X102334066Y-101035300D01*
X102540000Y-101055583D01*
X102745934Y-101035300D01*
X102943954Y-100975232D01*
X103126450Y-100877685D01*
X103286410Y-100746410D01*
X103417685Y-100586450D01*
X103515232Y-100403954D01*
X103575300Y-100205934D01*
X103595583Y-100000000D01*
X104024416Y-100000000D01*
X104044699Y-100205933D01*
X104103833Y-100400872D01*
X104104768Y-100403954D01*
X104202315Y-100586450D01*
X104333590Y-100746410D01*
X104493550Y-100877685D01*
X104676046Y-100975232D01*
X104874066Y-101035300D01*
X105080000Y-101055583D01*
X105285934Y-101035300D01*
X105483954Y-100975232D01*
X105666450Y-100877685D01*
X105826410Y-100746410D01*
X105957685Y-100586450D01*
X106055232Y-100403954D01*
X106115300Y-100205934D01*
X106135583Y-100000000D01*
X106564416Y-100000000D01*
X106584699Y-100205933D01*
X106643833Y-100400872D01*
X106644768Y-100403954D01*
X106742315Y-100586450D01*
X106873590Y-100746410D01*
X107033550Y-100877685D01*
X107216046Y-100975232D01*
X107414066Y-101035300D01*
X107620000Y-101055583D01*
X107825934Y-101035300D01*
X108023954Y-100975232D01*
X108206450Y-100877685D01*
X108216123Y-100869747D01*
X118649500Y-100869747D01*
X118661133Y-100928231D01*
X118705447Y-100994552D01*
X118749761Y-101024162D01*
X118771769Y-101038867D01*
X118830252Y-101050500D01*
X120569747Y-101050500D01*
X120569748Y-101050500D01*
X120628231Y-101038867D01*
X120694552Y-100994552D01*
X120738867Y-100928231D01*
X120750500Y-100869748D01*
X120750500Y-99130252D01*
X120738867Y-99071769D01*
X120724162Y-99049761D01*
X120694552Y-99005447D01*
X120628231Y-98961133D01*
X120585282Y-98952590D01*
X120569748Y-98949500D01*
X118830252Y-98949500D01*
X118814718Y-98952590D01*
X118771768Y-98961133D01*
X118705447Y-99005447D01*
X118661133Y-99071768D01*
X118661132Y-99071769D01*
X118661133Y-99071769D01*
X118651501Y-99120195D01*
X118649500Y-99130253D01*
X118649500Y-100869747D01*
X108216123Y-100869747D01*
X108366410Y-100746410D01*
X108497685Y-100586450D01*
X108595232Y-100403954D01*
X108655300Y-100205934D01*
X108675583Y-100000000D01*
X108655300Y-99794066D01*
X108595232Y-99596046D01*
X108497685Y-99413550D01*
X108366410Y-99253590D01*
X108206450Y-99122315D01*
X108023954Y-99024768D01*
X108023953Y-99024767D01*
X108023952Y-99024767D01*
X107825933Y-98964699D01*
X107619999Y-98944416D01*
X107414066Y-98964699D01*
X107216047Y-99024767D01*
X107033549Y-99122315D01*
X106873590Y-99253590D01*
X106742315Y-99413549D01*
X106644767Y-99596047D01*
X106584699Y-99794066D01*
X106564416Y-100000000D01*
X106135583Y-100000000D01*
X106115300Y-99794066D01*
X106055232Y-99596046D01*
X105957685Y-99413550D01*
X105826410Y-99253590D01*
X105666450Y-99122315D01*
X105483954Y-99024768D01*
X105483953Y-99024767D01*
X105483952Y-99024767D01*
X105285933Y-98964699D01*
X105079999Y-98944416D01*
X104874066Y-98964699D01*
X104676047Y-99024767D01*
X104493549Y-99122315D01*
X104333590Y-99253590D01*
X104202315Y-99413549D01*
X104104767Y-99596047D01*
X104044699Y-99794066D01*
X104024416Y-100000000D01*
X103595583Y-100000000D01*
X103575300Y-99794066D01*
X103515232Y-99596046D01*
X103417685Y-99413550D01*
X103286410Y-99253590D01*
X103126450Y-99122315D01*
X102943954Y-99024768D01*
X102943953Y-99024767D01*
X102943952Y-99024767D01*
X102745933Y-98964699D01*
X102539999Y-98944416D01*
X102334066Y-98964699D01*
X102136047Y-99024767D01*
X101953549Y-99122315D01*
X101793590Y-99253590D01*
X101662315Y-99413549D01*
X101564767Y-99596047D01*
X101504699Y-99794066D01*
X101484416Y-100000000D01*
X101050500Y-100000000D01*
X101050500Y-99130252D01*
X101038867Y-99071769D01*
X101024162Y-99049761D01*
X100994552Y-99005447D01*
X100928231Y-98961133D01*
X100885282Y-98952590D01*
X100869748Y-98949500D01*
X99130252Y-98949500D01*
X99114718Y-98952590D01*
X99071768Y-98961133D01*
X99005447Y-99005447D01*
X98961133Y-99071768D01*
X98961132Y-99071769D01*
X98961133Y-99071769D01*
X98951501Y-99120195D01*
X98949500Y-99130253D01*
X98949500Y-100388638D01*
X98934571Y-100440917D01*
X98894287Y-100477428D01*
X98840796Y-100487161D01*
X98790233Y-100467180D01*
X98727624Y-100419138D01*
X98593709Y-100363669D01*
X98450000Y-100344750D01*
X98306290Y-100363669D01*
X98172375Y-100419138D01*
X98078620Y-100491078D01*
X98029131Y-100510947D01*
X97976515Y-100502259D01*
X97936039Y-100467537D01*
X97935800Y-100467180D01*
X97907359Y-100424614D01*
X97894552Y-100405447D01*
X97828231Y-100361133D01*
X97828230Y-100361132D01*
X97769748Y-100349500D01*
X96130252Y-100349500D01*
X96101010Y-100355316D01*
X96071768Y-100361133D01*
X96005447Y-100405447D01*
X95961133Y-100471768D01*
X95949500Y-100530253D01*
X95949500Y-101269747D01*
X95961133Y-101328231D01*
X96005746Y-101394999D01*
X96022430Y-101450000D01*
X96005746Y-101505001D01*
X95961133Y-101571768D01*
X95961132Y-101571769D01*
X95961133Y-101571769D01*
X95950233Y-101626570D01*
X95949500Y-101630253D01*
X95949500Y-102369747D01*
X95961133Y-102428231D01*
X96005746Y-102494999D01*
X96022430Y-102550000D01*
X96005746Y-102605001D01*
X95961133Y-102671768D01*
X95949500Y-102730253D01*
X95949500Y-103186697D01*
X95930972Y-103244362D01*
X95882322Y-103280443D01*
X95821761Y-103281434D01*
X95771958Y-103246964D01*
X95739785Y-103205035D01*
X95672846Y-103153672D01*
X95624789Y-103116796D01*
X95584239Y-103100000D01*
X95490873Y-103061326D01*
X95347164Y-103042407D01*
X95203454Y-103061326D01*
X95069539Y-103116796D01*
X94954542Y-103205035D01*
X94866303Y-103320032D01*
X94810833Y-103453947D01*
X94791914Y-103597657D01*
X80000000Y-103597657D01*
X80000000Y-99494644D01*
X81904500Y-99494644D01*
X81943856Y-99679804D01*
X82020848Y-99852728D01*
X82020849Y-99852730D01*
X82067337Y-99916715D01*
X82132113Y-100005873D01*
X82272781Y-100132531D01*
X82272783Y-100132532D01*
X82272784Y-100132533D01*
X82436716Y-100227179D01*
X82616744Y-100285674D01*
X82757808Y-100300500D01*
X82852189Y-100300500D01*
X82852192Y-100300500D01*
X82993256Y-100285674D01*
X83173284Y-100227179D01*
X83317464Y-100143937D01*
X85195669Y-100143937D01*
X85226134Y-100316712D01*
X85291040Y-100467180D01*
X85295623Y-100477804D01*
X85400390Y-100618530D01*
X85427132Y-100640969D01*
X85534783Y-100731300D01*
X85534784Y-100731300D01*
X85534786Y-100731302D01*
X85684100Y-100806290D01*
X85691569Y-100810041D01*
X85862277Y-100850500D01*
X85862279Y-100850500D01*
X85993704Y-100850500D01*
X85993709Y-100850500D01*
X86124255Y-100835241D01*
X86289117Y-100775237D01*
X86435696Y-100678830D01*
X86556092Y-100551218D01*
X86643812Y-100399281D01*
X86694130Y-100231210D01*
X86704331Y-100056065D01*
X86673865Y-99883289D01*
X86673865Y-99883287D01*
X86604377Y-99722197D01*
X86604377Y-99722196D01*
X86499610Y-99581470D01*
X86432411Y-99525083D01*
X86396136Y-99494644D01*
X88904500Y-99494644D01*
X88943856Y-99679804D01*
X89020848Y-99852728D01*
X89020849Y-99852730D01*
X89067337Y-99916715D01*
X89132113Y-100005873D01*
X89272781Y-100132531D01*
X89272783Y-100132532D01*
X89272784Y-100132533D01*
X89436716Y-100227179D01*
X89616744Y-100285674D01*
X89757808Y-100300500D01*
X89852189Y-100300500D01*
X89852192Y-100300500D01*
X89993256Y-100285674D01*
X90173284Y-100227179D01*
X90337216Y-100132533D01*
X90477888Y-100005871D01*
X90589151Y-99852730D01*
X90666144Y-99679803D01*
X90705500Y-99494646D01*
X90705500Y-99305354D01*
X90666144Y-99120197D01*
X90589151Y-98947270D01*
X90477888Y-98794129D01*
X90477886Y-98794126D01*
X90337218Y-98667468D01*
X90173284Y-98572821D01*
X90173283Y-98572820D01*
X89993256Y-98514326D01*
X89852192Y-98499500D01*
X89757808Y-98499500D01*
X89616743Y-98514326D01*
X89616744Y-98514326D01*
X89436715Y-98572821D01*
X89272781Y-98667468D01*
X89132113Y-98794126D01*
X89020848Y-98947271D01*
X88943856Y-99120195D01*
X88904500Y-99305356D01*
X88904500Y-99494644D01*
X86396136Y-99494644D01*
X86365216Y-99468699D01*
X86208430Y-99389958D01*
X86037723Y-99349500D01*
X86037721Y-99349500D01*
X85906291Y-99349500D01*
X85813043Y-99360399D01*
X85775743Y-99364759D01*
X85610882Y-99424763D01*
X85464304Y-99521169D01*
X85343909Y-99648780D01*
X85256188Y-99800719D01*
X85205870Y-99968789D01*
X85195669Y-100143937D01*
X83317464Y-100143937D01*
X83337216Y-100132533D01*
X83477888Y-100005871D01*
X83589151Y-99852730D01*
X83666144Y-99679803D01*
X83705500Y-99494646D01*
X83705500Y-99305354D01*
X83666144Y-99120197D01*
X83589151Y-98947270D01*
X83477888Y-98794129D01*
X83477886Y-98794126D01*
X83337218Y-98667468D01*
X83173284Y-98572821D01*
X83173283Y-98572820D01*
X82993256Y-98514326D01*
X82852192Y-98499500D01*
X82757808Y-98499500D01*
X82616743Y-98514326D01*
X82616744Y-98514326D01*
X82436715Y-98572821D01*
X82272781Y-98667468D01*
X82132113Y-98794126D01*
X82020848Y-98947271D01*
X81943856Y-99120195D01*
X81904500Y-99305356D01*
X81904500Y-99494644D01*
X80000000Y-99494644D01*
X80000000Y-97147826D01*
X94700000Y-97147826D01*
X94706401Y-97207376D01*
X94756646Y-97342089D01*
X94842811Y-97457188D01*
X94957910Y-97543353D01*
X95092623Y-97593598D01*
X95152174Y-97600000D01*
X95699999Y-97600000D01*
X95700000Y-97599999D01*
X96200000Y-97599999D01*
X96200001Y-97600000D01*
X96747826Y-97600000D01*
X96807376Y-97593598D01*
X96942089Y-97543353D01*
X97053432Y-97460000D01*
X98944416Y-97460000D01*
X98964699Y-97665933D01*
X98986054Y-97736330D01*
X99024768Y-97863954D01*
X99122315Y-98046450D01*
X99253590Y-98206410D01*
X99413550Y-98337685D01*
X99596046Y-98435232D01*
X99794066Y-98495300D01*
X100000000Y-98515583D01*
X100205934Y-98495300D01*
X100403954Y-98435232D01*
X100586450Y-98337685D01*
X100746410Y-98206410D01*
X100877685Y-98046450D01*
X100975232Y-97863954D01*
X101035300Y-97665934D01*
X101055583Y-97460000D01*
X101484416Y-97460000D01*
X101504699Y-97665933D01*
X101526054Y-97736330D01*
X101564768Y-97863954D01*
X101662315Y-98046450D01*
X101793590Y-98206410D01*
X101953550Y-98337685D01*
X102136046Y-98435232D01*
X102334066Y-98495300D01*
X102540000Y-98515583D01*
X102745934Y-98495300D01*
X102943954Y-98435232D01*
X103126450Y-98337685D01*
X103286410Y-98206410D01*
X103417685Y-98046450D01*
X103515232Y-97863954D01*
X103575300Y-97665934D01*
X103595583Y-97460000D01*
X104024416Y-97460000D01*
X104044699Y-97665933D01*
X104066054Y-97736330D01*
X104104768Y-97863954D01*
X104202315Y-98046450D01*
X104333590Y-98206410D01*
X104493550Y-98337685D01*
X104676046Y-98435232D01*
X104874066Y-98495300D01*
X105080000Y-98515583D01*
X105285934Y-98495300D01*
X105483954Y-98435232D01*
X105666450Y-98337685D01*
X105826410Y-98206410D01*
X105957685Y-98046450D01*
X106055232Y-97863954D01*
X106115300Y-97665934D01*
X106135583Y-97460000D01*
X106564416Y-97460000D01*
X106584699Y-97665933D01*
X106606054Y-97736330D01*
X106644768Y-97863954D01*
X106742315Y-98046450D01*
X106873590Y-98206410D01*
X107033550Y-98337685D01*
X107216046Y-98435232D01*
X107414066Y-98495300D01*
X107620000Y-98515583D01*
X107825934Y-98495300D01*
X108023954Y-98435232D01*
X108206450Y-98337685D01*
X108366410Y-98206410D01*
X108497685Y-98046450D01*
X108595232Y-97863954D01*
X108655300Y-97665934D01*
X108675583Y-97460000D01*
X108655300Y-97254066D01*
X108595232Y-97056046D01*
X108497685Y-96873550D01*
X108366410Y-96713590D01*
X108206450Y-96582315D01*
X108023954Y-96484768D01*
X108023953Y-96484767D01*
X108023952Y-96484767D01*
X107825933Y-96424699D01*
X107620000Y-96404416D01*
X107414066Y-96424699D01*
X107216047Y-96484767D01*
X107033549Y-96582315D01*
X106873590Y-96713590D01*
X106742315Y-96873549D01*
X106644767Y-97056047D01*
X106584699Y-97254066D01*
X106564416Y-97460000D01*
X106135583Y-97460000D01*
X106115300Y-97254066D01*
X106055232Y-97056046D01*
X105957685Y-96873550D01*
X105826410Y-96713590D01*
X105666450Y-96582315D01*
X105483954Y-96484768D01*
X105483953Y-96484767D01*
X105483952Y-96484767D01*
X105285933Y-96424699D01*
X105080000Y-96404416D01*
X104874066Y-96424699D01*
X104676047Y-96484767D01*
X104493549Y-96582315D01*
X104333590Y-96713590D01*
X104202315Y-96873549D01*
X104104767Y-97056047D01*
X104044699Y-97254066D01*
X104024416Y-97460000D01*
X103595583Y-97460000D01*
X103575300Y-97254066D01*
X103515232Y-97056046D01*
X103417685Y-96873550D01*
X103286410Y-96713590D01*
X103126450Y-96582315D01*
X102943954Y-96484768D01*
X102943953Y-96484767D01*
X102943952Y-96484767D01*
X102745933Y-96424699D01*
X102540000Y-96404416D01*
X102334066Y-96424699D01*
X102136047Y-96484767D01*
X101953549Y-96582315D01*
X101793590Y-96713590D01*
X101662315Y-96873549D01*
X101564767Y-97056047D01*
X101504699Y-97254066D01*
X101484416Y-97460000D01*
X101055583Y-97460000D01*
X101035300Y-97254066D01*
X100975232Y-97056046D01*
X100877685Y-96873550D01*
X100746410Y-96713590D01*
X100586450Y-96582315D01*
X100403954Y-96484768D01*
X100403953Y-96484767D01*
X100403952Y-96484767D01*
X100205933Y-96424699D01*
X100000000Y-96404416D01*
X99794066Y-96424699D01*
X99596047Y-96484767D01*
X99413549Y-96582315D01*
X99253590Y-96713590D01*
X99122315Y-96873549D01*
X99024767Y-97056047D01*
X98964699Y-97254066D01*
X98944416Y-97460000D01*
X97053432Y-97460000D01*
X97057188Y-97457188D01*
X97143353Y-97342089D01*
X97193598Y-97207376D01*
X97200000Y-97147826D01*
X97200000Y-96550001D01*
X97199999Y-96550000D01*
X96200001Y-96550000D01*
X96200000Y-96550001D01*
X96200000Y-97599999D01*
X95700000Y-97599999D01*
X95700000Y-96550001D01*
X95699999Y-96550000D01*
X94700001Y-96550000D01*
X94700000Y-96550001D01*
X94700000Y-97147826D01*
X80000000Y-97147826D01*
X80000000Y-96047826D01*
X84750000Y-96047826D01*
X84756401Y-96107376D01*
X84806646Y-96242089D01*
X84892811Y-96357188D01*
X85007910Y-96443353D01*
X85142623Y-96493598D01*
X85202174Y-96500000D01*
X86099999Y-96500000D01*
X86100000Y-96499999D01*
X86600000Y-96499999D01*
X86600001Y-96500000D01*
X87497826Y-96500000D01*
X87557376Y-96493598D01*
X87692089Y-96443353D01*
X87807188Y-96357188D01*
X87893353Y-96242089D01*
X87943598Y-96107376D01*
X87950000Y-96047826D01*
X87950000Y-95650001D01*
X87949999Y-95650000D01*
X86600001Y-95650000D01*
X86600000Y-95650001D01*
X86600000Y-96499999D01*
X86100000Y-96499999D01*
X86100000Y-95650001D01*
X86099999Y-95650000D01*
X84750001Y-95650000D01*
X84750000Y-95650001D01*
X84750000Y-96047826D01*
X80000000Y-96047826D01*
X80000000Y-95099000D01*
X80013263Y-95049500D01*
X80049500Y-95013263D01*
X80099000Y-95000000D01*
X84651000Y-95000000D01*
X84700500Y-95013263D01*
G37*
%TD.AperFunction*%
%TD*%
M02*
