%TF.GenerationSoftware,KiCad,Pcbnew,7.0.1*%
%TF.CreationDate,2023-08-01T01:47:10-04:00*%
%TF.ProjectId,cdm324_exp,63646d33-3234-45f6-9578-702e6b696361,rev?*%
%TF.SameCoordinates,Original*%
%TF.FileFunction,AssemblyDrawing,Bot*%
%FSLAX46Y46*%
G04 Gerber Fmt 4.6, Leading zero omitted, Abs format (unit mm)*
G04 Created by KiCad (PCBNEW 7.0.1) date 2023-08-01 01:47:10*
%MOMM*%
%LPD*%
G01*
G04 APERTURE LIST*
%ADD10C,0.150000*%
%ADD11C,0.100000*%
G04 APERTURE END LIST*
D10*
%TO.C,J6*%
X104123333Y-102362619D02*
X104123333Y-103076904D01*
X104123333Y-103076904D02*
X104170952Y-103219761D01*
X104170952Y-103219761D02*
X104266190Y-103315000D01*
X104266190Y-103315000D02*
X104409047Y-103362619D01*
X104409047Y-103362619D02*
X104504285Y-103362619D01*
X103218571Y-102362619D02*
X103409047Y-102362619D01*
X103409047Y-102362619D02*
X103504285Y-102410238D01*
X103504285Y-102410238D02*
X103551904Y-102457857D01*
X103551904Y-102457857D02*
X103647142Y-102600714D01*
X103647142Y-102600714D02*
X103694761Y-102791190D01*
X103694761Y-102791190D02*
X103694761Y-103172142D01*
X103694761Y-103172142D02*
X103647142Y-103267380D01*
X103647142Y-103267380D02*
X103599523Y-103315000D01*
X103599523Y-103315000D02*
X103504285Y-103362619D01*
X103504285Y-103362619D02*
X103313809Y-103362619D01*
X103313809Y-103362619D02*
X103218571Y-103315000D01*
X103218571Y-103315000D02*
X103170952Y-103267380D01*
X103170952Y-103267380D02*
X103123333Y-103172142D01*
X103123333Y-103172142D02*
X103123333Y-102934047D01*
X103123333Y-102934047D02*
X103170952Y-102838809D01*
X103170952Y-102838809D02*
X103218571Y-102791190D01*
X103218571Y-102791190D02*
X103313809Y-102743571D01*
X103313809Y-102743571D02*
X103504285Y-102743571D01*
X103504285Y-102743571D02*
X103599523Y-102791190D01*
X103599523Y-102791190D02*
X103647142Y-102838809D01*
X103647142Y-102838809D02*
X103694761Y-102934047D01*
%TO.C,J5*%
X90184880Y-103583333D02*
X89470595Y-103583333D01*
X89470595Y-103583333D02*
X89327738Y-103630952D01*
X89327738Y-103630952D02*
X89232500Y-103726190D01*
X89232500Y-103726190D02*
X89184880Y-103869047D01*
X89184880Y-103869047D02*
X89184880Y-103964285D01*
X90184880Y-102630952D02*
X90184880Y-103107142D01*
X90184880Y-103107142D02*
X89708690Y-103154761D01*
X89708690Y-103154761D02*
X89756309Y-103107142D01*
X89756309Y-103107142D02*
X89803928Y-103011904D01*
X89803928Y-103011904D02*
X89803928Y-102773809D01*
X89803928Y-102773809D02*
X89756309Y-102678571D01*
X89756309Y-102678571D02*
X89708690Y-102630952D01*
X89708690Y-102630952D02*
X89613452Y-102583333D01*
X89613452Y-102583333D02*
X89375357Y-102583333D01*
X89375357Y-102583333D02*
X89280119Y-102630952D01*
X89280119Y-102630952D02*
X89232500Y-102678571D01*
X89232500Y-102678571D02*
X89184880Y-102773809D01*
X89184880Y-102773809D02*
X89184880Y-103011904D01*
X89184880Y-103011904D02*
X89232500Y-103107142D01*
X89232500Y-103107142D02*
X89280119Y-103154761D01*
%TO.C,J2*%
X123843333Y-98192619D02*
X123843333Y-98906904D01*
X123843333Y-98906904D02*
X123890952Y-99049761D01*
X123890952Y-99049761D02*
X123986190Y-99145000D01*
X123986190Y-99145000D02*
X124129047Y-99192619D01*
X124129047Y-99192619D02*
X124224285Y-99192619D01*
X123414761Y-98287857D02*
X123367142Y-98240238D01*
X123367142Y-98240238D02*
X123271904Y-98192619D01*
X123271904Y-98192619D02*
X123033809Y-98192619D01*
X123033809Y-98192619D02*
X122938571Y-98240238D01*
X122938571Y-98240238D02*
X122890952Y-98287857D01*
X122890952Y-98287857D02*
X122843333Y-98383095D01*
X122843333Y-98383095D02*
X122843333Y-98478333D01*
X122843333Y-98478333D02*
X122890952Y-98621190D01*
X122890952Y-98621190D02*
X123462380Y-99192619D01*
X123462380Y-99192619D02*
X122843333Y-99192619D01*
%TO.C,J1*%
X104143333Y-98192619D02*
X104143333Y-98906904D01*
X104143333Y-98906904D02*
X104190952Y-99049761D01*
X104190952Y-99049761D02*
X104286190Y-99145000D01*
X104286190Y-99145000D02*
X104429047Y-99192619D01*
X104429047Y-99192619D02*
X104524285Y-99192619D01*
X103143333Y-99192619D02*
X103714761Y-99192619D01*
X103429047Y-99192619D02*
X103429047Y-98192619D01*
X103429047Y-98192619D02*
X103524285Y-98335476D01*
X103524285Y-98335476D02*
X103619523Y-98430714D01*
X103619523Y-98430714D02*
X103714761Y-98478333D01*
D11*
%TO.C,J6*%
X98710000Y-104170000D02*
X108235000Y-104170000D01*
X108235000Y-104170000D02*
X108870000Y-103535000D01*
X108870000Y-103535000D02*
X108870000Y-101630000D01*
X98710000Y-101630000D02*
X98710000Y-104170000D01*
X108870000Y-101630000D02*
X98710000Y-101630000D01*
%TO.C,J2*%
X128590000Y-96190000D02*
X118430000Y-96190000D01*
X118430000Y-96190000D02*
X118430000Y-100270000D01*
X118430000Y-100270000D02*
X119430000Y-101270000D01*
X128590000Y-101270000D02*
X128590000Y-96190000D01*
X119430000Y-101270000D02*
X128590000Y-101270000D01*
%TO.C,J1*%
X108890000Y-96190000D02*
X98730000Y-96190000D01*
X98730000Y-96190000D02*
X98730000Y-100270000D01*
X98730000Y-100270000D02*
X99730000Y-101270000D01*
X108890000Y-101270000D02*
X108890000Y-96190000D01*
X99730000Y-101270000D02*
X108890000Y-101270000D01*
%TD*%
M02*
