%TF.GenerationSoftware,KiCad,Pcbnew,7.0.1*%
%TF.CreationDate,2023-07-08T21:15:05-04:00*%
%TF.ProjectId,cdm324_exp,63646d33-3234-45f6-9578-702e6b696361,rev?*%
%TF.SameCoordinates,Original*%
%TF.FileFunction,Soldermask,Bot*%
%TF.FilePolarity,Negative*%
%FSLAX46Y46*%
G04 Gerber Fmt 4.6, Leading zero omitted, Abs format (unit mm)*
G04 Created by KiCad (PCBNEW 7.0.1) date 2023-07-08 21:15:05*
%MOMM*%
%LPD*%
G01*
G04 APERTURE LIST*
%ADD10R,1.700000X1.700000*%
%ADD11O,1.700000X1.700000*%
%ADD12C,1.500000*%
%ADD13R,1.600000X1.600000*%
%ADD14O,1.600000X1.600000*%
%ADD15C,0.650000*%
%ADD16O,2.100000X1.000000*%
%ADD17O,1.800000X1.000000*%
%ADD18C,1.200000*%
%ADD19R,1.600000X0.700000*%
%ADD20R,2.200000X1.200000*%
%ADD21R,1.500000X1.200000*%
%ADD22R,1.500000X1.600000*%
G04 APERTURE END LIST*
D10*
%TO.C,J6*%
X107600000Y-102900000D03*
D11*
X105060000Y-102900000D03*
X102520000Y-102900000D03*
X99980000Y-102900000D03*
%TD*%
D12*
%TO.C,J7*%
X82805000Y-99400000D03*
X89805000Y-99400000D03*
%TD*%
D13*
%TO.C,SW3*%
X121682500Y-107850000D03*
D14*
X129302500Y-107850000D03*
%TD*%
D15*
%TO.C,J3*%
X134395000Y-102890000D03*
X134395000Y-97110000D03*
D16*
X133875000Y-104320000D03*
D17*
X138075000Y-104320000D03*
D16*
X133875000Y-95680000D03*
D17*
X138075000Y-95680000D03*
%TD*%
D18*
%TO.C,J5*%
X85950000Y-108100000D03*
X85950000Y-100100000D03*
D19*
X96950000Y-100900000D03*
X96950000Y-102000000D03*
X96950000Y-103100000D03*
X96950000Y-104200000D03*
X96950000Y-105300000D03*
X96950000Y-106400000D03*
X96950000Y-107500000D03*
X96950000Y-108600000D03*
X96950000Y-109700000D03*
D20*
X86350000Y-110900000D03*
D21*
X95950000Y-110900000D03*
D22*
X95950000Y-96300000D03*
D20*
X86350000Y-95400000D03*
%TD*%
D10*
%TO.C,J2*%
X119700000Y-100000000D03*
D11*
X119700000Y-97460000D03*
X122240000Y-100000000D03*
X122240000Y-97460000D03*
X124780000Y-100000000D03*
X124780000Y-97460000D03*
X127320000Y-100000000D03*
X127320000Y-97460000D03*
%TD*%
D10*
%TO.C,J1*%
X100000000Y-100000000D03*
D11*
X100000000Y-97460000D03*
X102540000Y-100000000D03*
X102540000Y-97460000D03*
X105080000Y-100000000D03*
X105080000Y-97460000D03*
X107620000Y-100000000D03*
X107620000Y-97460000D03*
%TD*%
M02*
